<?xml version="1.0" standalone="no"?>
<!DOCTYPE svg PUBLIC "-//W3C//DTD SVG 20010904//EN"
 "http://www.w3.org/TR/2001/REC-SVG-20010904/DTD/svg10.dtd">
<svg version="1.0" xmlns="http://www.w3.org/2000/svg"
 width="243.000000pt" height="282.000000pt" viewBox="0 0 243.000000 282.000000"
 preserveAspectRatio="xMidYMid meet">

<g transform="translate(0.000000,282.000000) scale(0.100000,-0.100000)"
fill="#000000" stroke="none">
<path d="M1025 2801 c-58 -7 -103 -34 -111 -67 -3 -13 -12 -28 -20 -35 -24
-20 -16 -57 16 -81 17 -12 30 -31 30 -43 0 -19 -6 -21 -77 -20 -62 0 -87 -5
-120 -23 -24 -12 -43 -25 -43 -28 0 -3 8 -1 17 5 13 7 22 4 35 -11 10 -12 18
-16 18 -9 0 7 5 9 10 6 6 -4 8 -11 5 -16 -4 -5 0 -9 7 -10 7 0 4 -4 -7 -9 -11
-5 -14 -9 -7 -9 6 -1 12 -7 12 -15 0 -11 -5 -12 -24 -3 -13 7 -22 15 -20 18 2
4 -3 9 -11 13 -8 3 -12 12 -9 20 4 11 -1 14 -18 13 -12 -1 -27 -5 -33 -10 -5
-4 -19 -14 -30 -22 -11 -7 -17 -17 -13 -21 4 -4 14 -1 23 6 8 7 15 9 15 4 0
-4 7 1 16 12 15 19 15 19 6 0 -7 -14 -4 -30 10 -58 21 -40 31 -44 70 -29 13 5
49 16 81 26 l59 17 55 -54 c100 -95 97 -90 94 -147 -3 -68 11 -87 47 -63 14 9
23 12 19 5 -4 -6 -3 -14 2 -17 5 -3 12 1 15 9 5 13 9 13 26 3 31 -19 38 1 28
78 -8 61 -7 68 11 86 12 10 21 23 21 28 0 6 6 9 13 8 7 -2 11 6 10 22 -2 22
-2 23 8 7 6 -10 8 -21 5 -24 -3 -3 1 -12 9 -20 8 -8 15 -22 15 -31 -1 -11 -6
-7 -16 11 -27 49 -25 23 2 -36 14 -32 31 -57 37 -57 7 0 32 9 56 21 l45 20 20
-24 c12 -13 30 -30 41 -37 11 -8 2 6 -20 30 -22 25 -44 46 -48 48 -4 2 -19 26
-33 53 -22 44 -27 48 -44 39 -11 -6 -20 -16 -19 -23 0 -9 2 -9 6 1 6 15 29 16
39 0 4 -6 3 -8 -4 -4 -6 3 -13 2 -17 -4 -10 -15 -35 -12 -35 5 0 8 -6 15 -12
16 -7 0 2 5 20 10 17 5 32 13 32 18 0 4 -22 22 -50 40 -65 42 -112 90 -108
110 2 9 18 22 36 30 60 27 67 129 9 147 -10 3 -36 21 -57 40 -41 37 -70 44
-145 35z m98 -44 c4 3 7 -1 7 -10 0 -11 12 -18 35 -23 20 -3 34 -8 32 -11 -8
-8 -87 10 -104 24 -16 13 -15 13 7 2 l25 -12 -25 29 c-17 20 -19 24 -4 11 11
-9 24 -14 27 -10z m-103 1 c0 -4 -7 -8 -15 -8 -8 0 -15 4 -15 8 0 5 7 9 15 9
8 0 15 -4 15 -9z m63 -43 c32 -23 40 -35 36 -61 0 -4 5 -11 13 -16 10 -7 10
-11 -4 -22 -10 -7 -15 -16 -11 -19 11 -12 -59 12 -75 25 -9 7 -13 8 -9 2 4 -7
-2 -14 -13 -17 -23 -6 -25 5 -8 32 16 25 3 51 -25 51 -14 0 -24 6 -24 15 0 10
11 15 34 15 20 0 32 4 28 10 -11 19 20 10 58 -15z m97 -20 c5 3 10 1 10 -4 0
-6 6 -11 14 -11 8 0 17 -4 20 -9 4 -5 -2 -7 -13 -4 -10 3 -22 -1 -26 -8 -5 -7
-4 -10 3 -5 6 3 13 2 17 -4 3 -5 -3 -10 -14 -10 -27 0 -35 16 -13 25 15 7 14
9 -7 14 -14 4 -27 13 -29 21 -5 13 -3 13 11 2 9 -8 21 -11 27 -7z m-232 -19
c1 -15 -1 -17 -7 -7 -5 7 -15 17 -22 22 -10 6 -8 8 7 7 12 -1 21 -10 22 -22z
m42 0 c0 -2 -7 -6 -15 -10 -8 -3 -15 -1 -15 4 0 6 7 10 15 10 8 0 15 -2 15 -4z
m7 -51 c-16 -33 -32 -38 -35 -9 -1 13 6 27 15 33 25 14 33 5 20 -24z m26 -69
c19 1 39 4 46 8 21 13 26 -3 5 -18 -12 -9 -21 -11 -25 -4 -4 5 -22 8 -42 5
-29 -4 -34 -2 -29 11 3 9 7 12 9 6 2 -5 18 -9 36 -8z m152 -23 c4 -10 9 -25
10 -33 1 -8 5 -26 9 -40 7 -29 3 -36 -46 -73 -46 -34 -72 -30 -122 21 -40 40
-42 45 -22 61 11 10 20 10 38 0 20 -11 21 -10 10 3 -10 13 -9 15 13 11 19 -4
32 3 57 30 38 41 43 43 53 20z m-311 -5 c-3 -4 0 -8 6 -8 6 0 8 -4 5 -10 -3
-5 -1 -19 6 -31 6 -13 7 -19 1 -15 -6 3 -13 2 -17 -3 -12 -21 -48 -6 -61 26
-16 38 -18 55 -4 33 8 -13 10 -12 10 3 0 13 7 17 29 15 16 -1 27 -6 25 -10z
m113 -100 c-3 -8 -6 -5 -6 6 -1 11 2 17 5 13 3 -3 4 -12 1 -19z m322 -21 c8
-10 7 -14 -2 -14 -8 0 -14 6 -14 14 0 7 1 13 2 13 2 0 8 -6 14 -13z m-279 -57
c0 -5 -2 -10 -4 -10 -3 0 -8 5 -11 10 -3 6 -1 10 4 10 6 0 11 -4 11 -10z m335
-30 c-11 -5 -27 -9 -35 -9 -13 -1 -13 0 0 9 8 5 24 9 35 9 l20 0 -20 -9z
m-165 -85 c0 -8 -21 -13 -60 -14 -55 -1 -78 10 -47 23 24 10 107 3 107 -9z
m-100 -75 c0 -5 -2 -10 -4 -10 -3 0 -8 5 -11 10 -3 6 -1 10 4 10 6 0 11 -4 11
-10z"/>
<path d="M1034 2685 c-3 -8 -3 -18 0 -23 7 -11 66 -3 66 9 0 5 -3 8 -7 8 -25
-4 -34 4 -13 11 24 8 23 8 -8 9 -20 1 -35 -5 -38 -14z"/>
<path d="M1134 2509 c-3 -6 -2 -15 3 -20 5 -5 9 -1 10 11 2 22 -2 25 -13 9z"/>
<path d="M1013 2463 c-7 -3 -3 -13 12 -29 25 -27 46 -34 23 -6 -9 9 -17 22
-19 28 -2 6 -9 9 -16 7z"/>
<path d="M827 2518 c4 -7 8 -16 8 -20 0 -7 14 -12 16 -5 2 9 -15 37 -23 37 -5
0 -6 -6 -1 -12z"/>
<path d="M810 2498 c0 -7 4 -19 9 -27 7 -10 9 -7 8 12 -2 26 -17 39 -17 15z"/>
<path d="M615 2410 c-3 -11 -20 -29 -36 -41 -17 -12 -28 -23 -25 -26 8 -8 64
29 70 46 3 9 9 22 12 29 3 6 1 12 -4 12 -6 0 -13 -9 -17 -20z"/>
<path d="M1658 2338 c17 -17 15 -47 -3 -54 -8 -4 -13 -9 -10 -14 2 -4 -13 -4
-35 0 -45 8 -62 -4 -81 -58 -10 -29 -15 -32 -50 -32 -22 0 -53 7 -69 15 -16 8
-31 11 -34 7 -6 -10 33 -72 45 -72 12 0 -33 -45 -53 -53 -22 -8 -30 26 -11 52
18 27 8 47 -14 26 -8 -8 -30 -27 -49 -41 -42 -32 -43 -45 -4 -37 43 8 40 -18
-7 -56 -35 -29 -36 -32 -21 -48 14 -13 20 -14 33 -3 8 7 18 10 22 6 3 -3 2 -6
-4 -6 -6 0 -8 -10 -6 -23 3 -14 -2 -29 -11 -36 -14 -12 -16 -10 -16 8 0 11 6
21 13 22 6 0 2 4 -11 9 -13 6 -32 6 -47 0 -15 -6 -26 -6 -30 0 -6 10 -5 11 14
14 5 0 13 4 17 9 15 15 -17 6 -73 -20 -32 -14 -62 -25 -67 -24 -4 1 -15 -6
-22 -16 -13 -17 -14 -17 -8 -1 4 11 0 20 -10 24 -9 3 -16 11 -16 17 0 7 4 7
12 -1 17 -17 33 -15 19 2 -9 11 -9 15 1 19 7 2 5 3 -5 1 -13 -2 -17 2 -13 12
5 12 -11 19 -36 15 -4 0 -5 5 -3 12 3 6 -8 21 -24 32 -21 13 -31 29 -34 55 -2
19 0 37 4 40 12 8 -7 34 -19 26 -6 -3 -12 -1 -14 4 -2 6 -10 12 -19 13 -24 4
-95 83 -107 120 -5 17 -10 24 -11 14 -1 -13 -7 -16 -28 -12 -16 3 -21 2 -13
-1 27 -12 52 -38 71 -76 20 -40 14 -47 -24 -26 -19 10 -20 9 -9 -4 10 -13 9
-16 -8 -21 -11 -3 -20 -2 -20 3 0 4 -11 5 -25 2 -21 -4 -24 -1 -19 14 5 16 4
16 -5 4 -8 -11 -6 -18 7 -28 9 -7 16 -18 15 -23 -4 -12 49 -12 81 0 19 8 30 6
50 -10 30 -24 34 -43 7 -34 -24 7 -48 -2 -48 -20 0 -10 11 -13 39 -11 38 3 60
-8 36 -17 -7 -3 -3 -6 10 -6 31 -1 28 -14 -13 -45 -37 -29 -71 -73 -63 -82 3
-3 13 2 22 11 14 15 16 15 16 1 0 -9 -11 -18 -24 -22 -29 -7 -42 -61 -17 -67
14 -4 13 -5 -1 -6 -9 0 -20 -10 -23 -22 -12 -36 -15 -14 -6 37 8 41 7 46 -4
31 -10 -13 -15 -14 -22 -5 -10 13 -48 94 -72 151 -12 31 -31 28 -31 -5 0 -17
-2 -18 -15 -8 -8 7 -15 9 -15 4 -1 -5 -7 2 -15 16 -8 14 -14 19 -15 11 0 -7
31 -46 70 -85 38 -40 70 -80 70 -90 0 -9 -4 -15 -9 -12 -5 3 -11 -1 -15 -9 -3
-9 -18 -15 -35 -15 -16 0 -33 -5 -37 -12 -4 -7 -3 -8 4 -4 14 9 15 -3 2 -24
-11 -17 -12 -16 -38 35 -42 83 -78 102 -247 130 -44 7 -89 16 -100 19 -11 4
-2 -2 20 -12 22 -11 44 -17 49 -14 5 3 6 -1 1 -8 -6 -10 -1 -12 19 -8 14 3 29
1 32 -3 3 -5 11 -9 17 -9 7 0 6 4 -3 10 -12 8 -10 9 8 7 26 -4 61 -57 37 -57
-7 0 -16 12 -18 28 l-4 27 -2 -27 -1 -27 -47 16 c-27 9 -50 20 -53 24 -3 5
-16 10 -28 12 -12 2 -25 6 -28 10 -12 12 -26 8 -18 -5 5 -7 3 -8 -5 -3 -7 4
-11 18 -9 30 4 20 0 23 -40 29 -47 6 -82 29 -82 52 0 7 6 11 14 8 8 -3 17 -1
20 4 9 15 -21 34 -43 27 -40 -12 -39 -85 2 -106 12 -6 38 -30 58 -53 49 -55
87 -96 70 -74 -26 33 -1 33 32 0 30 -31 31 -32 9 -32 -13 0 -20 -4 -17 -10 4
-6 12 -7 18 -3 9 5 9 3 0 -8 -9 -11 -8 -19 6 -38 10 -13 16 -32 14 -42 -4 -14
0 -19 15 -19 19 0 20 3 10 30 -5 17 -19 36 -29 44 -17 11 -17 14 -5 19 9 4 18
2 22 -4 3 -6 12 -8 20 -5 7 3 16 0 20 -6 4 -7 3 -8 -4 -4 -7 4 -13 2 -13 -3
-4 -27 -3 -31 4 -28 5 1 15 -11 22 -28 9 -19 13 -23 12 -10 -3 27 -16 47 -28
40 -5 -4 -9 -1 -9 4 0 20 20 11 58 -25 20 -20 30 -32 22 -28 -9 4 -12 3 -7 -2
5 -5 18 -9 29 -9 14 0 22 -8 24 -22 4 -26 -6 -29 -25 -10 -10 10 -11 9 -6 -3
3 -8 18 -21 34 -28 24 -11 29 -18 28 -47 -1 -43 -10 -44 -48 -6 -17 17 -29 24
-29 16 0 -8 13 -22 29 -31 26 -15 33 -34 13 -34 -14 0 -72 61 -72 76 0 8 4 13
8 10 4 -2 7 7 6 22 0 16 -10 31 -25 40 -24 14 -24 14 -4 -4 21 -20 23 -55 2
-50 -7 1 -9 1 -4 -1 10 -7 8 -35 -4 -53 -8 -12 -9 -10 -4 7 6 23 -9 40 -21 22
-5 -8 -3 -9 7 -4 11 6 12 5 2 -5 -18 -19 -25 -7 -14 22 8 21 6 29 -15 47 -26
23 -34 26 -34 13 0 -5 12 -14 26 -21 22 -10 24 -14 13 -27 -7 -8 -15 -11 -18
-7 -3 5 -16 8 -28 7 -12 -1 -20 3 -17 7 3 5 0 17 -6 26 -11 17 -11 17 -6 1 7
-23 -31 -19 -49 5 -7 9 -15 15 -18 12 -4 -3 -5 -2 -2 2 9 12 45 14 45 2 0 -5
-6 -7 -12 -3 -10 6 -10 4 -1 -6 11 -12 15 -11 28 6 8 10 12 25 10 32 -2 6 0
12 5 12 6 0 10 -12 10 -26 0 -21 3 -24 14 -15 7 6 21 9 30 5 9 -3 16 -1 16 5
0 6 -6 11 -14 11 -8 0 -27 11 -43 24 -15 13 -37 26 -49 30 -18 5 -20 3 -16
-23 3 -24 0 -29 -22 -35 -14 -3 -26 -11 -26 -16 0 -9 39 -34 72 -46 22 -8 23
-23 3 -30 -8 -4 -15 -10 -15 -16 0 -5 6 -6 13 -3 6 4 5 0 -4 -7 -31 -25 -18
-59 31 -84 24 -12 48 -20 52 -18 4 3 8 0 8 -5 0 -6 10 -11 21 -11 21 0 20 -1
-6 -36 -38 -50 -44 -112 -16 -160 12 -20 21 -38 19 -39 -2 -1 -22 -12 -46 -24
-71 -36 -150 -129 -159 -186 -2 -11 -10 -48 -19 -82 -13 -48 -15 -82 -10 -145
4 -46 11 -141 15 -213 9 -152 26 -201 112 -310 95 -121 207 -183 398 -219 80
-15 173 -8 236 18 19 8 56 18 82 22 26 4 58 10 70 15 13 5 44 11 70 14 82 10
127 16 148 21 16 4 17 3 5 -5 -13 -10 -13 -11 0 -11 44 0 178 32 278 65 93 31
118 35 138 26 15 -7 22 -16 18 -26 -4 -9 -1 -15 8 -15 23 0 27 10 16 41 -7 22
-17 29 -36 30 -26 1 -26 1 7 15 18 8 52 14 75 12 35 -3 41 -6 41 -25 0 -12 4
-25 8 -29 11 -12 37 17 37 42 0 29 -30 38 -103 31 l-52 -5 54 25 c89 39 100
40 98 8 -3 -37 20 -43 34 -11 10 22 9 29 -6 46 -18 20 -17 20 9 20 25 0 27 -3
24 -32 -2 -18 2 -33 9 -35 18 -6 28 46 14 69 -10 16 -8 20 11 27 25 10 41 5
33 -10 -11 -17 6 -31 21 -18 37 30 -5 66 -59 51 -17 -6 -41 -13 -52 -18 -20
-7 -20 -7 -1 14 10 12 21 20 25 19 10 -3 245 235 289 295 51 67 62 130 26 154
-17 12 -23 12 -39 0 -17 -12 -17 -16 -5 -31 7 -9 22 -14 32 -12 29 8 22 -21
-19 -74 -20 -27 -39 -49 -40 -49 -2 0 -1 11 3 24 8 32 -19 82 -55 100 -26 14
-30 13 -50 -5 -42 -39 -15 -75 33 -44 21 14 29 15 41 5 8 -7 15 -19 15 -27 0
-18 -43 -101 -70 -133 l-20 -25 14 36 c9 20 11 41 6 48 -9 16 -40 8 -40 -10 0
-6 7 -9 15 -5 8 3 15 1 15 -5 0 -20 -49 -106 -89 -157 -62 -78 -219 -175 -303
-187 -108 -15 -175 -16 -203 -4 -26 10 -27 13 -10 17 37 8 48 58 19 83 -15 12
-14 14 7 19 17 5 23 12 21 25 -3 16 -2 17 12 6 14 -12 16 -11 9 5 -5 16 -4 17
8 8 11 -9 17 -8 29 4 13 14 12 15 -3 9 -20 -8 -45 28 -24 36 6 3 0 6 -14 6
-15 1 -33 9 -40 19 -11 14 -11 15 1 5 8 -7 21 -13 30 -12 9 0 10 2 3 5 -7 3
-9 12 -6 20 3 8 10 11 17 7 14 -9 -21 22 -45 40 -8 7 -22 13 -30 15 -20 5 -36
22 -21 22 9 0 7 8 -4 26 -11 17 -24 24 -36 21 -11 -3 -15 -1 -12 5 5 7 -3 9
-20 6 -16 -3 -33 0 -42 9 -8 9 -14 10 -14 3 0 -6 -4 -9 -9 -5 -5 3 -8 -15 -6
-42 3 -43 2 -46 -11 -28 -23 33 -54 67 -54 60 0 -4 8 -20 17 -36 9 -15 15 -30
12 -33 -2 -2 -27 -7 -56 -11 -50 -6 -52 -6 -58 18 -4 13 -5 41 -3 63 2 32 7
39 23 38 26 0 27 31 3 65 -10 14 -15 27 -11 30 3 3 8 1 10 -5 2 -6 10 -20 17
-30 14 -18 15 -18 33 -1 34 30 35 18 1 -14 -24 -22 -27 -27 -10 -19 18 9 22 8
22 -6 0 -16 2 -16 20 1 18 17 20 17 26 1 4 -11 14 -16 25 -13 10 3 20 0 22 -7
3 -8 9 -7 20 3 14 11 20 11 32 1 12 -10 19 -10 27 -2 9 9 9 12 -1 12 -7 0 -9
5 -6 10 3 6 14 10 23 10 12 0 14 -3 5 -8 -10 -7 -10 -12 0 -26 12 -16 14 -16
26 -2 11 13 11 19 1 31 -20 24 2 17 35 -11 27 -23 28 -25 5 -14 -24 10 -24 10
-6 -4 23 -19 42 -20 51 -6 5 8 11 7 20 0 8 -7 19 -9 25 -5 5 3 10 1 10 -6 0
-8 7 -6 19 5 12 11 25 15 33 10 20 -13 40 -14 60 -3 16 8 17 13 7 25 -10 13
-14 12 -30 -2 -18 -16 -20 -16 -37 0 -18 15 -21 15 -46 -5 l-27 -21 -23 21
c-12 12 -26 18 -31 14 -4 -5 -5 -2 -1 5 11 18 29 15 44 -8 12 -20 12 -20 32 0
24 24 48 26 57 4 5 -13 9 -12 28 6 l23 22 12 -22 11 -21 21 26 c11 14 27 24
34 21 8 -3 14 -1 14 4 0 6 7 10 15 10 7 0 19 8 24 18 8 12 10 -4 11 -63 0
-114 -8 -154 -30 -148 -12 3 -20 -3 -24 -19 -12 -38 -16 -7 -8 57 6 52 10 60
30 63 18 3 22 10 22 38 0 39 -29 50 -31 12 -1 -17 -2 -19 -6 -5 -2 9 -7 17 -9
17 -11 0 -64 -44 -64 -53 0 -5 7 -4 15 3 13 10 12 6 -2 -18 -19 -33 -37 -44
-26 -15 4 11 3 14 -5 9 -7 -4 -12 -12 -12 -17 0 -6 -11 -20 -25 -33 -13 -13
-21 -27 -17 -32 4 -4 -1 -2 -10 5 -10 7 -18 20 -18 27 0 17 -16 18 -23 1 -6
-17 -3 -32 6 -29 4 1 15 -5 24 -14 15 -15 17 -14 28 5 6 12 14 18 19 14 4 -4
4 0 1 8 -4 10 0 16 9 16 13 0 13 -4 0 -30 -9 -16 -24 -32 -35 -34 -10 -3 -19
-12 -19 -19 0 -8 -9 -14 -20 -14 -20 0 -23 -19 -5 -32 6 -5 3 -8 -6 -8 -9 0
-22 -7 -29 -16 -11 -12 -11 -15 0 -12 7 2 18 -13 25 -32 13 -33 16 -35 19 -8
0 6 6 13 13 15 14 5 37 -33 24 -41 -5 -4 -12 0 -14 6 -3 7 -6 1 -6 -13 -1 -19
5 -28 19 -32 12 -3 20 -14 20 -26 0 -35 24 -34 92 3 36 20 68 33 73 29 4 -5 5
-3 2 3 -3 6 7 23 23 39 27 26 28 29 13 51 -15 23 -14 24 8 25 17 1 19 3 7 6
-10 2 -18 8 -18 13 0 16 12 40 21 40 4 0 5 -7 2 -17 -4 -11 -3 -14 5 -9 16 10
15 34 -2 38 -15 3 -9 22 23 73 11 17 20 37 20 45 0 8 -5 4 -12 -9 -6 -14 -18
-26 -25 -27 -7 -1 -8 0 -2 3 5 2 10 9 10 14 0 6 -5 7 -12 3 -7 -4 -8 -3 -4 5
4 6 10 9 14 7 4 -2 7 15 7 39 0 24 -3 41 -7 39 -5 -3 -8 -12 -8 -20 0 -8 -5
-14 -11 -14 -6 0 -8 7 -5 16 3 9 6 22 6 30 0 8 3 13 8 13 22 -4 33 4 42 27 6
14 14 22 20 19 5 -3 10 -2 10 4 0 6 7 8 15 5 10 -4 15 0 15 11 0 9 4 13 10 10
6 -4 4 -17 -6 -36 -8 -17 -13 -37 -10 -45 4 -10 2 -12 -6 -8 -8 5 -9 2 -5 -9
3 -9 1 -19 -5 -23 -7 -5 -8 -2 -3 6 5 8 4 11 -2 7 -6 -4 -8 -18 -6 -32 3 -13
9 -23 13 -20 4 3 14 -2 21 -11 10 -12 10 -22 2 -45 -11 -27 -1 -50 14 -35 4 3
1 6 -5 6 -7 0 -6 9 3 27 8 15 12 41 9 57 -4 25 6 68 36 151 4 12 0 36 -11 60
-10 22 -19 55 -19 72 0 55 -37 134 -80 174 -23 21 -40 46 -40 59 0 12 -7 28
-15 36 -8 9 -15 32 -15 52 0 20 -3 48 -7 61 -4 17 -3 22 5 17 7 -4 12 -1 12 8
0 9 -6 15 -12 13 -20 -4 -21 38 -1 54 17 13 17 13 3 -5 -12 -16 -12 -18 -1
-15 8 3 18 15 22 28 5 12 5 20 0 17 -4 -3 -6 5 -4 18 3 15 14 27 27 30 13 3
28 17 34 31 18 40 14 43 -14 10 -20 -24 -22 -25 -10 -5 10 17 12 30 6 40 -8
12 -10 10 -10 -7 0 -27 -15 -30 -29 -5 -8 14 -11 14 -12 2 -1 -8 -3 -25 -4
-38 -3 -25 -36 -55 -48 -43 -4 4 -10 23 -13 42 -5 32 -3 35 35 50 36 15 40 15
46 1 5 -13 8 -12 20 4 12 17 14 18 20 2 4 -10 13 -14 21 -11 12 5 15 -3 12
-42 -2 -33 -8 -50 -18 -52 -13 -4 -13 -3 0 6 13 9 13 11 0 11 -23 0 -40 -20
-40 -46 0 -13 -5 -26 -10 -29 -6 -4 -8 -11 -4 -16 3 -5 2 -9 -3 -8 -18 3 -33
-1 -33 -10 0 -15 24 -7 54 16 15 12 34 19 42 16 15 -5 21 5 28 49 6 34 24 68
36 68 6 0 10 7 10 15 0 8 15 21 33 29 54 23 67 39 80 96 16 70 12 88 -20 97
-38 9 -104 56 -131 92 -12 17 -28 31 -35 31 -6 0 -1 -7 11 -16 24 -17 30 -36
8 -28 -8 3 -17 1 -20 -5 -4 -6 -13 -8 -22 -4 -12 4 -12 8 -2 21 9 11 4 9 -13
-3 -15 -11 -24 -24 -21 -29 3 -5 0 -6 -6 -2 -6 4 -8 14 -5 22 4 10 1 15 -8 13
-19 -3 -69 11 -69 20 0 14 -39 9 -45 -6 -7 -21 13 -33 39 -24 30 12 70 -38 57
-71 l-10 -23 0 23 c-1 19 -6 22 -28 20 -16 -2 -35 -11 -44 -22 -14 -17 -17
-18 -47 -2 -18 9 -32 14 -32 11 0 -2 22 -16 48 -29 45 -23 84 -56 67 -56 -4 0
-2 -6 4 -14 17 -21 5 -25 -105 -32 -88 -6 -98 -6 -86 8 10 13 9 16 -7 21 -21
5 -41 -9 -41 -30 0 -9 -15 -13 -45 -13 l-45 0 0 37 c0 35 1 36 15 17 8 -10 15
-26 15 -34 0 -12 2 -13 9 -1 5 7 6 21 4 31 -4 15 -1 18 16 13 20 -5 51 11 51
27 0 5 -8 6 -19 3 -11 -3 -21 2 -24 11 -4 9 -2 16 3 16 6 0 10 7 10 15 0 14
12 19 33 16 20 -3 3 19 -33 43 -39 26 -55 51 -25 39 9 -3 14 -8 11 -11 -6 -5
58 -42 71 -42 5 0 -1 8 -12 16 l-20 16 20 -3 c29 -4 65 10 65 26 0 7 6 16 13
18 7 3 4 6 -6 6 -10 1 -16 5 -13 10 4 5 -3 7 -14 4 -15 -4 -18 -9 -10 -18 8
-9 5 -14 -10 -18 -14 -3 -18 -1 -13 6 10 16 15 57 7 57 -3 0 -14 -10 -25 -22
-17 -21 -18 -21 -12 -3 6 18 5 18 -10 6 -28 -22 -19 4 16 51 20 26 40 42 50
40 20 -3 22 9 5 27 -11 10 -9 11 5 5 11 -4 25 0 37 11 11 10 23 15 27 12 3 -4
0 -7 -8 -7 -28 -1 57 -39 88 -40 39 0 56 -35 27 -57 -15 -11 -21 -10 -37 5
-19 16 -19 16 -7 -3 10 -16 75 -54 145 -83 6 -3 -7 11 -27 29 -21 19 -43 51
-50 74 -12 36 -17 41 -53 46 -22 3 -31 7 -19 8 11 0 29 7 39 15 11 8 26 12 35
9 11 -3 10 0 -4 11 -13 11 -24 12 -43 5 -14 -5 -47 -7 -73 -4 -41 5 -49 3 -53
-12 -4 -17 -5 -17 -6 0 -3 46 -64 2 -106 -77 -16 -31 -33 -56 -37 -56 -11 0 2
54 15 65 7 6 13 17 15 25 5 21 43 60 53 54 5 -3 9 2 9 10 0 13 14 16 80 16 44
0 80 4 80 9 0 5 8 7 18 5 9 -3 31 5 47 16 17 11 25 20 19 20 -5 0 -19 -7 -30
-15 -33 -25 -50 -18 -24 10 12 13 27 22 33 18 6 -3 7 -1 3 5 -3 6 3 13 16 16
13 2 3 3 -22 2 -25 -2 -68 -13 -96 -24 -46 -19 -54 -19 -70 -6 -11 8 -14 14
-9 13 30 -4 76 27 58 40 -5 3 -16 18 -26 34 -10 15 -23 27 -29 27 -9 0 -9 -3
0 -12z m117 -124 c-27 -22 -38 -24 -97 -21 -37 1 -72 7 -78 13 -7 7 5 9 37 6
89 -7 101 -5 129 17 37 29 45 16 9 -15z m-271 -54 c33 0 49 -15 41 -39 l-6
-21 -32 24 c-18 13 -49 27 -69 31 -20 4 -39 13 -42 20 -3 10 5 10 41 -1 26 -8
56 -14 67 -14z m259 -27 c-7 -2 -21 -2 -30 0 -10 3 -4 5 12 5 17 0 24 -2 18
-5z m-292 -40 l24 -28 -26 23 c-26 23 -26 23 -32 2 -3 -11 -11 -19 -17 -18 -7
2 -15 -3 -18 -11 -2 -8 0 -11 5 -8 6 4 5 -14 -1 -45 -8 -40 -8 -52 2 -56 6 -2
12 -8 12 -14 0 -6 -7 -7 -16 -4 -15 6 -15 4 0 -19 15 -23 15 -25 0 -25 -14 0
-15 -6 -9 -37 13 -65 14 -134 1 -130 -6 2 -11 10 -12 18 -2 34 -5 39 -19 39
-9 0 -12 -6 -9 -15 4 -11 2 -13 -9 -9 -21 8 -41 64 -23 64 8 0 17 -7 20 -16 4
-10 14 -14 26 -11 10 3 21 1 24 -4 2 -5 3 -4 2 3 -2 7 -9 13 -16 13 -7 0 -15
6 -18 14 -3 9 0 11 8 6 10 -6 12 -4 7 9 -4 10 -7 22 -7 27 0 6 -4 7 -10 4 -5
-3 -10 -3 -11 2 0 4 -2 39 -4 76 l-5 69 52 54 c28 30 52 54 53 54 1 0 12 -12
26 -27z m-1354 -14 c-14 -8 -17 -18 -12 -41 5 -21 4 -28 -4 -24 -24 16 -6 77
24 76 5 0 2 -5 -8 -11z m1360 -45 c3 -8 2 -19 -3 -24 -12 -11 -48 16 -39 29 9
16 35 13 42 -5z m-502 -24 c3 -5 0 -10 -7 -10 -10 0 -9 -3 2 -11 12 -8 10 -9
-7 -4 -18 5 -23 2 -23 -14 0 -25 -12 -33 -30 -19 -12 8 -12 9 3 4 13 -4 17 0
16 17 0 12 -3 16 -6 10 -2 -7 -11 -13 -19 -13 -8 0 -14 -5 -14 -11 0 -5 -5 -7
-10 -4 -6 4 0 15 15 26 13 11 29 17 35 14 6 -3 13 1 16 9 7 18 20 21 29 6z
m-815 -20 c0 -5 -2 -10 -4 -10 -3 0 -8 5 -11 10 -3 6 -1 10 4 10 6 0 11 -4 11
-10z m40 -11 c0 -5 -4 -9 -10 -9 -5 0 -10 7 -10 16 0 8 5 12 10 9 6 -3 10 -10
10 -16z m1090 11 c0 -5 -8 -10 -17 -10 -15 0 -16 2 -3 10 19 12 20 12 20 0z
m250 6 c0 -2 -8 -10 -17 -17 -16 -13 -17 -12 -4 4 13 16 21 21 21 13z m-44
-29 c-4 -19 -39 -87 -46 -87 -3 0 -13 9 -23 20 -17 21 -10 28 11 10 6 -6 10
-7 7 -4 -6 10 24 64 36 64 6 0 7 5 3 12 -4 6 -3 8 4 5 5 -4 9 -13 8 -20z
m-1117 -72 c79 -24 84 -24 97 -8 7 10 13 23 13 28 0 6 -3 4 -6 -3 -5 -13 -23
-7 -23 9 0 15 71 4 81 -13 17 -26 8 -32 -12 -8 -11 14 -17 18 -13 10 14 -29
36 -49 49 -44 7 3 16 0 21 -7 4 -8 3 -10 -4 -5 -8 5 -10 2 -6 -8 3 -9 10 -13
15 -10 5 3 6 -3 2 -12 -3 -10 -2 -15 3 -12 10 7 13 -47 2 -57 -3 -4 -14 6 -24
22 -21 33 -75 93 -84 93 -4 0 10 -18 30 -39 41 -43 57 -81 34 -81 -18 0 -18
-15 2 -34 14 -15 14 -16 -6 -16 -29 0 -45 -42 -19 -52 11 -4 25 -5 33 -2 8 3
16 -4 19 -17 9 -34 -1 -41 -30 -22 -14 9 -34 18 -45 18 -22 2 -50 25 -29 25 7
0 9 5 6 10 -3 6 -2 10 4 10 5 0 9 9 8 20 -1 23 -54 75 -104 105 -18 11 -33 25
-33 32 0 7 -9 22 -19 32 -20 20 -20 20 -23 -2 -3 -18 -10 -14 -63 36 l-60 57
50 -15 c28 -9 88 -27 134 -40z m362 28 c13 -16 12 -17 -3 -4 -17 13 -22 21
-14 21 2 0 10 -8 17 -17z m236 0 c-4 -3 1 -12 11 -19 27 -21 37 -16 16 7 -19
22 -19 22 4 8 24 -15 27 -24 12 -34 -5 -3 -10 -15 -10 -26 0 -24 -33 -58 -57
-57 -10 0 -25 -2 -34 -6 -11 -5 -18 -1 -22 13 -4 15 0 21 11 21 15 1 15 2 -1
11 -9 6 -15 14 -12 20 4 5 1 9 -4 9 -18 0 -12 29 8 40 26 13 31 13 31 -4 0 -7
7 -19 15 -26 10 -9 15 -9 15 -1 0 6 -5 11 -10 11 -7 0 -7 6 0 20 6 11 16 20
22 20 6 0 8 -3 5 -7z m281 -10 c-2 -11 -14 -19 -31 -21 -22 -3 -27 1 -27 17 0
17 6 21 31 21 24 0 30 -4 27 -17z m-1037 -10 c13 -16 12 -17 -3 -4 -10 7 -18
15 -18 17 0 8 8 3 21 -13z m959 -3 c0 -15 -6 -19 -25 -18 -14 1 -25 5 -25 9 0
5 33 24 48 28 1 1 2 -8 2 -19z m740 1 c0 -5 -7 -15 -17 -22 -9 -8 -25 -34 -36
-59 -11 -25 -25 -48 -31 -52 -6 -4 -1 -11 14 -17 18 -7 20 -10 8 -10 -10 -1
-18 -8 -18 -16 0 -18 12 -19 27 -4 7 7 12 4 16 -10 3 -13 0 -21 -7 -21 -21 0
-49 26 -44 41 2 7 -5 22 -16 31 -15 13 -16 16 -4 12 16 -6 19 -1 32 59 4 15
13 27 22 27 8 0 12 5 9 10 -3 6 1 13 9 16 9 3 13 10 10 15 -3 5 2 9 10 9 9 0
16 -4 16 -9z m-800 -11 c0 -5 -8 -10 -17 -10 -15 0 -16 2 -3 10 19 12 20 12
20 0z m313 -23 c10 -26 -8 -36 -20 -11 -9 19 -8 24 2 24 7 0 15 -6 18 -13z
m581 1 c10 -10 9 -16 -8 -30 -24 -20 -11 -23 30 -8 23 9 30 7 50 -15 21 -23
22 -28 10 -62 -10 -30 -19 -39 -47 -45 -46 -10 -91 -2 -123 23 -14 11 -31 17
-37 13 -7 -4 -9 -3 -6 3 4 6 0 14 -8 17 -14 5 -13 11 5 46 19 37 61 67 79 56
4 -3 13 -1 21 5 19 11 18 11 34 -3z m-854 -27 c10 -1 4 -10 -15 -26 -37 -30
-28 -32 20 -5 46 26 53 25 29 -1 -19 -22 -19 -22 4 -10 22 12 23 11 12 -8 -6
-12 -7 -21 -1 -21 5 0 12 6 15 13 3 6 4 -12 4 -41 -1 -36 -7 -57 -20 -69 -23
-21 -38 -75 -38 -140 0 -29 -3 -53 -7 -54 -5 0 -17 -2 -28 -4 -19 -3 -18 -2 3
15 12 10 22 21 22 23 0 8 -43 2 -58 -7 -7 -4 -12 -4 -11 1 4 21 -3 20 -26 -2
-18 -19 -35 -25 -69 -25 -25 0 -48 5 -52 11 -4 7 -22 9 -44 6 -35 -4 -37 -3
-37 21 0 20 1 22 8 9 10 -16 66 -21 75 -5 5 8 -5 11 -37 11 -9 0 -24 14 -32
32 -15 31 -15 33 4 28 21 -6 27 12 7 20 -7 3 9 6 36 6 59 1 57 16 -3 20 -48 3
-66 66 -19 65 23 0 25 2 17 24 -5 14 -7 27 -4 30 3 3 5 0 5 -7 0 -7 4 -10 9
-7 4 3 16 -3 26 -14 10 -11 23 -20 29 -20 6 0 4 5 -4 10 -13 9 -13 10 0 10 13
0 13 1 0 10 -13 8 -13 11 -1 19 7 5 11 13 7 19 -3 6 8 4 24 -5 33 -16 58 -9
28 8 -10 6 -15 16 -11 25 5 13 7 13 14 2 7 -11 9 -11 9 1 0 9 8 11 26 7 24 -6
25 -6 10 9 -9 9 -16 17 -16 18 0 2 24 1 90 -2z m47 3 c-3 -3 -12 -4 -19 -1 -8
3 -5 6 6 6 11 1 17 -2 13 -5z m579 -22 c17 -17 20 -17 31 -3 10 14 11 13 6 -6
-7 -29 -9 -29 -45 2 -16 14 -25 25 -21 25 5 0 18 -8 29 -18z m-1151 -72 c-3
-6 -11 -10 -17 -10 -7 0 -6 5 1 14 8 10 9 16 1 21 -5 3 -10 11 -10 18 0 6 7 1
16 -11 8 -12 12 -27 9 -32z m802 -10 c2 -23 -1 -30 -15 -29 -10 0 -12 3 -5 6
9 3 10 10 3 24 -8 13 -7 19 0 19 6 0 8 6 4 13 -4 6 -4 9 1 5 5 -5 10 -21 12
-38z m-775 -2 c-6 -6 -8 -17 -5 -24 3 -8 0 -14 -7 -14 -6 0 -8 5 -5 10 3 6 -1
10 -9 10 -14 0 -14 3 2 18 9 11 21 17 25 14 5 -2 4 -9 -1 -14z m667 7 c13 0
26 -6 29 -14 4 -11 0 -12 -14 -6 -11 4 -27 7 -36 7 -9 0 -19 6 -22 14 -4 10
-2 13 7 7 6 -4 23 -8 36 -8z m-596 -57 c-5 -34 -2 -42 27 -68 17 -16 38 -26
45 -23 10 3 16 -7 20 -34 15 -97 15 -98 5 -83 -8 13 -10 13 -10 -2 0 -9 -3
-24 -7 -34 -5 -13 -3 -15 7 -9 8 5 11 4 6 -3 -11 -18 -34 -3 -41 26 -3 15 -8
35 -11 45 -4 11 0 17 10 17 9 0 16 4 16 10 0 11 -35 32 -42 25 -2 -3 -15 26
-28 63 -31 86 -45 113 -55 104 -5 -4 -5 -2 -1 5 4 7 13 10 20 7 8 -3 17 0 21
6 13 21 23 -9 18 -52z m-486 22 c2 -21 -11 -27 -22 -10 -7 11 2 30 13 30 4 0
8 -9 9 -20z m1117 0 c51 -8 95 -8 168 1 110 13 210 8 216 -9 2 -7 10 -12 18
-12 21 0 17 -18 -6 -25 -19 -6 -56 -2 -104 12 -15 4 -16 7 -5 14 9 6 -2 8 -31
7 -25 0 -34 -3 -20 -5 14 -2 36 -13 50 -24 l25 -21 -27 6 c-14 3 -34 9 -45 12
-15 6 -16 5 -5 -7 7 -8 20 -14 29 -14 8 0 25 -19 37 -42 12 -24 26 -41 34 -38
6 2 12 -2 12 -10 0 -7 5 -17 11 -21 8 -4 9 1 4 16 -5 15 -4 20 4 16 14 -9 14
0 0 27 -12 21 -11 21 8 5 11 -10 24 -18 30 -18 5 0 16 -12 23 -26 19 -35 6
-52 -58 -76 -44 -16 -54 -25 -59 -48 -7 -38 -45 -50 -143 -46 -50 3 -68 1 -55
-5 15 -7 11 -8 -16 -5 -28 3 -42 -1 -64 -20 -25 -21 -49 -34 -31 -17 9 9 -83
67 -108 67 -11 1 -21 7 -24 14 -3 11 0 12 16 3 14 -7 23 -8 27 -1 8 13 40 -3
77 -38 26 -24 29 -24 46 -9 10 9 25 17 34 17 11 0 14 7 10 26 -5 26 -5 26 25
10 40 -20 49 -9 18 20 -14 13 -25 32 -25 44 0 18 3 19 23 9 22 -12 22 -12 3 9
-15 17 -19 36 -18 84 2 87 -4 101 -35 93 -44 -11 -174 -7 -189 6 -20 16 2 42
30 35 12 -3 52 -10 90 -16z m420 14 c9 -3 16 -12 16 -20 0 -15 -22 -10 -55 13
-19 13 -19 13 2 13 12 0 28 -3 37 -6z m40 -19 c3 -8 1 -15 -4 -15 -6 0 -10 7
-10 15 0 8 2 15 4 15 2 0 6 -7 10 -15z m-467 -77 c-3 -7 -5 -2 -5 12 0 14 2
19 5 13 2 -7 2 -19 0 -25z m646 25 c-7 -2 -19 -2 -25 0 -7 3 -2 5 12 5 14 0
19 -2 13 -5z m-3 -24 c0 -5 -4 -8 -9 -5 -5 4 -12 0 -14 -6 -3 -8 -6 -6 -6 5
-1 9 6 17 14 17 8 0 15 -5 15 -11z m-716 -57 c-4 -15 -8 -33 -9 -41 0 -18 -25
-27 -25 -10 0 7 -3 10 -6 7 -3 -4 2 -19 12 -34 25 -37 27 -57 6 -49 -30 12
-36 10 -40 -8 -5 -25 28 -59 50 -54 10 3 21 1 24 -4 3 -5 -11 -9 -30 -9 -25 0
-39 6 -50 22 -22 31 -20 45 9 73 20 21 21 25 7 25 -10 0 -24 6 -32 13 -8 6 -7
3 3 -9 15 -18 15 -23 3 -33 -8 -7 -16 -8 -18 -4 -3 4 -3 3 -2 -4 2 -6 -5 -29
-15 -50 -11 -21 -29 -73 -42 -116 -16 -51 -28 -76 -36 -72 -8 3 -13 -4 -13
-18 0 -18 2 -19 10 -7 15 24 1 -74 -23 -155 -11 -38 -21 -94 -21 -122 -1 -43
-4 -53 -18 -53 -14 0 -16 6 -11 30 7 39 -5 39 -18 0 -11 -30 -32 -39 -44 -20
-3 6 3 10 14 10 12 0 21 5 21 11 0 6 -7 9 -15 5 -9 -3 -4 15 17 54 18 32 36
58 41 57 5 -1 12 4 14 11 3 6 0 12 -6 12 -6 0 -11 5 -11 11 0 6 6 9 14 6 19
-7 28 17 13 32 -9 10 -8 15 6 25 18 14 25 42 7 31 -6 -4 -8 10 -5 37 5 46 23
112 24 89 1 -11 4 -11 16 -1 19 16 20 34 1 27 -9 -4 -13 0 -11 11 2 9 4 24 5
32 1 10 4 9 9 -5 8 -19 8 -19 20 3 10 18 9 22 -4 22 -17 0 -18 2 -9 24 3 9 13
16 21 16 8 0 13 8 11 18 -1 10 6 31 17 48 10 16 18 41 16 57 -3 32 2 34 28 6
19 -21 19 -21 6 18 -21 56 -19 78 6 80 16 2 20 -3 16 -16 -9 -37 9 -40 28 -4
15 27 21 32 23 19 2 -10 0 -30 -4 -44z m-730 19 c-2 -3 -12 3 -22 13 -16 17
-16 18 5 5 12 -7 20 -15 17 -18z m-268 10 c22 -21 82 -49 90 -41 5 5 19 0 31
-10 20 -15 21 -20 8 -30 -8 -7 -20 -10 -27 -7 -7 2 -15 4 -18 3 -3 0 -13 6
-23 14 -32 27 -42 35 -65 48 -21 12 -22 11 -13 -6 7 -13 7 -22 0 -29 -7 -7 -5
-12 5 -16 11 -5 16 0 16 15 0 17 2 18 15 8 17 -14 21 -35 5 -25 -5 3 -10 2
-10 -4 0 -9 57 -27 73 -23 5 2 5 -2 2 -8 -4 -7 2 -14 14 -17 12 -3 21 -9 21
-13 0 -4 -15 -2 -34 4 -19 6 -32 14 -29 19 3 5 -1 8 -8 6 -31 -4 -60 2 -54 10
3 5 -3 12 -13 15 -15 5 -18 16 -18 51 1 43 11 55 32 36z m1105 -42 c-6 -11
-11 -29 -11 -41 0 -21 0 -21 -14 -3 -8 11 -12 23 -10 27 3 5 0 8 -5 8 -6 0
-11 11 -11 25 0 31 18 33 30 3 8 -22 9 -21 10 7 1 27 2 28 12 11 8 -14 8 -24
-1 -37z m-867 15 c3 -8 2 -12 -4 -9 -6 3 -10 10 -10 16 0 14 7 11 14 -7z m61
-4 c3 -5 1 -10 -5 -10 -7 0 -25 -11 -42 -25 -16 -14 -35 -25 -41 -25 -7 0 -23
-18 -36 -40 -14 -21 -28 -37 -33 -34 -4 3 -5 -8 -2 -23 3 -17 -2 -42 -14 -65
l-20 -38 37 0 c49 0 111 -11 107 -19 -2 -3 7 -7 21 -7 31 -2 117 -59 170 -114
38 -39 43 -42 60 -29 16 12 17 12 6 -2 -11 -13 -9 -19 8 -35 26 -23 50 -69 42
-78 -15 -15 -38 -3 -79 42 -47 51 -52 62 -28 62 8 0 12 5 9 10 -5 8 -11 7 -21
-1 -12 -10 -25 -1 -75 49 -65 67 -125 93 -206 90 -23 -1 -45 1 -49 4 -3 4 -9
28 -12 54 -4 41 -3 46 12 41 9 -4 16 -2 16 2 0 5 -4 11 -10 13 -15 5 21 69 44
78 12 5 15 9 7 9 -10 1 -8 8 8 25 14 15 29 22 39 19 10 -4 13 -2 8 5 -4 7 -1
12 7 12 8 0 22 9 32 20 20 22 31 25 40 10z m79 -32 c4 4 6 2 4 -4 -4 -15 99
-152 129 -171 13 -9 23 -20 23 -27 0 -6 -21 10 -46 37 -25 26 -49 47 -54 47
-5 0 -28 27 -50 61 -23 33 -48 63 -56 66 -8 3 -14 9 -14 15 0 5 13 0 29 -11
15 -11 31 -17 35 -13z m1267 -15 c0 -16 2 -15 10 2 l9 20 -3 -20 c-2 -11 -9
-19 -16 -17 -8 2 -23 -5 -35 -15 l-21 -18 19 23 c11 12 16 22 12 22 -4 0 -4 5
-1 10 10 16 25 12 26 -7z m-628 -24 c4 -15 2 -18 -7 -10 -7 6 -16 8 -19 4 -4
-3 -7 -2 -7 4 0 28 26 30 33 2z m95 -24 c0 -36 -11 -46 -22 -19 -9 23 -7 36 4
29 6 -3 10 1 10 9 0 9 2 16 4 16 2 0 4 -16 4 -35z m392 -14 c-20 -29 -40 -44
-25 -20 4 6 -3 13 -15 16 -19 5 -17 8 17 23 21 9 40 16 42 14 2 -1 -7 -17 -19
-33z m-835 4 c11 -4 29 -9 39 -9 11 -1 21 -7 24 -13 2 -7 11 -13 20 -14 10 0
12 -3 5 -5 -6 -3 -24 3 -39 13 -31 20 -33 20 -46 1 -8 -10 -9 -9 -5 4 7 20
-26 31 -43 14 -8 -7 -7 -3 1 11 7 12 16 19 19 14 3 -4 14 -11 25 -16z m119 13
c-5 -7 0 -9 14 -6 19 5 20 4 11 -14 -10 -19 -12 -19 -27 -5 -14 15 -17 15 -29
-1 -13 -15 -13 -15 -4 5 9 18 21 28 39 32 2 1 0 -4 -4 -11z m-414 -65 c0 -18
6 -23 25 -23 17 0 29 -9 40 -29 8 -16 28 -40 45 -53 21 -17 29 -29 24 -41 -3
-9 -10 -15 -14 -12 -5 3 -14 -3 -20 -12 -9 -15 -10 -11 -6 20 4 34 3 36 -15
27 -17 -9 -19 -7 -19 18 0 36 -16 52 -52 52 -20 0 -31 -7 -38 -22 l-9 -23 0
23 c-1 18 -6 23 -23 20 -16 -2 -22 -9 -20 -22 4 -24 -22 -16 -27 9 -4 23 24
45 57 45 17 0 23 5 20 18 -4 19 -56 23 -92 7 -19 -8 -19 -8 0 11 11 11 31 28
43 36 22 16 25 15 52 -5 18 -12 29 -30 29 -44z m95 57 c-3 -5 -12 -10 -18 -10
-7 0 -6 4 3 10 19 12 23 12 15 0z m98 -21 c-8 -8 -13 -7 -18 2 -5 8 -4 10 3 5
7 -4 12 -2 12 5 0 7 3 9 7 6 4 -4 2 -12 -4 -18z m849 -21 c-8 -18 -17 -27 -19
-21 -5 15 14 53 27 53 4 0 1 -14 -8 -32z m128 -103 c0 -5 -2 -28 -4 -50 -6
-78 -18 -145 -27 -151 -5 -3 -7 -10 -4 -15 3 -5 -3 -29 -14 -54 -18 -41 -23
-45 -40 -36 -30 17 -36 13 -11 -7 22 -17 22 -18 2 -35 -19 -17 -22 -17 -51 -3
-16 9 -36 16 -43 16 -7 -1 8 -10 34 -21 26 -12 49 -28 51 -38 3 -12 5 -10 6 5
2 32 31 54 59 43 42 -16 20 -85 -25 -77 -10 1 -23 -1 -30 -5 -31 -20 -192 -28
-331 -17 -178 15 -194 19 -203 54 -6 23 -2 32 28 59 19 18 41 44 49 60 18 33
22 33 92 1 31 -15 69 -27 84 -27 15 0 25 -4 23 -8 -3 -4 8 -11 23 -17 38 -13
57 3 57 48 0 33 2 35 30 33 17 -1 23 0 15 3 -8 3 -48 19 -88 35 -54 22 -77 27
-91 20 -25 -14 -35 -42 -19 -53 25 -16 32 -6 31 40 -1 15 -3 15 36 1 23 -8 29
-15 22 -22 -15 -15 -14 -50 2 -44 6 2 12 14 11 26 0 12 6 21 13 21 8 0 11 -5
7 -11 -3 -6 -1 -15 7 -19 10 -7 10 -11 0 -24 -7 -9 -18 -13 -24 -9 -6 4 -8 0
-4 -10 3 -9 1 -19 -5 -23 -6 -4 -8 -3 -5 3 9 14 -36 33 -64 26 -20 -4 -21 -3
-9 7 12 9 11 10 -9 5 -17 -5 -21 -4 -16 5 5 9 1 10 -15 5 -15 -5 -20 -4 -16 4
4 6 3 11 -3 11 -5 0 -22 5 -38 11 -15 6 -30 11 -33 11 -21 1 -40 23 -39 46 0
26 1 26 9 5 10 -24 46 -28 54 -6 9 21 29 15 23 -7 -8 -30 30 -48 48 -23 16 21
11 33 -14 33 -11 0 -21 9 -24 22 l-6 21 -20 -24 c-11 -13 -20 -18 -21 -11 0 6
5 12 10 12 6 0 10 15 10 33 1 26 2 29 11 15 13 -23 29 -23 29 -1 0 14 2 14 20
-2 11 -10 18 -21 15 -25 -2 -4 1 -7 8 -8 7 0 24 -3 40 -5 37 -6 34 -1 -15 24
-55 27 -53 24 -31 46 12 12 31 17 58 16 22 -1 31 1 20 3 -11 3 -27 7 -35 10
-8 3 -17 5 -19 4 -2 -1 -7 2 -10 8 -3 5 -15 14 -26 21 l-20 13 20 -8 c62 -21
205 -10 205 17 0 9 57 29 103 36 45 7 62 18 94 60 l28 37 8 -65 c5 -35 8 -68
7 -74z m-84 103 c-3 -13 -5 -25 -5 -27 -1 -3 -6 0 -12 6 -13 13 -5 43 11 43 5
0 8 -10 6 -22z m-906 -18 c0 -5 -5 -10 -11 -10 -5 0 -7 5 -4 10 3 6 8 10 11
10 2 0 4 -4 4 -10z m830 -24 c0 -3 -4 -8 -10 -11 -5 -3 -10 -1 -10 4 0 6 5 11
10 11 6 0 10 -2 10 -4z m-440 -26 c0 -5 -7 -7 -15 -4 -8 4 -12 10 -9 15 6 11
24 2 24 -11z m333 4 c-3 -9 0 -20 8 -25 10 -6 6 -9 -13 -9 -32 0 -34 6 -11 32
20 22 24 23 16 2z m-564 -27 c-2 -18 0 -38 5 -45 4 -7 2 -19 -5 -28 -6 -8 -9
-17 -6 -20 3 -3 10 3 16 14 7 14 17 18 31 15 11 -3 20 -7 20 -9 0 -11 -25 -54
-31 -54 -5 0 -6 -7 -2 -16 4 -11 1 -15 -13 -13 -10 2 -31 -5 -45 -14 -28 -19
-61 -14 -53 8 5 13 28 15 40 2 9 -8 24 1 24 14 0 6 -5 7 -12 3 -8 -5 -9 -2 -5
9 3 9 2 19 -3 22 -6 4 -10 1 -10 -6 0 -7 -3 -9 -7 -5 -5 4 0 13 10 21 15 11
15 14 2 25 -8 7 -15 9 -15 4 0 -5 -4 -2 -10 6 -5 8 -12 11 -16 7 -4 -4 -2 -13
4 -19 7 -7 12 -16 12 -21 0 -16 -37 37 -44 63 -6 21 -5 22 4 7 6 -9 16 -15 21
-11 6 3 5 12 -3 22 -8 10 -9 13 -1 9 6 -4 15 -2 19 4 5 8 9 8 14 -1 5 -8 10
-3 14 14 4 17 13 26 27 26 17 0 20 -5 18 -33z m517 11 c0 -12 -9 -18 -26 -19
-20 -1 -18 -3 10 -9 31 -7 29 -7 -20 -8 -39 0 -49 2 -35 8 16 7 17 9 3 9 -18
1 -32 17 -24 29 2 4 24 7 48 7 35 0 44 -3 44 -17z m124 18 c0 -2 -11 -6 -25
-8 -14 -3 -25 -1 -25 3 0 5 11 9 25 9 14 0 25 -2 25 -4z m-330 -16 c0 -5 -9
-10 -20 -10 -11 0 -20 5 -20 10 0 6 9 10 20 10 11 0 20 -4 20 -10z m-93 -23
c-17 -44 -39 -139 -33 -144 3 -3 6 1 6 10 0 12 6 11 25 -9 46 -46 22 -68 -27
-26 -16 13 -18 13 -18 -1 0 -10 -8 -15 -20 -14 -11 1 -20 2 -20 3 0 14 15 34
26 34 8 0 14 7 14 16 0 8 -4 12 -10 9 -5 -3 -10 0 -10 7 0 10 -3 9 -11 -2 -8
-13 -10 -12 -7 3 2 10 5 17 8 15 11 -6 52 41 48 54 -7 18 9 58 23 58 6 0 9 -6
6 -13z m93 -1 c0 -3 -4 -16 -10 -31 -7 -17 -7 -24 0 -20 6 4 10 -10 10 -34 0
-23 -5 -41 -11 -41 -5 0 -7 -5 -4 -11 4 -6 -3 -5 -15 3 -19 12 -21 19 -16 67
4 29 9 58 12 62 5 9 34 13 34 5z m-429 -61 c5 4 9 -7 9 -23 0 -23 -4 -28 -21
-27 -20 1 -39 20 -39 40 0 6 4 4 9 -3 6 -10 10 -6 16 15 6 21 9 23 12 10 3 -9
9 -15 14 -12z m983 -118 c-12 -63 -35 -135 -47 -146 -7 -5 -18 -6 -26 -2 -26
16 45 200 71 184 4 -2 5 -18 2 -36z m-1031 -27 c-3 -11 -9 -17 -14 -14 -14 8
-10 34 5 34 9 0 12 -7 9 -20z m-198 -11 c-5 -26 -34 -49 -52 -42 -7 3 -19 1
-26 -5 -16 -13 -46 -11 -44 2 1 6 -6 10 -17 8 -11 -2 -15 1 -11 7 4 7 -4 11
-19 11 -30 0 -35 15 -9 24 11 5 22 1 30 -10 15 -21 60 -22 76 -1 11 14 33 23
64 26 7 1 10 -8 8 -20z m519 -13 c-7 -31 -27 -30 -32 1 -2 14 3 23 15 25 24 6
25 4 17 -26z m91 -4 c-3 -8 0 -19 6 -23 8 -4 9 -14 4 -25 -8 -17 -9 -17 -12 4
-4 21 -14 28 -25 16 -4 -3 -2 -19 2 -35 7 -23 5 -29 -7 -29 -11 0 -14 7 -11
25 5 22 2 25 -24 25 -16 0 -27 4 -23 9 9 16 67 41 78 34 6 -4 8 0 4 11 -4 11
-3 15 4 11 6 -4 8 -14 4 -23z m-849 -11 c-14 -9 -24 -21 -21 -28 3 -8 -5 -13
-20 -13 -16 0 -25 6 -25 15 0 8 7 15 15 15 8 0 15 6 15 14 0 17 18 25 44 18
16 -4 15 -7 -8 -21z m1514 -13 c13 5 13 3 0 -14 -8 -10 -21 -24 -28 -29 -7 -6
-12 -17 -10 -24 4 -18 -18 -25 -25 -8 -3 7 0 32 6 55 10 36 13 40 26 28 9 -7
23 -11 31 -8z m-982 -15 c2 -8 -5 -13 -15 -13 -11 0 -24 -5 -30 -11 -9 -9 -11
-8 -10 2 6 37 44 52 55 22z m-298 -14 c0 -5 -9 -9 -20 -9 -19 0 -26 11 -14 23
8 8 34 -3 34 -14z m500 -15 c-12 -54 -34 -70 -27 -20 5 31 19 54 33 56 1 0 -2
-16 -6 -36z m833 10 c1 -4 -6 -8 -15 -10 -21 -3 -23 7 -6 24 12 12 15 9 21
-14z m-1213 6 c0 -5 -5 -10 -11 -10 -5 0 -7 5 -4 10 3 6 8 10 11 10 2 0 4 -4
4 -10z m786 -16 c-4 -9 -9 -15 -11 -12 -3 3 -3 13 1 22 4 9 9 15 11 12 3 -3 3
-13 -1 -22z m-1016 6 c0 -5 -7 -10 -16 -10 -8 0 -12 5 -9 10 3 6 10 10 16 10
5 0 9 -4 9 -10z m325 -83 c0 -25 3 -48 7 -52 7 -8 -18 -65 -29 -65 -3 0 -3 18
1 41 4 22 3 38 -2 35 -12 -7 -11 26 1 42 6 8 5 12 -4 12 -24 0 -36 14 -44 48
l-7 34 39 -25 c35 -22 38 -28 38 -70z m306 71 c-5 -13 -6 -38 -4 -55 3 -21 1
-33 -6 -33 -6 0 -11 13 -11 29 0 30 15 81 25 81 2 0 1 -10 -4 -22z m34 -3 c0
-14 -3 -25 -7 -25 -10 0 -10 34 -1 43 3 4 7 7 7 7 1 0 1 -11 1 -25z m723 -3
c10 7 14 9 10 4 -4 -5 -3 -16 2 -26 7 -13 4 -22 -13 -36 l-22 -19 20 24 20 24
-25 -8 c-14 -3 -33 -16 -43 -27 -10 -12 -20 -19 -22 -16 -3 2 8 17 24 32 16
16 28 33 27 40 -2 6 -1 7 2 3 2 -4 11 -2 20 5z m-1421 -8 c-3 -3 -12 -4 -19
-1 -8 3 -5 6 6 6 11 1 17 -2 13 -5z m-251 -139 c9 -66 14 -69 15 -9 l1 49 13
-50 c7 -27 13 -44 14 -37 0 6 5 12 10 12 5 0 8 -12 5 -26 -3 -14 1 -33 8 -41
7 -9 18 -28 25 -42 l12 -26 -5 26 c-10 46 20 43 41 -4 23 -52 105 -164 174
-237 28 -30 51 -58 51 -63 0 -4 4 -6 8 -3 5 3 9 -1 9 -9 0 -12 -6 -12 -36 1
-19 8 -44 22 -55 32 -34 29 -86 87 -86 95 0 5 -4 5 -10 2 -5 -3 -10 2 -10 12
0 11 -6 25 -12 32 -10 11 -10 12 -1 7 9 -5 11 -2 7 8 -3 9 -11 16 -16 16 -6 0
-7 7 -4 16 4 11 2 15 -8 11 -8 -3 -17 1 -20 9 -4 10 -1 13 7 9 6 -4 3 1 -8 10
-18 14 -20 14 -23 0 -5 -23 77 -141 148 -214 58 -58 61 -63 34 -57 -16 4 -34
7 -41 8 -7 1 -14 7 -17 14 -3 9 1 11 12 7 27 -10 10 3 -28 21 -23 11 -29 12
-17 3 21 -17 22 -27 2 -27 -9 0 -18 6 -21 14 -3 8 -11 13 -17 10 -7 -2 -32 15
-57 37 -109 100 -120 106 -55 30 11 -13 14 -21 7 -16 -12 6 -12 3 -1 -16 6
-13 18 -30 26 -37 7 -8 11 -17 8 -22 -3 -5 0 -10 7 -12 6 -2 8 -9 4 -16 -18
-30 -94 63 -104 128 -2 13 -9 28 -15 32 -7 4 -9 8 -5 8 3 0 0 24 -8 53 -18 69
-17 70 12 15 13 -27 30 -48 37 -48 8 0 9 3 1 8 -25 16 -73 169 -78 248 -3 51
-2 69 3 49 l9 -30 2 33 c1 17 3 35 4 40 1 4 6 23 11 42 l9 35 7 -45 c4 -25 11
-67 15 -95z m379 125 c4 -6 -9 -10 -32 -9 -30 0 -34 2 -18 9 27 12 43 12 50 0z
m-270 -30 c-3 -5 -12 -10 -18 -10 -7 0 -6 4 3 10 19 12 23 12 15 0z m85 -4 c0
-2 -8 -10 -17 -17 -16 -13 -17 -12 -4 4 13 16 21 21 21 13z m125 -14 c-3 -3
-11 0 -18 7 -9 10 -8 11 6 5 10 -3 15 -9 12 -12z m70 8 c-3 -5 -12 -10 -18
-10 -7 0 -6 4 3 10 19 12 23 12 15 0z m62 -2 c2 6 9 12 15 12 6 0 3 -9 -7 -20
-10 -11 -22 -17 -28 -13 -6 4 -7 1 -3 -6 5 -7 15 -10 24 -6 8 3 19 1 22 -5 5
-8 9 -6 13 5 5 10 3 14 -5 9 -7 -4 -8 -3 -4 4 9 15 36 4 36 -14 0 -8 5 -14 11
-14 6 0 9 7 5 15 -4 13 -2 14 14 5 16 -8 20 -21 20 -59 0 -44 -5 -56 -56 -120
-30 -39 -59 -71 -64 -71 -12 0 -115 -100 -104 -101 5 -1 19 -3 30 -4 12 -1 26
-5 32 -9 6 -3 15 2 21 11 6 10 11 15 11 10 0 -4 10 -1 23 8 13 8 27 12 31 8 4
-4 9 3 13 15 3 12 9 22 14 22 15 0 10 -15 -16 -54 -31 -45 -32 -55 -3 -30 12
10 18 13 14 7 -9 -16 10 -17 20 -1 5 7 11 5 21 -7 7 -11 13 -13 13 -6 0 7 4
10 9 7 5 -3 14 1 21 9 10 12 16 13 26 4 8 -6 12 -15 9 -19 -3 -5 20 -7 50 -6
31 1 58 -1 61 -6 3 -5 10 -6 15 -2 5 3 9 2 8 -3 -5 -32 3 -43 31 -43 17 0 30
3 30 8 0 4 17 7 38 7 20 1 45 5 55 9 13 6 16 5 11 -7 -3 -9 -1 -25 6 -36 9
-18 14 -19 32 -10 18 10 24 8 38 -11 15 -20 23 -22 67 -17 53 6 80 -3 68 -23
-5 -9 -4 -11 3 -6 7 4 12 1 12 -8 0 -8 3 -21 6 -30 5 -13 -4 -12 -63 5 -37 11
-121 29 -186 40 -122 20 -167 20 -301 -6 -39 -7 -75 -12 -80 -10 -90 19 -132
44 -198 115 -32 34 -58 64 -58 67 0 2 -6 11 -12 18 -39 43 -78 101 -78 115 0
7 -9 24 -20 40 -11 15 -17 30 -13 34 3 3 1 6 -6 6 -7 0 -10 4 -6 9 3 5 1 12
-4 15 -5 4 -8 17 -6 31 2 22 -1 25 -19 20 -19 -6 -20 -5 -4 8 16 13 16 15 0
32 -15 17 -15 18 0 6 14 -10 18 -9 27 7 9 17 16 19 48 11 50 -11 103 -11 103
0 0 5 13 9 30 9 16 -1 27 -5 24 -10 -3 -4 0 -8 5 -8 6 0 11 5 11 11 0 7 7 8
18 4 9 -4 23 -9 30 -12 6 -3 12 0 12 7 0 6 -4 8 -10 5 -5 -3 -10 -1 -10 5 0 7
7 10 15 6 10 -3 15 1 15 12 0 15 2 15 11 2 8 -11 12 -12 16 -2z m433 2 c0 -5
-5 -10 -11 -10 -5 0 -7 5 -4 10 3 6 8 10 11 10 2 0 4 -4 4 -10z m840 -10 c0
-4 -7 -10 -15 -14 -8 -3 -15 -13 -15 -22 0 -12 -6 -15 -23 -10 -18 4 -23 1
-24 -17 -1 -12 3 -25 10 -29 8 -5 6 -8 -5 -8 -14 0 -18 8 -18 36 0 33 2 36 24
32 20 -4 25 0 30 23 4 20 10 27 21 23 8 -3 15 -10 15 -14z m-1465 -10 c3 -5 1
-10 -4 -10 -6 0 -11 5 -11 10 0 6 2 10 4 10 3 0 8 -4 11 -10z m624 -27 l-1
-28 -8 25 c-6 19 -8 21 -9 6 -1 -11 -4 -17 -7 -13 -9 9 3 37 16 37 5 0 10 -12
9 -27z m61 -4 c18 -1 20 -3 7 -6 -11 -3 -16 -11 -13 -19 6 -15 -3 -18 -28 -8
-9 3 -16 18 -16 32 0 20 3 23 12 14 7 -7 23 -13 38 -13z m-898 -18 c2 -17 1
-28 -4 -25 -8 5 -12 54 -4 54 2 0 6 -13 8 -29z m1031 -8 c10 -2 16 -7 13 -10
-3 -4 -1 -12 5 -20 9 -10 8 -13 -2 -12 -28 1 -143 27 -125 28 12 1 16 6 12 17
-5 13 0 15 36 9 24 -3 51 -9 61 -12z m427 -5 c0 -9 4 -8 10 2 5 8 10 10 10 5
0 -6 -5 -16 -12 -23 -14 -14 -62 -16 -53 -2 3 6 0 10 -7 10 -9 0 -9 3 2 10 21
14 50 12 50 -2z m-244 -13 c34 0 40 -3 36 -18 -4 -16 -15 -17 -85 -15 -76 3
-80 4 -82 26 -2 22 0 22 44 15 25 -4 64 -8 87 -8z m158 -17 c-9 -14 -81 -9
-94 6 -10 13 -4 15 37 18 46 3 68 -6 57 -24z m186 22 c0 -5 -4 -10 -10 -10 -5
0 -10 5 -10 10 0 6 5 10 10 10 6 0 10 -4 10 -10z m-856 -45 c-7 -19 -14 -46
-14 -60 0 -23 -4 -25 -45 -25 -25 0 -45 3 -45 6 0 3 12 30 27 60 24 49 29 54
59 54 l33 0 -15 -35z m306 -5 c27 14 45 8 61 -22 l12 -23 -26 23 c-21 20 -28
22 -47 12 -18 -9 -25 -8 -41 6 -10 9 -19 22 -19 28 1 6 9 1 20 -12 16 -20 22
-21 40 -12z m-183 -36 c-3 -3 -12 -4 -19 -1 -8 3 -5 6 6 6 11 1 17 -2 13 -5z
m-286 -52 c-4 -54 -11 -53 -11 3 0 27 3 45 7 41 4 -4 6 -24 4 -44z m246 42
c-3 -3 -12 -4 -19 -1 -8 3 -5 6 6 6 11 1 17 -2 13 -5z m-267 -38 c0 -30 -2
-33 -25 -29 l-24 5 21 29 c12 16 23 29 25 29 2 0 3 -15 3 -34z m65 -15 c0 -43
-4 -52 -26 -65 -22 -13 -26 -13 -26 -1 0 9 7 14 16 13 11 -2 16 6 17 27 3 64
4 75 12 75 4 0 7 -22 7 -49z m192 -21 c-2 -58 -3 -61 -24 -55 -12 3 -50 8 -84
12 -52 5 -62 9 -70 30 -5 13 -9 25 -9 26 0 1 27 0 60 -1 59 -4 97 9 84 29 -8
14 3 10 20 -7 15 -14 16 -14 16 5 0 12 2 21 4 21 3 0 4 -27 3 -60z m46 -24 c4
-25 3 -36 -3 -30 -6 6 -12 32 -15 59 -6 58 8 34 18 -29z m227 29 c0 5 6 0 14
-10 9 -12 19 -16 32 -11 10 4 15 4 12 0 -10 -10 11 -46 22 -39 6 3 7 -1 4 -10
-5 -12 -12 -10 -39 14 -18 16 -37 30 -42 32 -4 2 -19 18 -33 34 l-25 30 28
-24 c15 -14 27 -21 27 -16z m-377 18 c-13 -2 -33 -2 -45 0 -13 2 -3 4 22 4 25
0 35 -2 23 -4z m114 -55 c-3 -8 -6 -5 -6 6 -1 11 2 17 5 13 3 -3 4 -12 1 -19z
m-282 -49 c-4 -5 -12 -9 -18 -8 -9 0 -8 2 1 6 6 2 9 10 6 15 -4 7 -2 8 5 4 6
-4 9 -12 6 -17z m681 7 c21 -16 22 -14 -31 -31 -18 -5 -19 6 -2 24 10 11 9 12
-2 6 -9 -5 -12 -4 -7 3 9 16 18 15 42 -2z m-766 -2 c0 -3 -7 -12 -15 -20 -12
-12 -15 -12 -15 -2 -1 8 -6 6 -15 -6 -12 -16 -15 -16 -15 -4 0 8 10 20 23 26
26 12 37 14 37 6z m892 -91 c-6 -2 -10 -9 -7 -13 3 -5 1 -11 -4 -14 -5 -3 -11
3 -14 14 -4 16 0 20 16 19 12 0 16 -3 9 -6z m-1249 -70 c17 -16 27 -21 23 -13
-7 13 -6 13 6 0 29 -33 113 -90 125 -86 7 3 13 -1 13 -10 0 -8 4 -13 9 -9 5 3
12 1 16 -5 4 -6 11 -8 16 -5 13 9 11 -9 -3 -25 -7 -8 -3 -6 9 4 18 15 28 17
50 8 16 -6 64 -16 108 -23 76 -12 148 -37 115 -40 -8 -1 -18 -1 -22 0 -5 0 -8
-6 -8 -14 0 -13 -12 -15 -62 -14 -35 1 -69 7 -77 13 -10 7 -13 7 -8 0 3 -6 0
-11 -8 -11 -8 0 -12 4 -10 8 6 8 -20 19 -43 18 -14 0 -13 -2 3 -10 15 -7 11
-8 -16 -4 -20 3 -49 1 -63 -5 -18 -6 -25 -6 -21 0 3 6 -1 10 -9 10 -8 0 -18
-5 -21 -10 -4 -6 -12 -7 -18 -3 -7 4 -6 0 2 -10 7 -9 17 -14 22 -11 5 3 25 0
45 -6 25 -9 33 -15 25 -23 -13 -13 -79 6 -141 41 -64 36 -73 44 -60 52 6 3 -4
16 -22 30 -18 13 -28 17 -21 9 8 -10 9 -19 2 -29 -9 -13 -10 -13 -6 0 2 8 -5
26 -17 39 -11 13 -15 21 -8 17 8 -5 16 1 21 16 9 22 10 22 10 2 1 -19 29 -40
56 -42 5 0 13 -10 17 -22 4 -12 13 -18 19 -15 7 5 3 15 -12 31 -12 13 -25 21
-29 19 -4 -3 -16 5 -26 18 -18 20 -18 21 -1 7 18 -13 57 -24 57 -16 0 3 -8 12
-17 22 -10 10 -18 30 -19 46 -1 16 -12 40 -25 54 -31 33 -12 31 24 -3z m144
-79 c-3 -3 -12 -4 -19 -1 -8 3 -5 6 6 6 11 1 17 -2 13 -5z m-207 -14 c0 -5 -2
-10 -4 -10 -3 0 -8 5 -11 10 -3 6 -1 10 4 10 6 0 11 -4 11 -10z m397 -36 c-3
-3 -12 -4 -19 -1 -8 3 -5 6 6 6 11 1 17 -2 13 -5z m968 -13 c-18 -16 -105 -41
-143 -40 l-37 1 30 10 c89 30 166 45 150 29z m-1234 -128 c13 -16 12 -17 -3
-4 -17 13 -22 21 -14 21 2 0 10 -8 17 -17z m259 -25 c10 -6 3 -8 -25 -4 -60 8
-74 11 -82 20 -11 11 88 -3 107 -16z"/>
<path d="M1360 2021 c-13 -26 -13 -43 3 -65 13 -17 14 -18 20 -2 4 11 3 15 -4
10 -8 -5 -9 6 -4 35 7 44 2 53 -15 22z"/>
<path d="M1375 1910 c3 -5 8 -10 11 -10 2 0 4 5 4 10 0 6 -5 10 -11 10 -5 0
-7 -4 -4 -10z"/>
<path d="M894 1888 c-4 -6 -3 -8 4 -4 5 3 13 0 15 -6 3 -8 6 -6 6 5 1 19 -14
23 -25 5z"/>
<path d="M2023 1802 c-8 -5 -10 -17 -5 -37 8 -28 32 -48 32 -25 0 6 5 8 12 4
7 -5 8 -3 3 6 -4 7 -2 15 4 20 9 5 8 11 -4 24 -18 18 -25 19 -42 8z"/>
<path d="M1980 1749 c7 -11 14 -19 16 -16 7 7 -7 37 -17 37 -6 0 -5 -9 1 -21z"/>
<path d="M1105 1760 c-3 -5 1 -10 10 -10 9 0 13 5 10 10 -3 6 -8 10 -10 10 -2
0 -7 -4 -10 -10z"/>
<path d="M1166 1744 c-6 -15 -4 -15 11 -3 10 7 20 15 22 16 2 2 -3 3 -11 3 -9
0 -19 -7 -22 -16z"/>
<path d="M1105 1530 c-2 -3 5 -6 15 -7 11 -1 22 2 25 7 3 5 -4 8 -16 7 -11 -1
-22 -4 -24 -7z"/>
<path d="M960 1521 c0 -24 59 -37 67 -15 6 18 -27 26 -33 9 -4 -8 -10 -12 -15
-9 -5 3 -7 10 -4 15 4 5 1 9 -4 9 -6 0 -11 -4 -11 -9z"/>
<path d="M1045 1521 c-6 -11 9 -23 19 -14 9 9 7 23 -3 23 -6 0 -12 -4 -16 -9z"/>
<path d="M1681 1693 c0 -10 3 -13 5 -6 3 7 12 9 21 6 11 -4 14 -2 9 5 -11 18
-36 14 -35 -5z"/>
<path d="M1527 1675 c-4 -8 -3 -16 1 -19 4 -3 9 4 9 15 2 23 -3 25 -10 4z"/>
<path d="M1482 1574 c10 -10 20 -16 22 -13 3 3 -5 11 -17 18 -21 13 -21 12 -5
-5z"/>
<path d="M1026 964 c-4 -9 -4 -19 -1 -22 2 -3 7 3 11 12 4 9 4 19 1 22 -2 3
-7 -3 -11 -12z"/>
<path d="M680 1180 c0 -5 5 -10 10 -10 6 0 10 5 10 10 0 6 -4 10 -10 10 -5 0
-10 -4 -10 -10z"/>
<path d="M780 1086 c0 -2 7 -7 16 -10 8 -3 12 -2 9 4 -6 10 -25 14 -25 6z"/>
<path d="M1763 1360 c2 -27 3 -28 15 -13 16 23 15 43 -3 43 -10 0 -14 -9 -12
-30z"/>
<path d="M1368 1163 c7 -3 16 -2 19 1 4 3 -2 6 -13 5 -11 0 -14 -3 -6 -6z"/>
<path d="M1310 1110 c0 -5 5 -10 11 -10 5 0 7 5 4 10 -3 6 -8 10 -11 10 -2 0
-4 -4 -4 -10z"/>
<path d="M1450 1101 c0 -11 5 -23 10 -26 6 -3 10 1 10 9 0 9 0 19 1 23 0 4 -4
9 -10 11 -6 2 -11 -5 -11 -17z"/>
<path d="M1623 1057 c0 -15 -9 -37 -18 -47 -18 -20 -8 -29 11 -11 5 5 16 11
24 13 14 3 14 7 -1 38 -16 34 -16 34 -16 7z"/>
<path d="M1564 1059 c-3 -6 0 -17 8 -25 13 -13 16 -13 27 0 7 8 10 20 6 26 -8
13 -32 13 -41 -1z"/>
<path d="M1677 1039 c7 -7 15 -10 18 -7 3 3 -2 9 -12 12 -14 6 -15 5 -6 -5z"/>
<path d="M1697 1004 c-8 -8 1 -24 14 -24 5 0 9 7 9 15 0 15 -12 20 -23 9z"/>
<path d="M1750 954 c-11 -12 -11 -18 2 -30 13 -13 17 -12 33 6 16 18 17 23 5
30 -20 13 -26 12 -40 -6z"/>
<path d="M977 1333 c-4 -3 -7 -11 -7 -17 0 -6 5 -5 12 2 6 6 9 14 7 17 -3 3
-9 2 -12 -2z"/>
<path d="M1830 1135 c0 -8 5 -15 10 -15 6 0 10 7 10 15 0 8 -4 15 -10 15 -5 0
-10 -7 -10 -15z"/>
<path d="M1810 1069 c0 -11 5 -17 10 -14 6 3 10 13 10 21 0 8 -4 14 -10 14 -5
0 -10 -9 -10 -21z"/>
<path d="M1210 1080 c-8 -5 -12 -12 -9 -15 4 -3 12 1 19 10 14 17 11 19 -10 5z"/>
<path d="M424 885 c-3 -7 -1 -22 5 -33 6 -11 7 -22 4 -26 -3 -3 3 -6 15 -6 28
0 28 17 0 43 -17 14 -18 18 -6 14 10 -3 20 -2 23 2 2 5 -4 11 -16 14 -12 3
-22 0 -25 -8z"/>
<path d="M556 865 c4 -8 8 -15 10 -15 2 0 4 7 4 15 0 8 -4 15 -10 15 -5 0 -7
-7 -4 -15z"/>
<path d="M580 554 c0 -1 6 -7 14 -13 10 -9 15 -8 19 2 3 8 -3 13 -14 13 -11 0
-19 -1 -19 -2z"/>
<path d="M793 514 c-7 -18 11 -39 26 -30 17 11 13 46 -4 46 -9 0 -18 -7 -22
-16z"/>
<path d="M880 509 c0 -5 8 -9 18 -9 10 0 23 -5 29 -11 13 -13 33 -4 33 16 0 9
-12 14 -40 13 -22 0 -40 -4 -40 -9z"/>
<path d="M860 481 c0 -5 6 -14 14 -20 16 -13 32 2 21 19 -8 12 -35 13 -35 1z"/>
<path d="M364 401 c11 -11 16 -21 13 -21 -3 0 -1 -14 5 -31 8 -22 13 -27 19
-18 5 8 3 20 -5 29 -7 8 -11 20 -9 27 2 6 -6 17 -19 24 -23 12 -23 12 -4 -10z"/>
<path d="M410 371 c0 -6 4 -13 10 -16 6 -3 7 1 4 9 -7 18 -14 21 -14 7z"/>
<path d="M500 310 c8 -5 20 -10 25 -10 6 0 3 5 -5 10 -8 5 -19 10 -25 10 -5 0
-3 -5 5 -10z"/>
<path d="M569 293 c-7 -10 -9 -15 -5 -11 5 4 15 3 23 -3 7 -7 32 -12 56 -12
23 -1 45 -6 49 -12 5 -6 12 -5 20 4 10 10 10 12 1 7 -7 -4 -13 -3 -13 2 0 5
-21 12 -46 16 -26 3 -52 11 -59 16 -9 7 -16 5 -26 -7z"/>
<path d="M470 296 c0 -2 7 -7 16 -10 8 -3 12 -2 9 4 -6 10 -25 14 -25 6z"/>
<path d="M735 250 c3 -5 8 -10 11 -10 2 0 4 5 4 10 0 6 -5 10 -11 10 -5 0 -7
-4 -4 -10z"/>
<path d="M507 2312 c-23 -25 -21 -59 3 -72 11 -6 20 -17 20 -26 0 -8 6 -17 13
-20 8 -3 12 -16 10 -32 -2 -19 6 -37 28 -62 l31 -35 -26 37 c-27 38 -36 85
-13 72 8 -5 8 -2 -2 9 -7 9 -10 17 -5 17 5 0 -2 9 -16 20 -14 11 -19 20 -12
20 7 0 10 4 7 10 -4 7 2 7 18 1 41 -16 40 1 0 19 -40 18 -62 8 -41 -17 8 -10
7 -12 -6 -7 -20 8 -20 28 0 59 19 29 14 33 -9 7z"/>
<path d="M2040 2261 c0 -7 -6 -11 -13 -8 -23 9 -43 -9 -29 -26 7 -7 9 -17 5
-20 -3 -4 -2 -7 4 -7 6 0 13 7 17 15 9 23 35 18 46 -10 8 -20 13 -23 32 -16
33 12 28 38 -9 62 -24 15 -33 17 -33 7 0 -10 -3 -9 -10 2 -7 12 -10 12 -10 1z"/>
<path d="M745 2240 c3 -5 8 -10 11 -10 2 0 4 5 4 10 0 6 -5 10 -11 10 -5 0 -7
-4 -4 -10z"/>
<path d="M2148 2232 c-8 -37 13 -64 42 -55 11 4 11 1 -2 -10 -10 -8 -18 -19
-18 -26 0 -6 -5 -11 -11 -11 -5 0 -7 -5 -4 -11 4 -6 14 -8 23 -4 8 3 20 0 25
-7 6 -9 7 -8 3 5 -3 9 -1 17 5 17 6 0 8 4 4 9 -3 5 -1 12 5 16 16 10 12 40 -9
59 -20 18 -60 29 -63 18z"/>
<path d="M1969 2216 c-2 -2 -21 -6 -43 -9 -21 -3 -46 -13 -55 -23 -15 -17 -15
-17 1 -5 9 7 30 11 45 10 29 -3 72 15 62 25 -3 3 -8 4 -10 2z"/>
<path d="M1660 2096 c0 -2 7 -9 15 -16 9 -7 15 -8 15 -2 0 5 -7 12 -15 16 -8
3 -15 4 -15 2z"/>
<path d="M2257 2043 c-3 -5 6 -9 20 -10 19 -1 22 1 12 8 -17 11 -26 11 -32 2z"/>
<path d="M1714 2007 c3 -10 6 -25 6 -33 0 -8 5 -14 10 -14 15 0 12 24 -6 46
-14 17 -15 17 -10 1z"/>
<path d="M1662 1935 c-13 -7 -19 -15 -14 -19 5 -3 17 3 27 14 21 23 19 23 -13
5z"/>
<path d="M1634 1886 c11 -9 24 -16 30 -16 12 0 7 5 -24 19 -24 11 -24 11 -6
-3z"/>
<path d="M1594 1869 c-3 -5 -9 -7 -14 -4 -5 3 -11 1 -14 -4 -7 -11 23 -25 48
-22 14 2 17 -2 13 -16 -5 -13 -3 -12 9 4 15 21 18 22 45 7 16 -8 29 -12 29
-10 0 10 -57 35 -64 29 -3 -4 -6 -2 -6 4 0 14 -38 24 -46 12z"/>
<path d="M1720 1816 c0 -2 7 -7 16 -10 8 -3 12 -2 9 4 -6 10 -25 14 -25 6z"/>
<path d="M386 1715 c4 -8 10 -12 15 -9 11 6 2 24 -11 24 -5 0 -7 -7 -4 -15z"/>
<path d="M1925 820 c-3 -5 -1 -10 4 -10 6 0 11 5 11 10 0 6 -2 10 -4 10 -3 0
-8 -4 -11 -10z"/>
<path d="M1907 771 c-4 -17 -3 -21 5 -13 5 5 8 16 6 23 -3 8 -7 3 -11 -10z"/>
<path d="M1946 715 c4 -8 8 -15 10 -15 2 0 4 7 4 15 0 8 -4 15 -10 15 -5 0 -7
-7 -4 -15z"/>
<path d="M1760 689 c0 -37 21 -35 31 4 6 22 4 27 -12 27 -15 0 -19 -7 -19 -31z"/>
<path d="M1510 692 c0 -15 11 -21 27 -15 12 5 12 7 1 14 -17 11 -28 11 -28 1z"/>
<path d="M1490 626 c0 -2 7 -7 16 -10 8 -3 12 -2 9 4 -6 10 -25 14 -25 6z"/>
<path d="M1901 566 c-12 -15 -5 -46 11 -46 5 0 12 9 15 20 3 11 10 20 15 20 5
0 6 5 3 10 -9 14 -31 12 -44 -4z"/>
</g>
</svg>
