<?xml version="1.0" standalone="no"?>
<!DOCTYPE svg PUBLIC "-//W3C//DTD SVG 20010904//EN"
 "http://www.w3.org/TR/2001/REC-SVG-20010904/DTD/svg10.dtd">
<svg version="1.0" xmlns="http://www.w3.org/2000/svg"
 width="275.000000pt" height="369.000000pt" viewBox="0 0 275.000000 369.000000"
 preserveAspectRatio="xMidYMid meet">

<g transform="translate(0.000000,369.000000) scale(0.100000,-0.100000)"
fill="#000000" stroke="none">
<path d="M450 3436 c-39 -38 -75 -71 -80 -71 -3 0 -20 -11 -37 -25 -29 -21
-33 -29 -31 -69 l1 -46 7 50 c5 38 8 43 10 20 l2 -30 8 30 c5 21 8 24 10 10 1
-15 3 -16 7 -5 11 28 29 40 42 27 8 -8 14 -8 24 2 10 11 9 12 -3 6 -13 -8 -13
-6 -1 8 7 9 18 14 24 10 7 -4 8 0 3 13 -5 14 -4 16 5 7 13 -13 3 -37 -12 -28
-5 3 -6 -1 -3 -9 5 -13 8 -13 19 -3 7 8 15 22 18 33 2 10 5 1 6 -20 0 -22 -2
-36 -6 -33 -3 4 -18 -6 -32 -21 -14 -15 -45 -43 -68 -61 -46 -35 -55 -60 -23
-68 11 -3 17 -9 14 -14 -3 -5 0 -9 5 -9 6 0 11 -6 11 -14 0 -8 4 -18 10 -21 6
-4 7 1 3 11 -5 14 -3 15 13 6 15 -9 21 -7 32 11 12 20 13 20 8 2 -6 -19 -6
-19 9 -1 13 18 17 16 72 -37 l57 -55 -18 -59 c-15 -49 -30 -70 -97 -136 -43
-43 -79 -82 -79 -87 0 -5 -16 -26 -36 -45 -27 -28 -34 -41 -29 -58 3 -12 6
-56 5 -98 -1 -56 2 -76 12 -76 7 0 22 -4 33 -8 14 -6 12 -1 -7 14 -17 13 -28
32 -28 46 0 23 1 24 35 9 19 -7 47 -14 62 -13 21 1 17 3 -16 10 -49 9 -67 21
-74 49 -4 16 -2 17 20 9 33 -12 53 -11 28 3 -39 21 -67 57 -60 78 9 27 15 25
50 -18 18 -22 22 -31 10 -22 -19 14 -19 14 -6 -3 8 -10 20 -16 28 -13 8 3 12
2 9 -3 -8 -13 32 -21 67 -14 21 4 28 3 23 -5 -4 -7 -14 -12 -22 -12 -8 0 -14
-7 -14 -15 0 -19 4 -19 40 0 32 16 42 3 13 -14 -10 -6 -13 -11 -6 -11 6 0 15
4 18 10 3 5 14 14 25 20 15 8 17 7 13 -11 -3 -11 -8 -18 -11 -15 -5 6 -62 -21
-62 -29 0 -9 59 2 73 13 21 17 26 5 14 -33 -6 -22 -15 -31 -23 -28 -15 5 -64
-22 -64 -35 0 -7 55 -9 73 -2 4 1 11 3 16 4 5 0 13 5 18 10 5 6 2 6 -7 1 -10
-6 -8 -1 4 13 18 20 43 21 31 1 -3 -5 1 -6 9 -3 22 8 24 34 7 82 -13 35 -13
46 -3 63 7 11 10 24 7 29 -3 5 0 12 6 16 8 4 9 3 5 -4 -4 -7 -1 -12 8 -12 10
0 16 -9 16 -24 0 -13 7 -29 15 -36 9 -8 13 -21 9 -32 -3 -10 0 -25 6 -33 9
-11 9 -19 2 -28 -6 -7 -9 -27 -7 -45 2 -18 0 -32 -5 -32 -6 0 -10 -7 -10 -15
0 -9 -9 -15 -25 -15 -19 0 -25 5 -23 18 2 9 -2 16 -8 15 -7 -1 -11 3 -10 10 0
7 -3 13 -9 14 -5 1 -9 -8 -8 -20 1 -16 -10 -30 -35 -46 -21 -14 -39 -23 -41
-22 -2 2 -7 -1 -10 -6 -10 -13 -45 -39 -39 -28 4 7 -9 10 -34 10 -22 0 -42 3
-44 7 -3 5 1 8 8 9 7 0 -2 7 -19 15 -38 16 -43 25 -10 16 19 -5 20 -3 10 10
-9 10 -9 18 -2 25 8 8 7 11 -2 10 -40 -1 -51 3 -44 21 4 12 3 14 -5 6 -28 -28
50 -141 87 -127 11 4 14 2 9 -5 -19 -31 123 2 275 63 13 5 18 25 21 83 6 85
-12 167 -43 201 -23 24 -24 31 -4 31 17 0 55 -56 55 -82 0 -10 4 -18 9 -18 4
0 6 -12 3 -26 -6 -34 16 -49 40 -27 25 22 22 33 -8 33 -25 0 -26 1 -11 24 18
26 13 36 -16 36 -16 0 -18 5 -12 27 3 15 11 31 17 34 5 4 3 9 -6 12 -9 4 -16
11 -16 17 0 5 9 2 20 -7 13 -11 18 -24 14 -39 -4 -14 0 -23 12 -28 14 -5 15
-4 4 9 -9 11 -10 18 -1 29 9 11 5 19 -19 39 -41 35 -38 46 4 14 18 -15 35 -25
37 -24 2 1 3 0 2 -2 -1 -2 4 -13 12 -25 22 -30 18 -43 -4 -17 -14 16 -21 19
-27 10 -4 -7 0 -17 9 -23 11 -9 13 -16 5 -30 -13 -24 -3 -46 23 -46 20 0 21
-1 5 -25 -17 -26 -14 -45 8 -45 10 0 10 -11 2 -50 -8 -42 -14 -51 -39 -60 -17
-5 -31 -10 -32 -10 -1 0 -3 12 -3 28 0 15 9 37 20 49 20 21 20 21 -1 33 -16 8
-22 8 -25 -2 -11 -34 -26 -123 -26 -156 0 -21 -6 -46 -14 -57 -7 -11 -16 -38
-20 -60 -4 -22 -18 -64 -32 -94 -13 -29 -24 -67 -24 -83 0 -32 21 -78 44 -97
24 -20 20 -39 -34 -147 -27 -54 -50 -102 -50 -107 0 -4 9 -2 20 5 10 7 15 15
10 18 -6 4 -4 14 4 25 11 16 17 17 29 7 12 -10 16 -10 20 2 4 9 2 18 -3 21 -6
4 -10 1 -10 -6 0 -10 -3 -10 -12 -1 -9 9 -7 17 11 33 l23 22 -7 -23 c-6 -18
-4 -22 8 -17 12 4 14 2 10 -10 -3 -8 -1 -18 5 -22 7 -4 8 -19 2 -46 -5 -22
-14 -94 -20 -160 -11 -115 -20 -149 -34 -126 -4 6 -11 11 -17 11 -5 0 0 -9 10
-19 11 -11 18 -25 17 -33 -19 -81 -16 -78 -37 -57 -10 10 -28 19 -39 19 -15 0
-20 7 -21 28 -1 18 -3 21 -6 9 -5 -18 -5 -18 -19 0 -12 16 -12 14 -2 -14 7
-18 18 -33 24 -33 7 0 14 -36 18 -100 4 -64 14 -117 27 -147 21 -48 21 -40 -7
-294 -5 -39 -2 -63 7 -80 8 -14 15 -57 15 -104 1 -44 5 -113 9 -153 9 -82 -6
-136 -57 -206 -34 -48 -37 -81 -6 -90 13 -3 25 -1 27 5 2 6 8 0 15 -13 13 -26
40 -33 103 -23 35 5 44 11 49 32 5 18 9 21 15 11 5 -7 9 -9 9 -5 0 11 40 -12
40 -23 0 -6 -7 -10 -15 -10 -8 0 -15 -5 -15 -11 0 -7 9 -9 23 -5 12 3 38 9 58
12 26 4 40 14 48 31 20 45 11 123 -19 153 -8 8 -12 32 -16 89 -3 63 -13 72
-102 97 -34 9 -59 21 -56 26 8 12 43 3 104 -26 52 -25 68 -23 73 12 4 27 44
71 76 83 16 7 36 5 60 -3 46 -15 45 -15 84 -17 28 -1 33 -5 32 -26 0 -35 -18
-50 -44 -36 -16 9 -21 9 -21 0 0 -6 9 -13 20 -16 16 -4 18 -8 9 -19 -6 -8 -15
-11 -20 -8 -10 6 -12 -20 -3 -53 4 -13 11 -20 16 -17 6 4 8 -1 5 -12 -7 -24
24 -116 41 -122 6 -2 12 1 12 8 0 6 -4 9 -9 5 -12 -7 -32 61 -24 81 3 8 10 14
15 14 14 0 0 53 -18 66 -13 10 -13 12 2 18 9 3 14 13 11 20 -4 10 1 14 14 13
18 -1 28 -17 11 -17 -12 0 -12 -42 -1 -57 6 -6 8 -22 4 -34 -6 -16 -4 -20 6
-13 11 6 12 5 2 -7 -11 -13 -7 -21 21 -45 28 -25 32 -34 24 -49 -8 -13 -7 -16
1 -11 21 13 54 91 57 134 2 34 0 41 -10 33 -7 -6 -16 -7 -21 -3 -4 4 -4 -7 -1
-25 5 -21 2 -42 -9 -62 -18 -36 -30 -41 -20 -10 5 15 4 19 -4 15 -18 -12 -13
26 9 62 11 18 20 39 20 47 0 7 5 17 10 20 7 4 9 -3 5 -22 l-6 -28 15 25 c12
20 15 22 16 7 0 -12 6 -17 17 -15 14 2 16 15 14 78 -1 41 -4 77 -6 81 -3 3 -7
25 -10 48 -4 38 -3 42 14 36 11 -3 22 -1 26 5 3 6 11 8 16 4 5 -3 6 -11 2 -17
-4 -7 2 -5 13 3 34 27 43 37 37 44 -4 3 -1 7 5 7 26 3 31 4 36 10 12 12 -25
32 -62 34 -43 3 -60 -4 -41 -17 11 -8 11 -9 1 -6 -8 2 -13 7 -13 11 1 4 1 13
1 20 0 6 12 20 26 31 26 18 26 18 15 -3 -16 -30 -10 -27 38 19 23 22 38 40 33
40 -4 0 -13 -5 -20 -12 -7 -7 -12 -8 -12 -2 0 6 9 19 20 29 11 10 20 15 20 10
0 -4 6 -2 13 4 18 14 27 4 27 -27 0 -14 8 -35 17 -46 10 -12 14 -18 10 -14 -5
3 -16 0 -25 -8 -10 -7 -26 -20 -37 -28 -18 -14 -18 -15 -2 -16 10 0 20 6 23
14 3 8 14 16 25 19 18 5 18 4 -2 -25 -12 -16 -28 -32 -35 -35 -20 -8 -17 -23
5 -23 14 0 18 -5 14 -19 -3 -10 1 -22 8 -26 8 -5 10 -4 5 3 -4 7 -3 12 3 12
11 0 9 -39 -3 -58 -4 -7 -16 -12 -27 -12 -11 0 -22 -7 -25 -15 -4 -8 -10 -12
-15 -9 -5 3 -7 10 -4 15 4 5 1 9 -5 9 -7 0 -9 8 -5 20 5 17 1 15 -25 -9 -18
-16 -29 -34 -26 -40 4 -6 2 -11 -4 -11 -6 0 -10 -10 -8 -22 3 -26 17 -28 71
-9 32 11 43 11 71 -3 19 -9 41 -16 50 -16 19 0 21 17 4 22 -15 5 13 38 32 38
6 0 9 4 6 9 -7 10 19 23 28 14 10 -10 7 -35 -3 -28 -5 3 -12 1 -16 -5 -3 -5 2
-10 12 -10 22 0 66 29 45 30 -7 0 -10 5 -7 11 4 5 12 8 18 6 7 -2 26 1 44 8
26 11 32 11 37 0 4 -11 12 -11 45 2 44 17 50 27 26 41 -13 7 -11 11 10 22 14
7 25 22 25 32 0 11 -4 16 -10 13 -5 -3 -17 -2 -26 3 -14 8 -14 10 0 21 9 8 16
11 16 8 0 -3 17 9 37 28 20 19 40 32 44 29 4 -2 6 4 5 14 0 9 5 16 12 14 8 -1
11 2 7 8 -3 5 -1 10 4 10 6 0 10 5 9 12 -4 16 33 23 42 8 4 -6 3 -35 -2 -63
-6 -29 -7 -74 -3 -102 13 -100 20 -205 13 -205 -5 0 -8 -4 -8 -10 0 -5 6 -7
13 -4 8 3 14 21 15 42 1 20 6 38 12 40 8 3 8 8 0 17 -8 10 -4 15 20 23 19 7
28 16 24 25 -3 8 2 17 11 21 9 3 13 11 9 17 -7 11 13 58 31 72 6 4 4 11 -5 17
-13 9 -13 11 0 19 8 6 11 13 7 17 -3 4 -15 1 -24 -7 -10 -7 -8 -2 5 12 19 22
22 37 22 102 0 42 5 79 10 82 6 3 10 11 10 17 0 6 -10 3 -22 -8 -13 -11 -36
-26 -51 -32 l-29 -12 21 26 c11 14 19 30 16 34 -2 4 5 16 17 26 21 19 21 19 9
-3 -17 -33 -14 -36 18 -12 16 12 34 18 40 14 8 -4 10 8 9 39 -2 25 -8 46 -14
46 -6 0 -43 -25 -83 -55 -76 -58 -86 -62 -96 -44 -4 6 -26 9 -49 7 -34 -2 -41
0 -40 15 2 15 -1 16 -13 5 -10 -8 -11 -14 -4 -16 6 -2 11 -9 11 -15 0 -8 -3
-8 -11 0 -6 6 -19 9 -27 5 -12 -4 -10 2 7 24 12 16 27 30 32 30 5 1 14 2 21 3
7 1 8 4 3 10 -6 5 -79 12 -162 16 -168 7 -322 21 -331 30 -11 10 0 119 14 147
17 33 20 34 27 8 3 -11 1 -18 -4 -14 -5 3 -9 1 -9 -5 0 -5 -3 -16 -6 -25 -3
-9 -1 -16 6 -16 6 0 8 4 5 10 -3 6 1 7 9 4 9 -3 14 -10 11 -14 -2 -4 20 -24
50 -44 30 -20 57 -31 60 -26 3 6 11 10 17 10 6 0 4 -8 -5 -18 -10 -10 -17 -23
-17 -28 0 -5 5 -2 10 6 5 8 14 16 20 16 21 3 22 4 10 19 -10 12 -10 19 -2 27
7 7 12 10 13 7 5 -30 10 -53 12 -56 2 -1 13 11 26 27 12 17 17 30 11 30 -6 0
-13 -7 -16 -15 -7 -18 -25 -20 -22 -3 2 6 10 19 18 28 24 27 54 84 51 99 -1 8
2 10 11 6 10 -6 10 -5 2 4 -6 6 -18 9 -28 5 -15 -6 -16 -7 0 -19 12 -8 14 -14
6 -19 -7 -4 -12 -2 -12 3 0 6 -7 11 -15 11 -8 0 -19 10 -26 21 -7 15 -8 19 0
15 6 -4 20 2 32 13 12 11 27 18 32 14 6 -3 7 -2 4 4 -4 6 4 15 18 21 13 6 25
7 27 2 2 -5 8 1 14 15 10 20 9 23 -5 18 -13 -4 -13 -3 -2 5 8 6 20 8 27 5 8
-3 12 3 11 19 -2 32 -18 40 -41 20 -11 -9 -5 2 13 26 35 46 53 57 27 17 -13
-20 -13 -23 -2 -19 19 7 25 34 13 61 -8 19 -13 21 -25 10 -13 -11 -14 -9 -1
13 17 29 29 40 48 40 11 0 9 -6 -5 -22 l-19 -23 23 20 c19 16 37 19 84 18 86
-3 103 -17 99 -84 -1 -30 -9 -61 -17 -70 -8 -8 -14 -20 -14 -25 0 -5 5 -2 11
6 9 12 10 10 6 -8 -5 -19 -3 -21 9 -11 11 9 12 15 3 25 -9 11 -6 14 15 14 24
0 26 2 15 21 -8 15 -8 19 0 15 6 -4 11 -1 11 6 0 7 12 24 25 37 l25 23 0 -55
c0 -31 5 -59 10 -62 6 -3 10 1 10 9 0 9 5 16 11 16 5 0 8 4 4 9 -3 5 -1 12 5
16 6 4 8 10 5 15 -8 13 6 40 21 40 8 0 14 5 14 11 0 5 -4 7 -10 4 -14 -9 -1
26 19 48 8 10 23 16 32 14 9 -3 23 0 30 5 11 8 10 9 -3 4 -11 -3 -15 -1 -12 9
6 16 42 27 49 15 3 -5 -1 -11 -7 -13 -7 -3 2 -3 20 0 28 5 31 3 25 -12 -5 -14
-3 -17 8 -13 8 3 23 2 34 -3 19 -7 19 -8 1 -8 -15 -1 -16 -4 -7 -15 9 -11 8
-15 -6 -20 -11 -5 -14 -10 -6 -14 12 -8 -1 -52 -16 -52 -6 0 -36 -16 -67 -36
-50 -32 -77 -41 -133 -43 -7 -1 -11 -7 -8 -15 8 -19 -18 -53 -55 -72 -39 -20
-58 -12 -58 26 0 20 -4 29 -11 24 -6 -3 -9 -19 -7 -35 4 -25 0 -30 -31 -40
-20 -7 -42 -20 -49 -31 -7 -10 -31 -21 -53 -24 -22 -4 -42 -11 -45 -16 -11
-18 4 -19 41 -4 43 18 69 21 60 6 -3 -5 -1 -10 6 -10 7 0 4 -7 -7 -16 -18 -15
-17 -15 14 -10 21 4 32 1 33 -7 0 -6 2 -34 4 -60 4 -45 3 -48 -17 -41 -17 5
-20 3 -15 -11 4 -9 7 -19 7 -21 0 -9 29 -3 32 7 2 6 16 12 31 12 15 0 30 4 33
8 3 5 10 7 15 4 5 -4 12 1 15 9 3 9 16 16 27 16 20 0 19 2 -6 28 -22 23 -27
37 -27 81 0 49 3 55 48 99 45 46 153 99 292 147 71 24 105 45 129 81 46 67 6
104 -109 104 -32 0 -72 3 -89 6 -29 6 -31 9 -31 49 0 46 -7 60 -24 46 -6 -5
-38 -23 -71 -41 -53 -28 -106 -65 -65 -46 8 4 7 1 -3 -8 -11 -8 -26 -12 -35
-9 -9 4 -13 2 -9 -4 20 -32 -170 -50 -201 -19 -12 11 -8 13 25 13 22 0 45 3
52 7 7 5 18 3 23 -2 11 -11 64 11 80 33 4 6 8 6 8 2 0 -4 9 -3 20 3 11 6 18
15 15 20 -3 5 3 13 12 19 12 7 13 10 4 11 -11 0 -11 3 0 17 13 15 12 16 -9 11
-19 -5 -21 -4 -11 8 6 8 21 15 33 15 15 1 13 3 -9 8 -29 6 -29 6 43 59 53 40
72 60 72 77 0 13 -6 25 -14 28 -16 6 -26 -1 -26 -17 0 -6 5 -4 10 4 5 8 10 11
10 7 0 -10 -68 -75 -93 -88 -10 -6 -15 -14 -12 -18 3 -5 -2 -12 -11 -15 -11
-4 -14 -1 -9 13 4 14 -2 21 -24 31 -17 7 -43 24 -58 38 -16 15 -25 23 -21 18
10 -12 -29 -39 -43 -30 -7 4 -1 15 17 29 l28 22 -32 5 c-37 5 -63 -6 -37 -16
14 -5 15 -9 5 -21 -7 -8 -16 -13 -20 -10 -11 7 -38 -27 -42 -54 -1 -14 -9 -26
-16 -29 -10 -3 -12 4 -8 30 3 19 8 42 12 51 4 11 -6 22 -35 37 -25 12 -41 27
-41 39 0 19 -29 51 -47 51 -14 0 -20 16 -28 83 -5 39 -12 57 -21 57 -8 0 -14
7 -14 16 0 12 -5 14 -17 9 -10 -5 -40 -11 -68 -14 -59 -8 -86 -22 -113 -56
l-20 -25 -4 30 c-3 21 2 40 19 62 29 39 23 46 -15 19 -17 -12 -33 -21 -36 -21
-10 0 6 34 27 58 11 12 16 22 9 22 -6 0 -10 10 -8 23 3 26 36 68 48 61 4 -3 8
2 8 10 0 19 19 22 21 4 2 -19 2 -20 -15 -60 -14 -33 -14 -37 -1 -32 8 4 15 13
15 21 0 8 5 11 10 8 6 -3 10 -1 10 6 0 8 7 5 20 -6 22 -20 18 -35 -11 -35 -10
0 -19 -4 -19 -9 0 -5 20 -9 45 -8 59 3 62 -16 4 -24 -43 -6 -89 -24 -89 -34 0
-2 19 2 41 10 23 8 63 15 90 15 27 0 49 4 49 9 0 6 -16 22 -35 37 -19 14 -35
31 -35 36 0 5 -23 33 -50 61 -31 32 -48 57 -45 67 3 8 -5 4 -16 -10 -12 -14
-28 -24 -35 -22 -13 3 -19 -10 -15 -31 1 -5 -3 -6 -9 -2 -5 3 -10 1 -10 -6 0
-7 -2 -10 -5 -8 -9 9 34 104 45 101 7 -1 9 5 5 18 -4 14 -2 20 7 18 7 -2 12 3
10 10 -1 8 1 11 6 8 13 -8 35 11 39 33 1 11 3 24 4 28 4 23 -2 35 -17 29 -8
-3 -12 -2 -9 4 13 21 -20 9 -49 -17 -17 -16 -28 -24 -24 -19 5 5 2 16 -4 24
-10 11 -9 16 4 23 10 5 16 22 16 41 0 27 -8 40 -44 68 -24 19 -44 38 -44 42 0
4 20 30 45 58 48 54 53 75 34 141 -10 32 -9 40 5 54 9 10 15 25 12 34 -2 9 -7
32 -10 52 -5 30 -10 35 -29 33 -12 -1 -28 -3 -35 -3 -7 -1 -11 -5 -7 -10 3 -6
-9 -5 -30 0 -40 11 -76 9 -87 -6 -4 -6 -8 -2 -8 8 0 9 5 17 10 17 7 0 7 7 0
21 -13 24 -11 28 20 34 12 2 25 7 28 10 3 2 16 -8 30 -23 13 -15 21 -20 17
-12 -14 27 -48 59 -56 54 -5 -3 -9 2 -9 11 0 33 -64 36 -144 5 -15 -5 -29 -18
-32 -27 -15 -46 -29 -62 -58 -68 -57 -12 -63 -15 -94 -59 -30 -41 -31 -47 -25
-110 6 -71 16 -85 65 -95 24 -5 34 -14 39 -34 4 -15 22 -44 40 -64 31 -36 99
-88 99 -76 0 3 6 0 14 -6 10 -8 21 -8 41 -1 41 15 43 4 4 -19 -19 -11 -42 -34
-53 -51 -10 -17 -20 -29 -23 -26 -3 3 4 21 15 39 l20 35 -53 0 c-32 0 -62 6
-78 17 -28 18 -78 98 -80 128 -1 12 -6 15 -17 11 -42 -19 -89 -15 -132 10 -25
14 -48 23 -51 19 -4 -3 -7 8 -7 26 0 18 -6 34 -14 37 -16 6 -58 -30 -48 -42 4
-4 1 -4 -6 0 -8 5 -22 0 -34 -11 -15 -12 -19 -13 -14 -3 4 8 -2 3 -14 -12 -11
-14 -34 -29 -49 -33 -27 -6 -53 -35 -32 -35 5 0 7 -17 5 -37 -5 -58 -7 -63
-16 -63 -4 0 -8 -6 -8 -14 0 -8 -5 -18 -12 -22 -7 -5 -9 -2 -4 7 4 8 1 6 -7
-3 -8 -10 -17 -15 -20 -11 -4 3 -7 1 -7 -5 0 -7 -5 -12 -11 -12 -5 0 -7 6 -4
13 4 6 0 4 -9 -7 -8 -10 -20 -15 -27 -10 -8 4 -10 3 -5 -4 4 -7 2 -12 -4 -12
-8 0 -10 9 -6 26 6 21 4 25 -8 21 -9 -4 -18 -2 -21 3 -8 13 45 101 56 94 5 -3
9 1 9 10 0 8 3 21 6 30 3 9 2 16 -4 16 -5 0 -12 -9 -15 -21 -4 -13 -10 -18
-18 -13 -8 5 -10 3 -4 -6 5 -8 3 -11 -5 -8 -26 8 -20 26 31 87 35 43 50 68 46
81 -3 11 -2 20 3 20 4 0 8 6 7 13 -1 30 4 48 12 43 4 -3 19 6 32 20 13 14 37
33 53 41 l28 15 -18 -26 c-11 -14 -22 -26 -26 -26 -4 0 -12 -9 -18 -20 -9 -17
-4 -16 38 9 34 20 54 26 63 20 15 -10 14 -11 -38 -47 -10 -7 -12 -10 -4 -6 9
5 12 3 7 -4 -10 -17 5 -15 25 4 12 11 27 14 44 10 32 -8 32 -21 0 -22 -29 -2
-57 -22 -49 -35 3 -5 -3 -6 -13 -2 -15 5 -16 3 -6 -7 10 -11 20 -11 55 1 24 8
46 13 49 12 14 -5 -5 49 -21 60 -10 6 -16 16 -13 22 8 22 -55 65 -95 65 -30 0
-44 8 -84 50 -26 27 -48 54 -48 58 0 4 16 23 34 41 l35 34 -45 58 c-41 54 -88
99 -103 99 -4 0 -13 -6 -21 -14z m39 -60 c1 -44 -9 -25 -14 25 -3 32 -2 38 5
24 5 -11 9 -33 9 -49z m61 0 c0 -3 -4 -8 -10 -11 -5 -3 -10 -1 -10 4 0 6 5 11
10 11 6 0 10 -2 10 -4z m-4 -68 c4 -7 4 -10 -1 -6 -4 4 -15 2 -24 -5 -14 -11
-14 -10 -2 6 16 20 18 21 27 5z m30 -14 c-4 -9 -9 -15 -11 -12 -3 3 -3 13 1
22 4 9 9 15 11 12 3 -3 3 -13 -1 -22z m-42 -119 c5 -18 15 -27 36 -31 35 -8
48 -34 24 -51 -20 -14 -35 -17 -32 -5 1 4 -10 31 -25 60 -15 28 -23 52 -18 52
5 0 12 -11 15 -25z m689 -35 c5 0 3 7 -4 17 -13 15 -11 15 19 -1 33 -17 44
-30 17 -20 -8 4 -21 1 -28 -5 -14 -11 -57 11 -57 30 0 6 10 3 22 -5 12 -9 26
-16 31 -16z m72 -9 c3 -5 2 -12 -3 -15 -5 -3 -9 1 -9 9 0 17 3 19 12 6z m168
-33 c-8 -15 -33 -8 -33 8 0 13 3 14 14 5 12 -10 14 -8 10 11 -4 21 -4 21 5 3
4 -11 7 -23 4 -27z m-129 21 c-5 -9 1 -10 20 -5 31 8 66 0 66 -14 0 -6 -11 -5
-26 1 -15 5 -29 7 -32 4 -3 -3 0 -5 6 -5 7 0 12 -4 12 -10 0 -10 -27 -3 -47
13 -12 8 -9 27 3 27 3 0 2 -5 -2 -11z m-39 -29 c3 -6 -1 -7 -9 -4 -18 7 -21
14 -7 14 6 0 13 -4 16 -10z m30 0 c3 -5 1 -10 -4 -10 -6 0 -11 5 -11 10 0 6 2
10 4 10 3 0 8 -4 11 -10z m-221 -15 c-7 -18 7 -20 23 -4 8 8 11 4 10 -14 -1
-14 -5 -23 -9 -21 -4 2 -10 -1 -14 -7 -4 -8 -3 -9 4 -5 7 4 12 2 12 -4 0 -6 5
-8 11 -4 7 4 6 -3 -2 -17 -7 -13 -12 -27 -11 -31 1 -4 -5 -5 -13 -2 -8 4 -12
10 -9 15 5 8 -10 13 -29 10 -4 -1 0 10 9 24 9 14 13 32 10 41 -3 9 -4 20 0 25
9 14 14 10 8 -6z m266 -35 c20 6 100 -14 100 -25 0 -26 -40 -105 -55 -112 -24
-9 -37 10 -29 42 5 19 9 23 15 14 6 -10 12 -9 28 6 24 21 23 24 -12 31 -33 5
-51 -24 -45 -72 5 -47 -24 -56 -60 -20 -15 14 -21 26 -15 26 7 0 15 -4 18 -10
3 -5 11 -10 18 -10 6 0 2 9 -10 21 -16 16 -28 20 -52 14 -17 -4 -29 -10 -27
-14 3 -4 -3 -7 -13 -7 -12 0 -21 12 -28 38 -5 20 -7 37 -4 36 18 -2 30 4 35
17 5 13 2 14 -17 4 -21 -11 -21 -10 -5 6 18 19 68 29 68 14 0 -5 -8 -9 -17 -9
-13 0 -11 -6 12 -30 15 -16 32 -27 37 -24 4 3 8 -2 8 -12 0 -13 5 -11 20 9 21
26 26 42 12 33 -5 -3 -16 4 -25 15 -10 11 -21 18 -25 15 -4 -2 -15 7 -25 20
l-18 24 53 -21 c29 -11 55 -20 58 -19z m-15 30 c3 -6 -4 -10 -17 -10 -18 0
-20 2 -8 10 19 12 18 12 25 0z m128 3 c-13 -2 -33 -2 -45 0 -13 2 -3 4 22 4
25 0 35 -2 23 -4z m-13 -23 c0 -5 -6 -10 -14 -10 -8 0 -18 5 -21 10 -3 6 3 10
14 10 12 0 21 -4 21 -10z m-643 -132 c-3 -8 -6 -5 -6 6 -1 11 2 17 5 13 3 -3
4 -12 1 -19z m3 -49 c8 -14 6 -20 -8 -28 -24 -13 -44 0 -32 19 13 21 12 33 -2
24 -7 -4 -8 -3 -4 4 9 15 34 4 46 -19z m493 -11 c-2 -5 10 -8 26 -8 17 0 31
-3 31 -8 0 -12 -88 -1 -100 13 -8 9 -3 12 19 11 16 -1 27 -4 24 -8z m-88 -8
c-3 -5 1 -10 11 -10 14 0 14 -2 3 -16 -12 -14 -14 -14 -20 3 -5 11 -8 13 -8 4
-1 -8 -4 -11 -7 -8 -4 4 -1 13 6 22 14 17 25 20 15 5z m-530 -55 c-17 -13 -32
-21 -35 -18 -3 3 8 15 25 28 16 13 31 22 34 19 3 -3 -8 -16 -24 -29z m168 23
c-4 -7 -8 -16 -8 -20 0 -3 -4 -10 -9 -15 -5 -5 -6 -3 -2 5 4 6 2 12 -3 12 -6
0 -11 -7 -11 -15 0 -8 -4 -15 -10 -15 -14 0 -12 12 6 38 16 23 52 32 37 10z
m234 -115 c14 -12 45 -27 69 -33 l42 -12 -15 -35 c-16 -40 -10 -82 8 -50 6 9
7 23 3 30 -4 6 -4 9 0 6 4 -4 22 8 40 25 32 30 111 87 131 95 6 2 0 -7 -12
-20 -15 -17 -20 -32 -16 -47 3 -14 1 -22 -7 -22 -7 0 -10 7 -6 15 3 10 -9 6
-35 -12 -37 -24 -57 -60 -51 -90 2 -9 -13 -13 -48 -13 -27 0 -50 3 -50 8 0 4
7 27 16 52 9 25 11 46 6 48 -5 1 -26 11 -46 21 -21 11 -39 15 -42 9 -3 -5 -12
-7 -19 -4 -14 5 -15 -11 -2 -32 11 -16 30 -4 23 14 -3 8 -1 14 4 14 6 0 10 -5
10 -11 0 -5 4 -8 9 -5 5 4 20 2 33 -3 l23 -10 -25 -2 c-14 -1 -29 -2 -35 -2
-5 -1 -18 -9 -27 -18 -14 -15 -14 -20 -3 -29 10 -9 15 -6 20 9 3 12 11 21 16
21 6 0 8 -4 4 -9 -9 -15 15 -25 28 -12 9 9 8 14 -3 21 -13 8 -12 10 4 10 14 0
17 -5 12 -22 -4 -13 -9 -37 -13 -55 -5 -29 -4 -31 18 -27 19 5 21 3 9 -5 -27
-19 -90 9 -90 40 0 8 -5 8 -17 -2 -15 -12 -16 -12 -8 1 5 9 0 8 -13 -4 -24
-21 -28 -16 -11 17 11 21 11 21 -7 6 -36 -31 -47 -34 -34 -10 12 23 5 65 -10
56 -8 -5 -20 52 -12 60 3 3 11 -3 18 -13 12 -16 13 -15 14 6 0 13 -6 22 -15
22 -8 0 -15 8 -15 18 0 14 2 15 10 2 8 -13 11 -11 16 8 9 32 21 27 18 -8 -2
-34 20 -60 30 -35 4 11 13 14 26 10 18 -6 18 -3 -5 21 -38 41 -67 92 -59 105
4 6 18 -11 35 -42 16 -30 41 -64 56 -76z m-197 93 c0 -7 -8 -20 -17 -27 -16
-13 -17 -12 -5 3 8 9 11 22 7 28 -3 5 -1 10 4 10 6 0 11 -6 11 -14z m-450 -5
c0 -6 -14 -25 -31 -43 l-32 -33 24 43 c21 39 39 54 39 33z m458 -63 c-21 -78
-33 -100 -35 -68 -2 19 -26 52 -34 47 -4 -2 84 90 88 92 1 1 -8 -32 -19 -71z
m102 41 c0 -5 -4 -9 -10 -9 -5 0 -10 7 -10 16 0 8 5 12 10 9 6 -3 10 -10 10
-16z m-165 -18 c3 -5 2 -12 -3 -15 -5 -3 -9 1 -9 9 0 17 3 19 12 6z m200 -21
c3 -5 -1 -10 -9 -10 -9 0 -16 5 -16 10 0 6 4 10 9 10 6 0 13 -4 16 -10z m-624
-23 c-10 -9 -11 -8 -5 6 3 10 9 15 12 12 3 -3 0 -11 -7 -18z m307 -16 c-16 -5
-29 22 -15 31 7 4 15 0 18 -10 4 -9 2 -19 -3 -21z m213 -64 c-8 -8 -11 -7 -11
2 0 7 -6 11 -13 8 -10 -4 -12 2 -8 21 3 19 6 22 9 10 4 -20 24 -25 21 -5 -1 6
0 19 1 27 2 8 5 0 7 -19 3 -18 0 -38 -6 -44z m430 50 c-10 -9 -11 -8 -5 6 3
10 9 15 12 12 3 -3 0 -11 -7 -18z m42 -25 c-5 -20 -2 -23 17 -20 19 2 25 -4
37 -37 19 -54 19 -124 1 -159 l-16 -30 -17 34 -18 34 -24 -28 c-24 -28 -24
-28 -45 -10 -12 11 -18 13 -14 6 4 -6 13 -24 21 -39 l14 -26 22 37 22 37 18
-31 c11 -17 19 -36 18 -43 0 -6 -4 -3 -8 7 -6 16 -11 13 -32 -25 -14 -24 -31
-58 -38 -75 -12 -31 -24 -36 -48 -21 -7 4 -24 0 -38 -9 -14 -9 -25 -12 -25 -6
0 5 14 15 31 22 26 11 32 11 40 -1 7 -12 9 -11 9 2 0 39 -39 42 -91 5 -19 -13
-19 -14 2 -40 l21 -27 22 20 22 20 26 -22 c14 -12 29 -33 33 -46 8 -25 11 -25
-62 -5 -21 6 -23 3 -23 -35 0 -22 3 -41 6 -41 20 0 104 47 104 58 0 8 -8 26
-18 40 -19 27 -19 28 14 97 18 39 33 64 33 57 1 -7 -13 -39 -29 -72 -17 -33
-26 -60 -20 -60 25 0 32 -54 15 -117 -14 -52 -23 -66 -51 -82 -18 -11 -50 -23
-71 -27 -36 -6 -37 -5 -18 10 26 20 13 20 -25 1 -17 -9 -42 -20 -56 -26 -23
-8 -25 -8 -15 5 17 21 4 41 -14 22 -8 -8 -31 -24 -50 -36 -30 -19 -41 -21 -61
-11 -34 15 -37 14 -31 -9 4 -16 -2 -22 -30 -29 -39 -11 -57 -5 -87 28 -27 29
-42 26 -22 -4 20 -30 8 -32 -27 -5 -14 11 -32 18 -39 15 -24 -9 -47 28 -67
107 -14 53 -17 86 -11 111 4 20 5 38 3 41 -3 3 -2 17 1 31 9 37 26 21 21 -21
-4 -42 19 -185 27 -164 3 8 3 -10 0 -40 -4 -51 -3 -54 12 -35 8 11 16 28 16
37 0 9 5 20 10 23 6 3 10 14 10 24 0 10 12 28 26 42 14 13 35 37 46 52 l20 28
-22 70 c-18 56 -26 69 -39 64 -12 -5 -13 -3 -5 5 6 6 30 14 53 17 32 4 40 9
37 22 -3 9 3 31 13 50 l18 33 35 -42 36 -41 28 36 27 36 33 -32 c19 -18 35
-31 36 -28 2 2 13 18 26 36 31 46 27 54 -7 13 l-28 -35 -28 33 c-27 32 -28 33
-42 12 -8 -11 -19 -17 -25 -14 -6 4 -8 2 -5 -3 4 -6 1 -16 -7 -22 -15 -12 -38
8 -42 36 -2 13 0 13 14 0 15 -14 20 -13 41 4 28 23 27 24 -16 32 -27 5 -35 2
-44 -15 -8 -15 -13 -17 -19 -8 -4 7 -28 15 -54 17 -46 6 -46 5 -46 -25 0 -42
9 -62 26 -55 8 3 14 0 14 -6 0 -6 -3 -12 -7 -12 -67 -10 -66 -11 -58 37 8 54
18 106 30 154 2 8 4 20 4 26 1 7 12 14 26 16 24 5 25 4 25 -53 l0 -59 48 -1
c26 -1 103 -2 171 -2 78 0 115 -4 101 -9 -22 -8 -22 -9 -4 -29 17 -19 19 -19
31 -3 7 10 13 21 13 25 0 4 8 9 18 11 13 4 22 -3 32 -25 l13 -30 17 24 c10 12
16 29 13 36 -3 7 2 13 11 13 9 0 16 4 16 9 0 5 10 11 23 13 12 2 22 10 22 18
0 9 -9 15 -22 14 -13 0 -23 3 -23 7 0 4 -3 16 -7 26 -6 16 -5 16 10 4 15 -12
17 -11 17 4 0 12 -6 16 -20 12 -18 -5 -20 0 -20 46 0 37 3 48 10 37 5 -8 7
-25 3 -38z m-23 -30 c0 -7 -4 -10 -10 -7 -5 3 -10 -4 -10 -15 0 -16 5 -20 15
-16 8 3 15 4 15 2 0 -3 3 -11 6 -19 4 -12 0 -14 -15 -10 -12 3 -28 -1 -37 -8
-9 -8 -34 -15 -55 -16 -34 -1 -39 1 -39 20 0 17 2 19 9 8 8 -12 12 -12 25 -2
14 12 13 15 -6 31 l-22 17 27 14 c34 18 97 19 97 1z m-510 -33 c0 -4 -14 -4
-31 1 -41 12 -53 24 -15 14 26 -6 29 -5 23 12 -7 18 -6 18 8 0 8 -11 15 -23
15 -27z m-176 5 c3 -8 2 -12 -4 -9 -6 3 -10 10 -10 16 0 14 7 11 14 -7z m860
-15 c-3 -5 -11 -9 -19 -9 -8 0 -20 -9 -28 -21 -10 -14 -17 -17 -22 -9 -4 7 2
18 14 26 12 9 19 19 16 23 -2 5 7 6 20 3 14 -2 22 -8 19 -13z m-777 -25 c-3
-3 -12 -4 -19 -1 -8 3 -5 6 6 6 11 1 17 -2 13 -5z m58 -24 c3 -5 1 -10 -4 -10
-6 0 -11 5 -11 10 0 6 2 10 4 10 3 0 8 -4 11 -10z m378 -20 c4 0 5 4 2 10 -3
6 1 7 9 4 28 -11 17 -20 -26 -23 -37 -2 -40 0 -28 14 9 11 16 13 24 5 5 -5 14
-10 19 -10z m-438 -19 c3 -5 2 -12 -3 -15 -5 -3 -9 1 -9 9 0 17 3 19 12 6z
m154 -74 c-7 -15 -16 -24 -20 -21 -5 3 -1 16 7 30 21 31 29 25 13 -9z m-169
-82 c0 -14 -2 -25 -4 -25 -2 0 -6 11 -8 25 -3 14 -1 25 3 25 5 0 9 -11 9 -25z
m51 -92 c-8 -14 -9 -11 -6 16 l4 33 -25 -23 c-33 -31 -31 -12 4 24 l27 29 3
-31 c2 -17 -1 -39 -7 -48z m-64 35 c-3 -8 -6 -5 -6 6 -1 11 2 17 5 13 3 -3 4
-12 1 -19z m123 -26 c15 -56 13 -66 -22 -103 -18 -20 -27 -28 -20 -19 6 9 12
20 12 25 0 5 8 17 17 27 16 18 15 21 -5 62 -11 24 -18 47 -15 50 11 10 22 -4
33 -42z m-106 -27 c-4 -8 -8 -15 -10 -15 -2 0 -4 7 -4 15 0 8 4 15 10 15 5 0
7 -7 4 -15z m26 -17 c0 6 5 12 10 12 6 0 10 -7 10 -15 0 -8 -4 -15 -10 -15 -5
0 -7 -8 -4 -17 3 -10 -2 -7 -10 7 -16 27 -22 55 -6 30 6 -10 10 -11 10 -2z
m851 -82 c6 -6 9 -3 9 7 0 21 42 40 52 23 5 -7 8 -6 8 4 1 12 3 11 11 -3 7
-12 7 -22 0 -30 -6 -8 -6 -18 -1 -27 9 -15 -5 -34 -45 -59 -18 -11 -18 -11 5
-5 52 16 74 10 90 -22 8 -16 25 -40 38 -52 12 -13 20 -27 17 -32 -8 -13 -35
-13 -35 0 0 5 -6 9 -12 7 -7 -1 -14 8 -16 20 -3 20 -47 41 -60 28 -3 -3 0 -5
7 -5 7 0 9 -5 6 -10 -4 -7 -13 -6 -27 1 -17 9 -20 9 -15 -4 7 -18 -11 -37 -35
-37 -18 0 -22 15 -18 54 1 13 -3 17 -14 13 -45 -18 -105 58 -82 101 7 13 15
19 19 16 4 -4 7 -3 7 3 0 5 7 10 15 10 9 0 14 -6 11 -14 -3 -8 -1 -11 4 -8 6
4 10 12 9 18 -3 26 2 37 16 37 8 0 16 6 16 13 1 6 4 1 6 -13 3 -14 9 -29 14
-34z m-311 20 c0 -2 -9 -6 -20 -9 -15 -4 -20 0 -20 14 0 17 3 18 20 9 11 -6
20 -12 20 -14z m115 -77 c9 -16 30 -35 48 -43 17 -8 40 -20 51 -28 17 -14 17
-15 -13 -15 -17 0 -31 4 -31 8 0 3 -13 9 -30 11 -16 3 -28 2 -25 0 2 -3 0 -13
-6 -23 -9 -17 -6 -18 33 -15 23 2 49 0 57 -5 9 -5 29 -14 45 -19 43 -16 20
-31 -29 -20 -27 6 -44 5 -54 -3 -12 -9 -13 -9 -7 1 5 8 1 12 -13 12 -18 0 -39
-35 -28 -47 3 -3 30 -8 59 -12 30 -5 47 -11 38 -14 -22 -10 -114 -37 -116 -34
-1 1 -18 30 -38 64 l-36 61 20 44 c11 23 20 51 20 61 0 26 19 59 31 52 5 -4
16 -19 24 -36z m-737 -46 c6 -26 8 -50 5 -53 -10 -10 -33 35 -33 67 0 49 17
40 28 -14z m787 -51 c-3 -3 -11 0 -18 7 -9 10 -8 11 6 5 10 -3 15 -9 12 -12z
m-305 -18 c0 -3 -7 -12 -15 -20 -13 -14 -15 -13 -15 5 0 12 6 21 15 21 8 0 15
-3 15 -6z m687 -21 c2 -6 -5 -13 -15 -15 -15 -4 -18 -1 -14 14 5 19 23 20 29
1z m-757 -12 c0 -10 -9 -21 -20 -24 -22 -6 -27 12 -8 31 17 17 28 15 28 -7z
m-382 -2 c-2 -6 -8 -10 -13 -10 -5 0 -11 4 -13 10 -2 6 4 11 13 11 9 0 15 -5
13 -11z m64 -15 c-4 -24 -6 -24 -21 -9 -14 14 -14 17 -1 25 23 15 28 12 22
-16z m19 -7 c-10 -9 -11 -8 -5 6 3 10 9 15 12 12 3 -3 0 -11 -7 -18z m1174
-11 c7 -12 6 -19 -5 -26 -36 -24 -87 13 -61 44 15 17 49 8 66 -18z m-1135 8
c0 -8 -4 -12 -10 -9 -5 3 -10 10 -10 16 0 5 5 9 10 9 6 0 10 -7 10 -16z m180
0 c0 -10 -6 -14 -15 -10 -8 3 -15 1 -15 -5 0 -6 -4 -7 -10 -4 -20 12 -10 35
15 35 16 0 25 -6 25 -16z m17 -6 c-3 -8 -6 -5 -6 6 -1 11 2 17 5 13 3 -3 4
-12 1 -19z m549 7 c-3 -8 0 -15 7 -15 8 0 8 -3 -2 -9 -7 -5 -10 -15 -7 -22 4
-8 0 -5 -8 5 -17 21 -20 38 -9 49 12 13 25 7 19 -8z m79 -17 c-1 -13 2 -31 7
-42 7 -12 7 -16 0 -12 -6 3 -12 0 -15 -6 -3 -10 -8 -10 -21 1 -13 11 -14 16
-4 22 10 7 10 9 1 9 -16 0 -13 18 7 40 19 21 27 17 25 -12z m-170 12 c3 -5 -1
-10 -10 -10 -9 0 -13 5 -10 10 3 6 8 10 10 10 2 0 7 -4 10 -10z m-615 -36 c0
-16 4 -23 12 -18 7 5 8 3 3 -5 -6 -10 -12 -8 -27 7 -11 11 -17 25 -14 31 12
19 26 12 26 -15z m852 -7 c3 -28 0 -33 -17 -33 -17 0 -20 5 -17 33 2 18 10 33
17 33 7 0 15 -15 17 -33z m34 -2 c1 -8 -2 -13 -7 -9 -5 3 -9 12 -9 21 0 19 13
9 16 -12z m-621 -5 c-10 -11 -20 -18 -23 -15 -7 6 18 35 31 35 5 0 2 -9 -8
-20z m924 -5 c18 -5 22 -4 16 5 -5 9 -4 11 3 6 19 -11 14 -26 -9 -26 -13 0
-18 -4 -13 -12 4 -7 4 -10 -1 -6 -4 4 -20 1 -35 -7 -25 -13 -29 -13 -41 2 -8
9 -9 14 -3 10 6 -3 16 5 23 19 6 14 17 24 24 21 6 -2 23 -8 36 -12z m-128 -44
c-14 -25 -14 -44 -1 -36 6 4 8 9 6 13 -2 4 2 12 9 19 10 9 17 7 31 -10 17 -19
17 -20 1 -8 -15 12 -17 12 -11 -2 4 -12 -4 -18 -32 -26 -20 -6 -42 -7 -47 -4
-6 3 -7 1 -4 -4 4 -6 -28 -24 -76 -43 -124 -49 -187 -88 -187 -115 1 -5 5 -2
11 8 6 9 14 15 19 12 4 -3 11 2 14 11 3 8 10 12 16 9 5 -3 10 -1 10 5 0 8 9
10 26 6 14 -4 24 -3 21 1 -3 4 1 14 9 21 9 8 14 9 14 2 0 -22 -57 -63 -154
-112 -54 -27 -105 -47 -113 -44 -9 4 -11 2 -7 -6 5 -7 0 -9 -14 -6 -12 4 -24
2 -27 -3 -3 -4 -13 -5 -22 -2 -11 4 -14 3 -9 -5 4 -7 1 -12 -8 -12 -8 0 -18 5
-22 12 -4 6 -3 8 4 4 6 -3 15 1 20 10 7 12 11 13 17 5 5 -8 15 -4 32 15 18 20
27 24 33 15 5 -10 9 -8 14 4 3 9 11 13 17 9 7 -4 9 -3 6 3 -7 11 60 46 74 38
5 -4 9 -1 9 4 0 16 -19 13 -69 -9 -23 -11 -47 -18 -51 -15 -5 3 -11 1 -15 -5
-3 -5 -17 -10 -31 -10 -14 0 -23 -4 -20 -9 3 -5 -3 -11 -14 -14 -17 -4 -18 -2
-9 16 7 15 2 12 -15 -8 -21 -25 -27 -28 -36 -15 -8 13 -10 12 -10 -5 0 -14 -3
-16 -11 -8 -9 9 -16 6 -29 -9 l-17 -21 -51 33 c-28 18 -53 39 -57 47 -3 8 -12
13 -20 9 -8 -3 -15 -1 -15 4 0 6 4 10 9 10 5 0 18 3 28 6 13 4 15 3 4 -4 -8
-6 -9 -12 -3 -16 6 -3 13 2 16 12 6 18 54 47 63 39 2 -3 -3 -12 -12 -20 -10
-10 -11 -18 -5 -22 6 -4 15 7 21 24 6 17 15 31 19 31 5 0 2 -16 -6 -36 -8 -20
-13 -38 -11 -41 3 -2 10 12 17 31 15 47 40 73 51 54 12 -19 11 -30 -3 -22 -8
5 -9 2 -5 -9 3 -10 2 -17 -4 -17 -6 0 -7 -6 -2 -12 4 -7 7 -22 6 -33 -1 -11 8
9 19 45 27 79 25 77 41 60 10 -10 9 -11 -2 -5 -9 5 -12 3 -9 -6 3 -8 1 -22 -4
-32 -5 -10 -12 -31 -14 -45 -7 -41 12 -8 32 56 9 28 20 52 25 52 5 0 6 -8 3
-17 -5 -15 -3 -15 10 1 9 11 16 24 16 29 0 5 7 7 15 4 8 -4 17 -2 21 4 4 6 11
5 21 -3 12 -10 17 -9 27 3 12 17 56 43 56 34 0 -4 -5 -16 -10 -28 -9 -20 -9
-20 2 -4 36 52 37 53 31 30 -7 -31 11 -29 25 2 10 22 27 30 54 26 4 0 19 6 34
13 14 8 35 13 44 11 10 -2 21 2 23 9 3 7 15 16 27 19 16 4 20 2 16 -9 -3 -9
-1 -12 4 -9 6 3 10 12 10 20 0 7 14 18 31 24 41 14 41 14 29 -8 -7 -14 -7 -22
2 -27 6 -4 8 -3 5 3 -4 6 0 13 8 17 8 3 16 13 16 23 1 16 2 16 6 1 2 -9 -1
-26 -6 -37z m-974 27 c6 -7 13 -26 17 -41 6 -26 5 -28 -20 -25 -20 2 -30 10
-35 31 -4 16 -3 25 2 21 5 -3 9 2 9 10 0 19 14 21 27 4z m476 -4 c-20 -8 -33
-21 -32 -32 0 -16 1 -16 7 0 5 12 11 15 21 9 8 -5 21 -7 30 -3 9 3 13 2 10 -2
-8 -8 -47 -18 -72 -18 -9 1 -15 -4 -11 -9 3 -5 2 -9 -3 -8 -21 4 -33 -2 -33
-17 0 -11 5 -14 16 -10 12 4 15 2 10 -9 -3 -8 -1 -15 4 -15 6 0 10 5 10 10 0
6 11 15 25 22 13 6 22 15 18 21 -3 6 -1 7 6 3 6 -4 19 -2 27 5 12 9 17 10 27
0 9 -10 8 -11 -6 -5 -10 3 -17 3 -15 -2 9 -34 -85 -102 -102 -74 -5 8 -10 8
-14 2 -5 -9 -57 0 -169 29 -41 11 -42 24 -2 32 21 3 25 1 20 -12 -4 -11 1 -9
17 6 28 26 85 44 73 22 -4 -8 2 -4 14 9 23 24 47 30 35 10 -4 -7 1 -5 12 4 21
18 83 47 99 47 6 0 -5 -7 -22 -15z m-583 -23 c-4 -16 -6 -32 -2 -35 3 -3 -2
-6 -12 -6 -10 0 -14 -5 -11 -11 4 -6 13 -8 21 -5 8 3 14 1 14 -4 0 -6 -10 -11
-22 -11 l-23 -2 23 -4 c40 -8 24 -103 -18 -103 -32 0 -24 30 8 31 l27 2 -29 4
c-29 5 -29 5 -23 62 7 66 16 93 27 86 4 -3 10 2 14 10 10 27 15 16 6 -14z
m233 -1 c-3 -11 -10 -23 -16 -27 -5 -3 -8 -2 -5 3 3 5 8 17 11 27 9 24 16 22
10 -3z m95 -14 c-10 -7 -18 -18 -18 -24 0 -5 -7 -12 -15 -16 -26 -10 -16 19
13 36 32 21 44 23 20 4z m-385 -48 c-3 -15 -11 -29 -18 -32 -9 -3 -12 2 -10
14 2 10 -3 21 -11 24 -8 3 -14 11 -14 18 0 9 3 9 11 -2 9 -13 11 -13 22 2 15
23 27 10 20 -24z m243 20 c-3 -13 -5 -26 -5 -30 -1 -5 -5 -8 -11 -8 -14 0 -12
28 3 45 16 19 18 19 13 -7z m-321 -15 c-5 -23 -4 -25 9 -14 17 14 17 15 21
-34 1 -11 3 -42 4 -70 1 -35 4 -46 11 -35 12 19 5 -150 -9 -210 -5 -25 -15
-76 -20 -114 -11 -75 -17 -88 -31 -66 -10 16 -5 171 6 217 5 18 3 24 -4 19
-12 -7 -28 -72 -23 -96 2 -8 0 -12 -4 -8 -10 9 -12 77 -3 72 5 -3 8 1 8 10 0
8 -4 16 -8 18 -20 8 24 338 45 338 3 0 2 -12 -2 -27z m840 17 c-3 -5 -1 -10 6
-10 7 0 10 -2 7 -5 -3 -3 -13 -2 -22 1 -14 5 -15 9 -4 15 17 11 20 11 13 -1z
m555 -15 c-7 -8 -9 -15 -4 -15 5 0 3 -4 -5 -9 -8 -5 -20 -7 -27 -4 -10 4 -8
10 9 24 27 22 44 25 27 4z m-1127 -2 c-7 -2 -19 -2 -25 0 -7 3 -2 5 12 5 14 0
19 -2 13 -5z m505 -13 c-7 -11 -16 -20 -21 -20 -4 0 -3 9 3 20 6 11 15 20 20
20 6 0 5 -9 -2 -20z m52 4 c0 -2 -7 -4 -15 -4 -8 0 -15 4 -15 10 0 5 7 7 15 4
8 -4 15 -8 15 -10z m-406 -54 c6 -32 5 -33 -8 -15 -15 20 -15 19 -11 -2 2 -13
0 -25 -5 -28 -5 -3 -7 4 -5 15 2 11 -1 20 -6 20 -6 0 -7 5 -3 12 4 7 3 8 -4 4
-7 -4 -12 -2 -12 3 0 6 5 11 12 11 6 0 8 3 5 7 -4 3 -2 12 5 20 14 17 22 6 32
-47z m-135 28 c23 -64 17 -157 -9 -118 -5 8 -10 26 -10 39 0 33 -8 23 -15 -19
-7 -42 -13 -49 -25 -30 -13 20 -12 39 0 20 8 -10 9 7 4 58 l-7 72 27 0 c18 0
29 -7 35 -22z m-219 -50 c0 -5 -7 -3 -15 6 -8 8 -15 18 -15 22 0 3 7 1 15 -6
8 -7 15 -17 15 -22z m280 12 c0 10 4 10 16 -1 14 -11 14 -14 -5 -28 -11 -9
-27 -32 -36 -51 -15 -34 -16 -34 -10 -5 3 17 6 45 5 64 -1 30 1 32 15 21 12
-10 15 -10 15 0z m723 -20 c-10 -11 -19 -20 -21 -20 -1 0 2 9 8 20 6 11 15 20
20 20 6 0 2 -9 -7 -20z m-1006 -32 c-3 -8 -6 -5 -6 6 -1 11 2 17 5 13 3 -3 4
-12 1 -19z m363 -8 c0 -13 -7 -20 -20 -20 -13 0 -18 5 -14 15 4 8 10 12 15 9
5 -3 9 0 9 5 0 6 2 11 5 11 3 0 5 -9 5 -20z m-280 -2 c0 -5 -12 -9 -27 -9
l-28 -2 28 -4 c26 -4 27 -7 27 -59 0 -56 -16 -77 -18 -23 -1 35 -12 54 -12 21
0 -16 -6 -22 -22 -22 -21 0 -23 4 -20 52 4 53 4 53 38 53 19 0 34 -3 34 -7z
m1268 -33 c-6 -14 -13 -23 -15 -21 -5 5 15 46 22 46 3 0 -1 -11 -7 -25z
m-1048 1 c0 -8 -9 -24 -20 -37 l-20 -24 10 29 c17 47 30 61 30 32z m-70 -28
c0 -13 3 -33 6 -45 5 -19 2 -23 -15 -23 -18 0 -21 6 -21 45 0 33 4 45 15 45 9
0 15 -9 15 -22z m1390 18 c0 -2 -7 -7 -16 -10 -8 -3 -12 -2 -9 4 6 10 25 14
25 6z m-1440 -46 c0 -44 -8 -49 -34 -21 -14 15 -15 24 -6 40 19 36 40 26 40
-19z m157 -27 c19 -15 6 -36 -18 -30 -11 3 -17 2 -14 -3 3 -4 -2 -13 -10 -20
-21 -17 -19 -40 4 -40 21 0 35 25 25 43 -5 9 -4 9 5 1 18 -16 -3 -54 -29 -54
-11 0 -20 -6 -20 -13 0 -21 11 -27 31 -16 15 7 17 6 13 -6 -4 -8 -1 -15 5 -15
6 0 3 -9 -6 -19 -17 -21 -25 -71 -10 -71 4 0 5 -4 2 -10 -4 -6 5 -10 19 -10
17 0 26 -6 26 -15 0 -9 8 -19 17 -22 23 -9 53 -35 48 -43 -2 -3 7 -6 21 -5 14
0 28 5 32 11 5 9 10 8 19 -1 15 -16 8 -23 -54 -54 -24 -12 -43 -28 -43 -37 0
-8 -5 -12 -11 -8 -8 5 -8 1 0 -14 17 -32 13 -42 -15 -42 -14 0 -23 4 -20 9 3
5 0 14 -8 20 -10 9 -15 8 -20 -4 -8 -21 -33 -19 -63 5 -14 11 -21 20 -14 20
18 0 12 20 -6 21 -17 1 -17 2 0 6 19 5 24 24 5 21 -8 -2 -12 6 -10 21 3 20 0
23 -16 19 -15 -4 -19 -2 -15 9 5 12 1 14 -15 9 -17 -6 -19 -3 -15 14 3 11 0
20 -6 20 -7 0 -8 8 -1 26 13 34 13 34 -10 34 -11 0 -20 -5 -20 -11 0 -5 -5 -7
-12 -3 -7 5 -9 2 -6 -7 3 -8 -1 -31 -9 -50 -9 -21 -17 -29 -20 -20 -3 7 0 17
6 20 6 4 13 35 14 68 2 53 4 60 17 50 8 -6 12 -7 8 -3 -4 5 -3 15 4 23 6 7 8
16 4 20 -3 3 -6 1 -6 -5 0 -7 -4 -12 -9 -12 -10 0 -9 14 3 42 4 9 5 21 2 27
-4 5 -2 12 4 16 5 3 10 -3 10 -14 0 -11 10 -27 23 -36 15 -12 18 -19 9 -22 -7
-3 -17 -14 -24 -26 -9 -18 -6 -18 16 5 25 24 64 30 50 7 -3 -5 -3 -9 0 -9 12
0 37 63 31 78 -8 20 34 104 48 95 6 -3 7 -1 4 5 -4 5 -4 18 0 28 5 14 8 15 11
3 2 -7 11 -19 19 -26z m153 -50 c0 -11 -5 -11 -20 -3 -11 6 -20 15 -20 21 0 6
-4 8 -9 4 -11 -6 -25 12 -26 36 -1 13 7 10 37 -14 21 -17 38 -37 38 -44z
m-360 48 c6 -11 6 -22 1 -25 -5 -3 -11 5 -13 19 -6 30 -2 32 12 6z m-80 -1 c0
-5 -6 -10 -12 -11 -10 0 -10 -2 0 -6 13 -5 17 -73 4 -73 -11 0 -35 68 -28 79
4 5 0 12 -6 14 -7 3 -1 6 15 6 15 1 27 -3 27 -9z m220 -4 c0 -3 -4 -8 -10 -11
-5 -3 -10 -1 -10 4 0 6 5 11 10 11 6 0 10 -2 10 -4z m-190 -56 c0 -22 -4 -40
-10 -40 -5 0 -10 18 -10 40 0 22 5 40 10 40 6 0 10 -18 10 -40z m113 -10 c4 0
7 7 7 15 0 9 6 12 15 9 8 -4 15 -17 15 -30 0 -30 -32 -32 -60 -4 -25 25 -27
49 -2 27 10 -10 22 -17 25 -17z m747 22 c0 -5 -11 -19 -25 -32 -27 -25 -35
-19 -10 7 8 8 13 19 10 24 -4 5 1 9 9 9 9 0 16 -4 16 -8z m-934 -69 c-11 -11
-17 4 -9 23 7 18 8 18 11 1 2 -10 1 -21 -2 -24z m628 -25 c16 27 23 10 8 -20
l-16 -33 -7 25 c-10 34 -10 60 0 36 5 -14 10 -16 15 -8z m-554 -20 c0 -15 -5
-28 -11 -28 -6 0 -8 9 -4 20 7 21 -10 28 -18 8 -3 -7 -6 -4 -6 7 -1 14 5 21
19 21 15 0 20 -7 20 -28z m147 26 c-3 -3 -12 -4 -19 -1 -8 3 -5 6 6 6 11 1 17
-2 13 -5z m-361 -49 c-2 -33 -16 -45 -16 -13 0 20 7 38 15 38 1 0 1 -11 1 -25z
m21 -7 c-3 -8 -6 -5 -6 6 -1 11 2 17 5 13 3 -3 4 -12 1 -19z m983 3 c0 -5 -12
-24 -27 -42 -16 -18 -23 -30 -16 -26 6 4 13 4 16 0 2 -5 3 -3 2 2 -1 6 12 21
29 35 30 25 29 19 -6 -32 -15 -22 -23 -26 -37 -18 -10 5 -22 6 -27 2 -4 -4 0
4 9 18 9 14 22 35 27 48 9 22 30 31 30 13z m-837 -84 c-4 -6 0 -8 9 -4 16 6
38 -10 38 -27 0 -6 -7 -2 -15 8 -15 20 -15 20 -16 0 0 -10 -3 -14 -5 -7 -3 7
-12 9 -20 6 -9 -3 -12 0 -9 9 3 8 1 26 -4 40 -5 14 -7 29 -4 32 9 9 34 -45 26
-57z m734 4 c0 -11 -5 -18 -9 -15 -4 3 -5 11 -1 19 7 21 12 19 10 -4z m38 -19
c-3 -3 -11 0 -18 7 -9 10 -8 11 6 5 10 -3 15 -9 12 -12z m-788 -44 c-3 -8 -6
-5 -6 6 -1 11 2 17 5 13 3 -3 4 -12 1 -19z m43 -63 l1 -40 12 29 13 29 12 -27
c7 -15 17 -24 22 -21 5 3 8 0 5 -7 -3 -8 -24 -13 -58 -13 -52 0 -65 8 -66 45
-1 13 0 13 10 0 8 -12 9 -9 5 11 -7 30 -1 38 25 36 15 -1 19 -9 19 -42z m35
35 c-3 -5 -12 -10 -18 -10 -7 0 -6 4 3 10 19 12 23 12 15 0z m1129 -2 c-3 -4
-9 -8 -15 -8 -5 0 -9 4 -9 8 0 5 7 9 15 9 8 0 12 -4 9 -9z m-1034 -28 c-6 -11
-13 -20 -16 -20 -2 0 0 9 6 20 6 11 13 20 16 20 2 0 0 -9 -6 -20z m510 7 c0
-2 -10 -12 -22 -23 l-23 -19 19 23 c18 21 26 27 26 19z m-518 -59 c-12 -12
-52 -18 -52 -8 0 10 15 16 41 16 10 0 15 -4 11 -8z m515 -6 c10 -6 95 -13 188
-17 94 -4 179 -8 190 -10 103 -16 125 -27 125 -64 0 -18 -5 -21 -31 -19 -27 2
-28 4 -13 15 16 11 16 13 2 13 -9 0 -23 -7 -31 -15 -8 -8 -17 -11 -20 -8 -4 3
3 13 15 23 35 28 -1 50 -41 25 -10 -6 -12 -4 -6 5 5 8 -7 3 -26 -10 -19 -13
-35 -28 -37 -32 -2 -4 -8 -8 -13 -8 -16 0 -9 21 14 42 l22 20 -30 -19 c-54
-35 -61 -37 -40 -13 l20 24 -32 -22 c-46 -32 -58 -27 -21 9 l33 30 -42 -27
c-24 -15 -43 -31 -43 -37 0 -6 -31 -7 -87 -3 -49 4 -140 9 -203 11 -145 4
-165 12 -165 66 l0 40 126 -4 c70 -3 135 -10 146 -15z m-624 -45 c-3 -4 -7 -6
-10 -3 -3 2 -17 0 -32 -5 -24 -8 -24 -8 -8 5 20 15 59 18 50 3z m222 -50 c6
-7 4 -8 -8 -3 -10 3 -27 6 -38 6 -10 0 -19 7 -19 15 0 12 5 13 28 3 15 -7 32
-16 37 -21z m-231 1 c-13 -16 -14 -19 -2 -10 14 11 18 10 30 -6 20 -29 59 -47
68 -32 5 8 9 8 13 -3 3 -8 -1 -25 -10 -36 -14 -21 -16 -21 -33 -6 -14 12 -36
17 -79 16 -63 -1 -74 8 -66 51 6 30 32 48 68 48 l30 0 -19 -22z m113 16 c-3
-3 -12 -4 -19 -1 -8 3 -5 6 6 6 11 1 17 -2 13 -5z m883 -14 c0 -5 -9 -10 -21
-10 -11 0 -17 5 -14 10 3 6 13 10 21 10 8 0 14 -4 14 -10z m-791 -16 c24 -5
31 -12 31 -30 0 -30 -36 -64 -68 -64 -25 0 -25 -2 -6 68 4 13 2 22 -5 22 -5 0
-8 -8 -5 -17 5 -15 4 -16 -5 -3 -22 31 -7 37 58 24z m176 -4 c3 -5 -1 -10 -10
-10 -9 0 -13 5 -10 10 3 6 8 10 10 10 2 0 7 -4 10 -10z m8 -47 l5 -27 -19 25
-18 24 6 -24 c4 -18 2 -22 -8 -19 -8 2 -15 14 -17 26 -3 18 2 22 21 22 19 0
26 -6 30 -27z m-325 -43 c15 -24 -2 -27 -31 -6 -14 11 -15 15 -5 19 21 9 23 8
36 -13z m172 -9 c0 -10 -25 -21 -48 -21 -15 1 -14 3 2 15 22 17 46 20 46 6z
m230 -5 c0 -3 -4 -8 -10 -11 -5 -3 -10 -1 -10 4 0 6 5 11 10 11 6 0 10 -2 10
-4z m487 -62 c-3 -3 -12 -4 -19 -1 -8 3 -5 6 6 6 11 1 17 -2 13 -5z m-1130
-61 c-3 -10 -5 -4 -5 12 0 17 2 24 5 18 2 -7 2 -21 0 -30z m643 6 c0 -6 -4 -7
-10 -4 -5 3 -10 11 -10 16 0 6 5 7 10 4 6 -3 10 -11 10 -16z m-444 -26 c-12
-12 -86 -11 -86 0 0 8 15 11 46 9 25 -2 43 -7 40 -9z m283 -9 c-6 -8 -15 -12
-19 -9 -5 3 -6 -5 -3 -16 6 -21 4 -22 -54 -15 -34 4 -71 2 -86 -3 -17 -7 -27
-7 -27 -1 0 9 14 14 33 11 4 0 7 3 7 8 0 5 10 12 23 14 19 4 18 4 -5 6 -44 2
-33 17 14 20 23 1 39 -1 35 -5 -4 -4 -2 -13 4 -21 13 -15 39 -18 39 -3 0 5 -8
7 -17 4 -17 -5 -17 -5 -1 9 10 8 16 16 13 19 -3 2 9 3 25 0 25 -3 28 -7 19
-18z m-194 6 c3 -5 -3 -10 -15 -10 -12 0 -18 5 -15 10 3 6 10 10 15 10 5 0 12
-4 15 -10z m238 -10 c-8 -31 -23 -34 -23 -6 0 16 6 26 14 26 9 0 12 -7 9 -20z
m-293 0 c-10 -6 -11 -10 -2 -10 6 0 12 -5 12 -11 0 -8 -4 -8 -12 -1 -9 7 -17
6 -27 -5 -11 -12 -10 -14 4 -11 10 2 20 -3 22 -9 3 -7 -3 -13 -12 -13 -24 0
-75 29 -75 43 0 9 3 8 9 -1 12 -20 21 -19 32 1 6 9 14 15 19 12 5 -3 11 -1 15
5 3 5 12 10 18 10 7 0 6 -4 -3 -10z m56 -26 c-3 -9 -6 -21 -6 -27 0 -16 -20
14 -20 31 0 6 7 12 16 12 11 0 14 -5 10 -16z m-162 -46 c-3 -5 5 -6 19 -3 14
4 28 2 32 -5 9 -14 1 -23 -23 -25 -9 0 -22 -4 -29 -8 -6 -4 -10 0 -9 11 0 9
-5 16 -12 14 -8 -1 -11 2 -7 8 3 5 1 10 -5 10 -6 0 -9 4 -6 9 3 5 15 7 26 4
11 -3 17 -9 14 -15z m606 2 c0 -5 -8 -10 -17 -10 -15 0 -16 2 -3 10 19 12 20
12 20 0z m-567 -76 c-2 -7 -11 -10 -19 -7 -17 6 -11 20 10 20 8 0 12 -6 9 -13z
m40 -11 c-6 -15 -19 -17 -27 -4 -7 11 0 18 18 18 8 0 12 -6 9 -14z m333 -83
c-7 -8 -16 -22 -19 -30 -4 -8 -4 3 -1 25 6 38 6 39 -10 20 -17 -19 -17 -19 -5
4 6 14 17 30 23 37 17 19 29 -36 12 -56z m-363 31 c12 -11 -25 -46 -50 -47
-13 -1 -23 1 -24 5 0 3 -2 14 -4 24 -2 9 1 15 6 11 5 -3 7 -10 4 -15 -6 -8 6
-12 23 -6 11 3 9 31 -3 40 -5 5 1 5 15 2 14 -4 28 -10 33 -14z m268 -78 c-12
-20 -14 -14 -5 12 4 9 9 14 11 11 3 -2 0 -13 -6 -23z m-268 10 c-7 -2 -21 -2
-30 0 -10 3 -4 5 12 5 17 0 24 -2 18 -5z m2 -24 c9 -14 2 -20 -33 -25 -18 -3
-33 0 -38 7 -4 8 -3 9 4 5 7 -4 12 -3 12 3 0 8 15 15 42 20 4 0 10 -4 13 -10z
m396 -36 c-11 -21 -20 -35 -21 -31 0 12 33 78 38 74 2 -2 -6 -21 -17 -43z
m-363 -52 c10 -6 10 -10 -3 -21 -8 -7 -15 -10 -15 -7 0 3 -3 12 -6 21 -7 17 3
20 24 7z m-98 -20 c0 -5 -7 -11 -15 -15 -17 -6 -20 -32 -5 -39 6 -3 5 -4 -1
-3 -7 1 -16 12 -20 25 -6 14 -5 20 1 16 6 -4 13 1 16 9 7 17 24 22 24 7z m86
-23 c5 4 6 3 2 -2 -4 -5 -1 -18 7 -30 8 -11 15 -25 15 -31 0 -5 -5 -3 -10 5
-8 13 -10 13 -10 -1 0 -9 -11 -21 -25 -27 -24 -11 -25 -10 -25 24 0 33 2 36
23 31 20 -5 20 -5 5 7 -10 7 -18 19 -18 26 0 9 3 10 13 1 8 -6 18 -7 23 -3z
m-156 -60 c0 -5 5 -6 10 -3 6 3 10 2 10 -3 0 -16 -29 -22 -37 -9 -13 21 -12
36 3 30 8 -3 14 -9 14 -15z m-100 8 c0 -3 -4 -8 -10 -11 -5 -3 -10 -1 -10 4 0
6 5 11 10 11 6 0 10 -2 10 -4z m80 -42 c0 -2 -11 -3 -24 -2 -14 1 -23 5 -20 9
4 7 44 0 44 -7z"/>
<path d="M1216 2975 c4 -8 8 -15 10 -15 2 0 4 7 4 15 0 8 -4 15 -10 15 -5 0
-7 -7 -4 -15z"/>
<path d="M1020 2652 c0 -5 7 -17 15 -28 14 -18 14 -18 15 9 0 17 -5 27 -15 27
-8 0 -15 -4 -15 -8z"/>
<path d="M913 2574 c-7 -3 -10 -11 -7 -19 3 -7 1 -16 -5 -19 -14 -9 -2 -36 16
-36 10 0 14 7 10 20 -3 10 0 21 7 24 8 3 7 5 -1 5 -7 1 -10 8 -7 16 6 16 6 16
-13 9z"/>
<path d="M1448 2484 c-10 -9 4 -45 16 -41 17 5 20 47 3 47 -7 0 -16 -3 -19 -6z"/>
<path d="M1138 2447 c25 -26 28 -27 39 -11 24 33 16 45 -26 42 l-40 -3 27 -28z"/>
<path d="M1230 2466 c0 -9 39 -76 45 -76 2 0 18 19 36 43 l33 42 -37 -34 -36
-34 -20 34 c-12 19 -21 30 -21 25z"/>
<path d="M1192 2365 c-24 -34 -27 -45 -16 -49 8 -3 14 1 14 9 0 8 6 15 13 16
6 0 21 2 31 4 11 2 25 -4 32 -13 9 -12 15 -13 25 -6 25 20 57 22 80 6 12 -8
20 -11 18 -6 -9 20 -54 84 -60 84 -4 0 -12 -13 -19 -30 -21 -51 -33 -53 -61
-10 l-26 39 -31 -44z"/>
<path d="M961 2355 c-20 -37 -26 -43 -42 -35 -28 15 -31 12 -8 -11 19 -19 22
-19 38 -5 34 31 41 15 11 -26 -16 -22 -30 -50 -30 -60 0 -19 1 -19 27 2 26 20
28 21 41 3 9 -11 16 -14 19 -7 2 6 10 20 18 30 12 17 11 22 -12 46 -23 24 -24
28 -9 34 10 4 24 0 35 -10 10 -9 21 -13 24 -10 4 4 15 -3 25 -16 l19 -23 22
36 23 37 -24 29 c-13 17 -26 30 -29 30 -3 1 -14 -17 -24 -39 -10 -22 -21 -40
-26 -40 -4 0 -22 18 -41 40 l-33 40 -24 -45z m189 -19 c0 -2 -15 -6 -34 -8
-19 -2 -32 0 -30 4 5 8 64 12 64 4z m-141 -87 c3 -11 1 -12 -11 -2 -8 7 -19 9
-23 5 -5 -4 -5 -1 -1 6 9 16 28 11 35 -9z"/>
<path d="M1200 2308 c0 -7 5 -20 10 -28 8 -13 11 -12 24 5 21 28 20 35 -9 35
-14 0 -25 -6 -25 -12z"/>
<path d="M1145 2284 c-17 -27 -17 -27 6 -21 13 4 30 7 37 7 10 0 10 5 2 20
-14 27 -24 25 -45 -6z"/>
<path d="M1069 2237 c-33 -22 -87 -108 -109 -172 -10 -30 -10 -30 -4 5 3 19 8
51 11 70 l5 35 -61 -62 c-34 -33 -61 -66 -61 -71 0 -6 21 -12 48 -14 39 -3 47
-6 47 -23 0 -11 2 -19 5 -18 3 1 19 5 35 9 46 11 135 53 153 71 15 14 14 15
-8 8 -14 -4 -27 -11 -30 -15 -7 -11 -132 -61 -138 -56 -6 7 30 96 45 112 8 7
16 22 18 33 6 31 37 72 70 92 16 11 25 19 19 19 -6 0 -26 -10 -45 -23z m-131
-162 c2 -19 -1 -35 -5 -35 -6 0 -9 51 -4 68 3 10 7 -4 9 -33z"/>
<path d="M1205 2242 c48 -23 61 -37 69 -79 6 -28 4 -34 -21 -47 -17 -9 -22
-15 -12 -16 9 0 24 9 34 20 16 18 17 25 6 60 -13 43 -38 65 -86 75 -26 5 -24
4 10 -13z"/>
<path d="M1074 2183 c-19 -21 -32 -43 -29 -51 2 -7 1 -11 -4 -8 -12 8 -36 -22
-55 -68 -9 -21 -16 -40 -16 -43 0 -7 34 14 55 34 20 19 110 53 193 73 50 13
52 27 13 69 -25 26 -36 31 -76 31 -42 0 -51 -4 -81 -37z m62 10 c-1 -21 -22
-37 -36 -28 -16 10 -12 21 13 33 12 6 23 11 23 11 1 1 1 -7 0 -16z m72 -26
c-7 -14 -13 -17 -16 -9 -6 19 6 44 18 37 7 -4 6 -14 -2 -28z m-23 -27 c4 -6
-3 -11 -14 -11 -12 -1 -27 -2 -33 -3 -7 -1 -16 -5 -20 -11 -5 -6 -8 -3 -8 6 0
9 2 18 4 20 9 9 66 8 71 -1z m-85 -26 c0 -8 -19 -13 -24 -6 -3 5 1 9 9 9 8 0
15 -2 15 -3z"/>
<path d="M1332 2614 c3 -17 21 -21 26 -6 1 5 -4 12 -13 16 -11 4 -15 1 -13
-10z"/>
<path d="M1295 2600 c3 -5 11 -10 16 -10 6 0 7 5 4 10 -3 6 -11 10 -16 10 -6
0 -7 -4 -4 -10z"/>
<path d="M1330 2567 c0 -21 12 -28 27 -16 19 16 16 29 -7 29 -11 0 -20 -6 -20
-13z"/>
<path d="M1786 1733 c-6 -14 -5 -15 5 -6 7 7 10 15 7 18 -3 3 -9 -2 -12 -12z"/>
<path d="M1727 1713 c4 -11 8 -12 13 -3 6 9 9 9 13 1 4 -8 5 -8 3 0 -1 7 -9
13 -18 15 -11 1 -15 -3 -11 -13z"/>
<path d="M1525 1659 c-5 -14 -10 -17 -14 -10 -4 6 -16 -8 -30 -35 -12 -26 -20
-48 -18 -51 2 -2 10 10 17 27 7 16 16 27 21 25 4 -3 13 5 20 17 7 13 16 26 22
29 6 4 5 9 -1 13 -6 3 -14 -3 -17 -15z"/>
<path d="M1667 1651 c-4 -17 -3 -21 5 -13 5 5 8 16 6 23 -3 8 -7 3 -11 -10z"/>
<path d="M1550 1631 c0 -6 4 -13 10 -16 6 -3 7 1 4 9 -7 18 -14 21 -14 7z"/>
<path d="M1356 1731 c-12 -5 -15 -10 -9 -14 6 -4 16 0 23 8 14 17 13 17 -14 6z"/>
<path d="M725 1441 c-3 -5 -1 -12 5 -16 5 -3 10 1 10 9 0 18 -6 21 -15 7z"/>
<path d="M1102 1235 c0 -16 2 -22 5 -12 2 9 2 23 0 30 -3 6 -5 -1 -5 -18z"/>
<path d="M1385 1030 c-4 -6 -11 -7 -17 -4 -7 5 -8 2 -3 -6 6 -9 4 -12 -7 -8
-9 4 -15 0 -15 -8 0 -8 2 -14 3 -14 6 0 74 42 74 46 0 9 -29 3 -35 -6z"/>
<path d="M1390 1000 c-9 -6 -10 -10 -3 -10 6 0 15 5 18 10 8 12 4 12 -15 0z"/>
<path d="M1430 999 c0 -5 5 -7 10 -4 6 3 10 8 10 11 0 2 -4 4 -10 4 -5 0 -10
-5 -10 -11z"/>
<path d="M1614 976 c-10 -8 -16 -17 -13 -20 3 -3 14 3 24 14 21 23 17 26 -11
6z"/>
<path d="M1654 968 l-19 -23 23 19 c21 18 27 26 19 26 -2 0 -12 -10 -23 -22z"/>
<path d="M1684 966 c-10 -8 -16 -17 -13 -20 3 -3 14 1 25 8 10 8 16 17 13 20
-3 3 -14 -1 -25 -8z"/>
<path d="M282 3260 c0 -19 2 -27 5 -17 2 9 2 25 0 35 -3 9 -5 1 -5 -18z"/>
<path d="M262 3260 c0 -14 2 -19 5 -12 2 6 2 18 0 25 -3 6 -5 1 -5 -13z"/>
<path d="M1350 3180 c-8 -5 -12 -12 -9 -15 4 -3 12 1 19 10 14 17 11 19 -10 5z"/>
<path d="M667 3003 c-14 -13 -6 -33 13 -33 11 0 20 4 20 9 0 13 -26 32 -33 24z"/>
<path d="M536 2853 c-6 -14 -5 -15 5 -6 7 7 10 15 7 18 -3 3 -9 -2 -12 -12z"/>
<path d="M561 2852 c-6 -11 -6 -24 0 -33 5 -7 9 -9 10 -4 0 6 2 20 5 33 5 27
-2 29 -15 4z"/>
<path d="M570 2700 c-9 -6 -10 -10 -3 -10 6 0 15 5 18 10 8 12 4 12 -15 0z"/>
<path d="M1549 2667 c26 -28 31 -32 31 -19 0 4 -13 16 -28 26 l-27 19 24 -26z"/>
<path d="M1556 2511 c-3 -5 1 -14 8 -20 12 -10 13 -8 9 8 -6 23 -9 25 -17 12z"/>
<path d="M1541 2324 c0 -11 3 -14 6 -6 3 7 2 16 -1 19 -3 4 -6 -2 -5 -13z"/>
<path d="M2005 1990 c27 -12 43 -12 25 0 -8 5 -22 9 -30 9 -10 0 -8 -3 5 -9z"/>
<path d="M2194 1944 c-8 -20 -13 -39 -10 -42 3 -3 6 0 6 7 0 7 5 9 10 6 6 -3
13 1 16 9 3 9 12 16 20 16 8 0 14 9 14 20 0 23 -10 25 -29 8 -11 -10 -13 -10
-7 0 4 6 4 12 1 12 -3 0 -13 -16 -21 -36z"/>
<path d="M2150 1950 c-6 -11 -8 -20 -6 -20 3 0 10 9 16 20 6 11 8 20 6 20 -3
0 -10 -9 -16 -20z"/>
<path d="M2211 1791 c-7 -5 -9 -11 -4 -14 6 -4 19 0 29 8 15 11 16 14 4 15 -8
0 -21 -4 -29 -9z"/>
<path d="M582 1593 c-33 -96 -49 -193 -32 -193 5 0 10 16 10 35 0 35 12 46 27
23 4 -7 6 -23 4 -35 -2 -17 3 -23 16 -22 10 0 13 3 6 6 -21 8 -15 23 10 24 13
0 16 3 8 6 -21 8 -61 45 -61 56 0 5 11 2 25 -7 22 -14 25 -15 25 -1 0 8 -3 14
-7 13 -5 0 -15 2 -25 6 -13 6 -14 13 -6 39 21 70 37 131 34 134 -2 2 -17 -36
-34 -84z"/>
<path d="M2325 1622 c-5 -4 -11 -13 -13 -20 -1 -9 5 -8 23 4 14 9 25 18 25 20
0 7 -24 4 -35 -4z"/>
<path d="M1887 1566 c-3 -8 -3 -17 0 -20 4 -3 8 -18 9 -32 3 -32 1 -30 44 -38
35 -6 36 -5 53 39 18 51 20 50 -55 59 -34 4 -48 2 -51 -8z m43 -18 c0 6 7 12
16 12 18 0 10 -16 -14 -29 -14 -8 -18 -5 -19 12 -2 17 0 19 7 7 7 -10 10 -11
10 -2z"/>
<path d="M1881 1421 c-12 -8 -13 -19 -5 -56 5 -25 12 -46 17 -46 4 1 21 1 37
1 31 0 31 0 27 53 -3 50 -4 52 -32 55 -17 1 -36 -2 -44 -7z m59 -31 c0 -12 -9
-24 -22 -29 -30 -11 -38 -6 -38 25 0 20 5 24 30 24 23 0 30 -4 30 -20z"/>
<path d="M1774 1256 c-11 -44 25 -65 46 -27 14 27 13 31 -11 31 -11 0 -17 5
-14 10 3 6 2 10 -4 10 -6 0 -13 -11 -17 -24z"/>
<path d="M1740 1235 c-8 -9 -8 -15 -2 -15 12 0 26 19 19 26 -2 2 -10 -2 -17
-11z"/>
<path d="M1980 1191 c-6 -12 -7 -21 -1 -21 10 0 24 30 17 37 -2 3 -9 -5 -16
-16z"/>
<path d="M1515 1179 c-4 -6 -5 -12 -2 -15 2 -3 7 2 10 11 7 17 1 20 -8 4z"/>
<path d="M1777 1176 c-10 -8 -14 -17 -8 -20 5 -3 16 0 24 8 8 8 18 12 22 8 5
-4 5 -1 1 6 -9 15 -16 15 -39 -2z"/>
<path d="M2162 560 c0 -14 2 -19 5 -12 2 6 2 18 0 25 -3 6 -5 1 -5 -13z"/>
<path d="M1510 518 c0 -7 10 -14 21 -15 12 -1 20 -1 18 0 -2 2 -12 9 -21 16
-15 11 -18 11 -18 -1z"/>
<path d="M1696 523 c-3 -3 -6 -14 -6 -24 0 -28 65 -47 74 -22 4 9 1 11 -6 7
-8 -5 -9 -2 -5 9 3 9 3 16 -1 15 -4 -1 -17 3 -28 10 -12 6 -24 8 -28 5z m40
-25 c3 -4 -1 -5 -10 -4 -8 1 -18 5 -22 8 -3 4 1 5 10 4 8 -1 18 -5 22 -8z"/>
<path d="M1626 491 c-3 -5 3 -11 15 -14 16 -4 18 -3 8 9 -13 16 -16 17 -23 5z"/>
<path d="M1435 480 c-3 -5 -2 -10 4 -10 5 0 13 5 16 10 3 6 2 10 -4 10 -5 0
-13 -4 -16 -10z"/>
<path d="M2174 479 c-3 -6 -1 -16 5 -22 8 -8 11 -5 11 11 0 24 -5 28 -16 11z"/>
<path d="M1427 432 c-19 -21 -23 -52 -6 -52 6 0 8 7 5 16 -4 10 2 24 15 35 12
11 18 19 12 19 -5 0 -17 -8 -26 -18z"/>
<path d="M1567 403 c-4 -3 -7 -12 -7 -18 0 -18 62 -13 68 5 4 12 2 13 -9 3 -7
-7 -19 -13 -27 -13 -12 0 -12 3 -2 15 10 12 10 15 -2 15 -8 0 -18 -3 -21 -7z"/>
<path d="M2050 374 c0 -8 5 -12 10 -9 6 3 10 10 10 16 0 5 -4 9 -10 9 -5 0
-10 -7 -10 -16z"/>
<path d="M1710 345 c0 -9 6 -12 15 -9 8 4 12 10 9 15 -8 14 -24 10 -24 -6z"/>
<path d="M1270 229 c-7 -11 -10 -23 -7 -25 2 -2 9 7 15 21 14 30 7 33 -8 4z"/>
<path d="M1291 209 c-14 -42 -7 -49 9 -9 7 17 10 33 8 36 -3 3 -11 -9 -17 -27z"/>
<path d="M1172 210 c0 -14 2 -19 5 -12 2 6 2 18 0 25 -3 6 -5 1 -5 -13z"/>
<path d="M790 130 c0 -5 5 -10 11 -10 5 0 7 5 4 10 -3 6 -8 10 -11 10 -2 0 -4
-4 -4 -10z"/>
</g>
</svg>
