<?xml version="1.0" standalone="no"?>
<!DOCTYPE svg PUBLIC "-//W3C//DTD SVG 20010904//EN"
 "http://www.w3.org/TR/2001/REC-SVG-20010904/DTD/svg10.dtd">
<svg version="1.0" xmlns="http://www.w3.org/2000/svg"
 width="275.000000pt" height="369.000000pt" viewBox="0 0 275.000000 369.000000"
 preserveAspectRatio="xMidYMid meet">

<g transform="translate(0.000000,369.000000) scale(0.100000,-0.100000)"
fill="#000000" stroke="none">
<path d="M1061 3498 c-1 -10 -6 -18 -13 -18 -6 0 -9 -3 -5 -6 3 -3 -3 -15 -13
-26 -20 -22 -45 -15 -36 9 4 8 1 11 -5 8 -6 -4 -17 1 -24 11 -13 18 -14 18 -8
-3 3 -13 1 -23 -6 -23 -5 0 -8 -6 -5 -13 3 -8 -2 -20 -11 -27 -8 -7 -15 -19
-15 -27 0 -13 -3 -13 -15 -3 -8 7 -13 16 -10 20 3 4 -2 13 -9 20 -12 9 -17 7
-26 -9 -8 -17 -8 -19 4 -15 17 7 28 -9 20 -30 -8 -21 -24 -20 -24 2 -1 16 -1
16 -11 0 -5 -10 -19 -18 -29 -18 -11 0 -20 -6 -20 -14 0 -7 -8 -16 -17 -20
-10 -3 -24 -9 -32 -12 -10 -5 -12 -2 -8 9 3 9 0 22 -7 29 -7 7 -11 19 -8 27 3
9 0 11 -7 7 -7 -4 -18 -2 -26 4 -9 7 -15 8 -15 2 0 -5 6 -15 13 -21 16 -12 20
-68 7 -76 -5 -3 -7 -12 -4 -19 3 -8 1 -17 -5 -21 -6 -3 -11 -1 -11 6 0 7 -6 4
-14 -7 -19 -26 -29 -13 -16 22 9 27 9 28 -5 10 -8 -11 -15 -30 -15 -43 0 -27
-15 -30 -29 -6 -13 23 -20 15 -23 -28 -2 -35 -20 -73 -31 -63 -3 3 -3 -5 0
-18 6 -21 5 -22 -10 -9 -21 16 -22 3 -2 -23 13 -18 14 -17 21 8 7 28 24 36 24
10 0 -9 5 -12 11 -8 7 4 10 1 7 -7 -3 -8 -13 -13 -23 -11 -14 3 -16 -1 -11
-23 5 -20 4 -25 -6 -19 -27 17 -33 11 -30 -30 3 -40 2 -42 -32 -54 -20 -8 -35
-19 -34 -25 3 -14 -37 -57 -53 -57 -7 0 -9 -11 -5 -30 6 -33 58 -90 81 -90 13
0 55 -34 55 -44 0 -2 -9 -6 -20 -9 -15 -4 -20 -14 -20 -38 0 -18 -5 -48 -12
-66 -10 -27 -16 -32 -33 -27 -47 15 -49 12 -57 -65 -6 -55 -5 -77 4 -82 7 -4
17 -4 23 0 19 15 55 19 62 8 18 -27 32 -82 23 -87 -5 -3 -13 -24 -18 -45 -6
-27 -13 -39 -23 -36 -8 2 -21 5 -30 8 -12 3 -21 -8 -33 -38 -23 -57 -8 -99 35
-99 16 0 29 -4 29 -10 0 -9 -20 -14 -46 -11 -7 1 -15 -10 -18 -24 -4 -16 -16
-27 -33 -31 -29 -8 -62 -40 -63 -61 0 -7 -12 -15 -28 -19 -47 -10 -49 -12 -56
-40 -9 -35 14 -55 53 -48 33 7 64 -15 55 -39 -5 -14 -9 -15 -20 -6 -11 9 -16
6 -23 -12 -4 -13 -6 -29 -4 -35 8 -22 -16 -25 -27 -4 -11 20 -44 27 -54 11 -6
-10 -77 -8 -95 3 -7 5 -11 -5 -11 -33 0 -21 5 -41 11 -43 9 -3 9 -9 0 -25 -6
-12 -11 -40 -11 -63 0 -37 3 -43 30 -53 16 -6 30 -17 30 -24 0 -6 10 -19 22
-27 21 -15 21 -16 2 -23 -10 -4 -25 -13 -33 -20 -20 -20 -7 -82 23 -107 13
-12 29 -38 36 -58 6 -20 20 -48 31 -62 23 -29 59 -35 59 -10 0 14 51 39 67 32
4 -1 6 -16 4 -32 -2 -21 3 -34 19 -46 l23 -17 -20 -20 c-11 -11 -26 -22 -33
-25 -10 -3 -10 -8 1 -25 11 -19 10 -26 -11 -57 -22 -31 -26 -33 -41 -20 -15
13 -18 13 -33 -2 -28 -28 -17 -58 23 -61 42 -4 42 -3 34 -32 -6 -22 -7 -22
-19 -7 -8 12 -14 14 -19 6 -4 -6 1 -18 11 -26 16 -13 16 -15 3 -11 -13 4 -18
-2 -22 -26 -8 -45 19 -77 81 -98 51 -17 52 -17 62 2 13 23 40 25 40 4 0 -9 -7
-30 -16 -46 -8 -17 -14 -45 -12 -62 2 -27 8 -33 33 -37 30 -5 30 -5 30 -75 0
-39 4 -75 8 -82 4 -7 23 -15 42 -19 34 -6 44 -17 27 -28 -14 -8 -7 -62 12 -90
10 -16 26 -26 40 -26 14 0 28 -10 37 -27 8 -14 29 -32 47 -40 17 -7 32 -20 32
-28 0 -8 4 -15 10 -15 5 0 9 4 7 8 -3 13 72 94 82 88 5 -3 6 -16 4 -30 -4 -18
2 -29 21 -41 31 -21 56 -13 85 26 16 21 28 28 41 24 12 -4 23 1 33 15 7 11 17
17 22 12 4 -4 5 1 2 10 -4 11 -2 15 7 12 7 -3 34 19 59 48 85 96 100 108 90
69 -8 -29 14 -59 48 -66 28 -6 36 -3 65 29 39 43 51 45 64 10 13 -34 13 -34
-9 -34 -29 0 -43 -23 -27 -45 12 -17 18 -18 40 -7 14 6 26 19 26 27 0 26 29
75 45 75 8 0 16 3 16 8 1 4 3 22 5 41 4 35 27 60 55 61 9 0 28 9 42 20 14 11
29 20 33 20 4 0 16 8 26 17 14 13 21 14 30 5 22 -22 45 -12 92 38 26 27 53 50
60 50 7 0 21 9 30 19 17 19 17 20 -3 37 -18 16 -19 20 -5 35 8 9 16 26 19 38
5 28 14 41 27 41 5 0 7 -7 4 -17 -9 -23 28 -55 62 -51 25 3 27 7 32 53 7 74
23 38 26 -60 3 -105 15 -135 52 -135 50 0 60 17 72 125 22 197 29 245 34 254
3 4 7 54 11 111 8 126 25 158 25 48 0 -42 -4 -78 -9 -80 -8 -3 3 -137 13 -164
7 -18 36 -6 36 13 0 9 -6 13 -15 9 -9 -3 -15 0 -15 10 0 9 9 18 20 21 16 4 19
13 17 59 -2 29 1 55 7 57 5 2 10 34 12 71 2 70 9 90 23 67 6 -9 8 -3 7 16 -2
16 -6 36 -11 43 -5 9 -4 11 3 6 7 -4 12 -2 12 4 0 7 7 9 16 6 8 -3 12 -2 9 4
-3 6 -1 10 5 10 8 0 10 13 6 43 -11 77 -5 143 17 184 23 44 25 122 3 135 -9 5
-13 14 -10 20 4 6 8 43 8 82 1 39 4 76 8 81 8 12 17 75 31 205 2 19 -3 50 -12
68 -13 27 -13 35 -2 41 8 5 11 13 7 19 -3 6 0 13 6 15 9 4 7 6 -3 6 -13 1 -15
8 -10 33 5 22 2 38 -8 50 -10 11 -14 40 -13 92 0 42 -4 74 -8 71 -5 -3 -7 -12
-3 -20 3 -9 -1 -15 -10 -15 -9 0 -15 9 -15 23 -1 95 -4 107 -28 107 -28 0 -30
6 -8 27 10 10 12 18 5 22 -6 4 -7 20 -2 43 5 20 6 39 3 42 -12 12 -22 5 -22
-15 0 -12 -4 -17 -11 -13 -6 3 -9 15 -6 25 3 12 1 17 -6 12 -7 -4 -8 0 -3 13
4 10 10 33 13 49 l5 30 -27 -25 -27 -25 3 45 c2 34 -1 44 -11 42 -10 -2 -11 0
-3 10 6 7 13 37 14 65 4 53 -6 69 -38 64 -12 -2 -18 19 -14 42 1 5 -3 5 -9 2
-6 -4 -9 -13 -6 -21 3 -7 1 -16 -5 -19 -5 -4 -9 -3 -8 2 6 34 -10 42 -35 17
-9 -8 -20 -12 -26 -9 -12 8 -13 45 -1 45 5 0 11 9 14 19 3 15 1 18 -11 14 -11
-5 -14 -2 -9 10 4 11 2 14 -8 10 -8 -3 -12 -9 -9 -14 3 -5 0 -9 -6 -9 -6 0
-16 11 -22 25 -9 21 -17 25 -39 21 -38 -6 -49 -14 -49 -38 0 -13 -5 -18 -14
-15 -9 4 -16 -3 -20 -19 -4 -13 -11 -24 -17 -24 -6 0 -8 9 -4 21 4 12 3 19 -2
16 -5 -3 -22 5 -37 18 -16 14 -33 22 -38 19 -14 -9 -46 24 -43 44 1 9 0 11 -2
5 -3 -7 -8 -13 -12 -13 -14 0 -71 31 -78 43 -5 7 -17 12 -28 12 -20 0 -23 9
-26 74 -1 24 -2 24 -17 -5 -9 -17 -17 -24 -20 -16 -2 7 2 20 10 30 12 15 11
16 -4 3 -10 -7 -18 -24 -18 -37 0 -14 -6 -24 -14 -24 -10 0 -13 8 -10 28 3 18
2 23 -5 13 -5 -7 -13 -11 -19 -7 -6 3 -12 0 -15 -6 -7 -21 -18 -3 -19 31 -1
17 -4 31 -7 31 -4 0 -7 9 -8 20 -2 17 1 18 18 10 10 -6 19 -18 19 -28 0 -15 2
-15 10 -2 12 19 13 33 1 25 -5 -3 -18 8 -27 25 l-18 29 -17 -25 c-9 -14 -14
-36 -12 -47 5 -21 5 -21 -13 -4 -14 13 -16 20 -7 25 8 5 8 11 -1 24 -7 10 -16
15 -19 11 -11 -10 -8 -25 3 -18 6 3 10 2 10 -3 0 -6 -8 -13 -17 -16 -10 -4
-14 -4 -10 0 3 4 -3 15 -15 25 -19 17 -18 23 3 21 10 -2 5 32 -6 40 -5 4 -13
2 -17 -5 -6 -9 -10 -9 -17 2 -5 8 -17 11 -32 6 l-24 -7 24 18 c23 17 23 18 5
25 -39 15 -44 11 -44 -42 0 -31 -4 -48 -10 -44 -5 3 -10 14 -10 25 0 20 -29
35 -42 22 -5 -5 -10 -33 -11 -61 0 -41 -4 -51 -18 -51 -24 0 -32 59 -10 85 16
20 16 20 -6 1 -20 -16 -25 -17 -39 -5 -10 8 -20 12 -23 9 -3 -3 -10 9 -15 25
-4 17 -12 39 -17 50 -6 17 -8 17 -8 3z m239 -28 c0 -5 -5 -10 -11 -10 -5 0 -7
5 -4 10 3 6 8 10 11 10 2 0 4 -4 4 -10z m20 -60 c0 -5 -2 -10 -4 -10 -3 0 -8
5 -11 10 -3 6 -1 10 4 10 6 0 11 -4 11 -10z m-181 -39 c0 -10 -2 -12 -6 -3 -2
6 -9 10 -14 6 -5 -3 -9 5 -9 17 0 18 2 19 15 9 8 -7 15 -20 14 -29z m217 -9
c-4 -3 -11 0 -16 8 -15 24 -11 33 6 15 9 -9 13 -19 10 -23z m-348 -152 c2 -32
0 -41 -10 -38 -7 3 -44 15 -83 28 -63 21 -67 24 -45 32 29 11 110 26 125 23 6
-1 11 -21 13 -45z m56 44 c9 -3 16 -14 16 -23 0 -11 3 -12 8 -4 13 20 181 -3
301 -41 168 -54 282 -97 310 -116 14 -9 48 -31 75 -47 57 -36 232 -206 290
-283 23 -30 61 -90 85 -133 l43 -79 -21 -22 c-34 -36 -27 -69 24 -114 l45 -40
4 -113 c2 -63 -1 -157 -6 -209 -10 -92 -11 -96 -49 -131 -36 -33 -38 -38 -29
-68 5 -18 13 -38 19 -44 6 -8 -3 -37 -26 -84 -29 -61 -39 -73 -59 -73 -31 0
-64 -33 -63 -62 1 -21 2 -21 6 -3 7 26 33 55 50 55 18 0 17 -4 -14 -38 -16
-17 -38 -43 -49 -59 -12 -15 -38 -33 -58 -39 -35 -11 -36 -11 -20 7 10 11 12
19 6 19 -13 0 -42 -51 -42 -74 0 -15 -29 -36 -49 -36 -13 0 -42 55 -50 94 -6
25 -12 30 -36 31 -67 2 -88 5 -82 11 3 4 28 7 54 9 l48 2 -3 39 c-2 21 -8 43
-13 48 -5 6 -4 15 2 22 8 9 8 23 1 46 -13 41 -20 99 -27 201 -4 71 -3 82 19
110 24 33 43 66 34 57 -17 -15 -97 -132 -119 -175 -21 -39 -26 -62 -24 -105 2
-48 2 -50 -4 -12 l-6 42 -42 -52 c-47 -58 -51 -69 -27 -89 35 -29 65 -131 43
-145 -6 -3 -16 0 -21 7 -8 11 -9 11 -5 -2 6 -19 -1 -30 -30 -46 -29 -16 -36
-16 -27 0 6 9 4 9 -7 1 -8 -6 -25 -10 -39 -9 -14 1 -36 -4 -48 -12 -13 -8 -26
-12 -30 -9 -3 3 -14 -2 -25 -11 -15 -13 -18 -14 -12 -3 6 10 1 9 -13 -3 -18
-17 -23 -17 -41 -5 -12 8 -18 19 -13 24 4 5 -4 -1 -18 -13 -14 -12 -38 -25
-55 -29 -28 -7 -29 -6 -16 12 8 10 2 7 -14 -8 -36 -34 -29 -43 18 -23 20 8 61
15 90 15 38 0 68 7 101 25 26 14 64 25 85 25 21 0 52 5 70 11 24 8 35 8 46 -1
8 -7 13 -15 10 -19 -2 -4 5 -20 17 -37 12 -17 17 -21 13 -9 -4 11 -8 25 -9 31
-1 7 -8 19 -15 28 -7 9 -12 16 -10 17 40 9 45 5 47 -38 2 -51 -21 -93 -50 -93
-11 0 -28 -4 -38 -10 -10 -5 -39 -11 -64 -12 -32 -1 -44 -4 -36 -12 16 -16 12
-26 -11 -26 -16 0 -20 5 -16 20 3 11 1 20 -4 20 -5 0 -9 5 -9 11 0 6 10 8 23
5 l22 -6 -22 11 c-19 10 -28 8 -57 -15 -30 -23 -44 -26 -110 -26 -67 0 -76 2
-76 19 0 27 72 51 151 51 60 0 69 3 97 30 18 16 28 30 24 30 -5 0 -19 -11 -32
-25 -21 -22 -32 -25 -90 -25 -37 0 -87 -7 -111 -16 -24 -9 -77 -17 -118 -18
-57 -2 -77 -7 -87 -20 -17 -24 -202 -33 -211 -10 -11 30 -20 12 -15 -31 5 -50
-1 -55 -35 -23 -24 22 -30 52 -13 63 5 3 7 12 4 19 -3 8 2 16 13 19 16 4 15 6
-4 12 -18 6 -23 15 -23 41 0 19 0 36 0 39 0 3 3 5 7 4 3 0 10 7 15 16 6 10 17
14 31 10 19 -4 19 -4 -2 7 -19 10 -25 10 -28 1 -6 -18 -33 -3 -33 18 0 21 16
26 22 7 3 -8 12 -6 29 6 23 17 23 18 2 11 -18 -5 -23 -2 -23 11 0 14 -2 15
-16 3 -15 -12 -16 -11 -11 6 3 11 9 34 13 50 4 17 18 50 31 74 26 47 21 61
-21 61 -18 0 -18 1 -1 20 14 15 15 20 4 20 -11 0 -11 2 1 11 13 9 13 10 0 6
-8 -2 -14 -9 -13 -16 2 -6 -9 -14 -23 -17 -33 -8 -50 9 -57 59 -6 37 -5 38 21
35 16 -2 26 -8 24 -16 -1 -8 2 -11 8 -7 7 4 7 12 0 25 -12 23 -30 35 -30 21 0
-6 -7 -11 -15 -11 -12 0 -15 16 -15 83 0 113 1 114 91 92 69 -17 138 -44 113
-45 -6 0 -11 -7 -11 -15 0 -18 -1 -18 31 -5 36 13 43 -6 15 -37 -22 -24 -22
-25 -4 -18 39 15 70 16 89 2 19 -14 19 -15 0 -45 -10 -18 -24 -32 -31 -32 -7
0 -13 -5 -13 -11 0 -16 -29 -41 -40 -34 -5 3 -10 -1 -10 -9 0 -9 3 -16 8 -16
11 0 77 63 96 93 17 24 24 26 79 18 13 -2 -4 -54 -31 -94 -32 -48 -97 -87
-145 -87 -21 0 -37 -3 -37 -7 0 -5 -16 -24 -35 -44 -19 -20 -32 -39 -29 -42 8
-8 44 4 39 13 -3 4 8 22 24 39 21 23 28 26 27 13 -1 -13 9 -18 47 -22 l48 -5
-21 -22 c-26 -28 -30 -29 -23 -3 4 16 1 20 -18 19 -13 -1 -35 -5 -49 -9 l-25
-8 25 -2 c23 -1 23 -2 5 -10 l-20 -9 20 -1 c20 -1 20 -1 1 -15 -16 -12 -17
-18 -8 -27 9 -9 12 -8 12 4 0 23 71 31 88 9 12 -14 12 -12 7 12 -4 15 -3 27 1
27 5 0 27 16 48 35 22 19 43 35 47 35 15 0 28 36 22 58 -3 13 -13 22 -24 22
-25 0 -32 15 -14 30 8 7 22 36 31 65 13 48 34 71 57 66 12 -2 62 26 76 43 19
23 31 20 31 -8 0 -17 -12 -34 -36 -52 -35 -27 -36 -28 -13 -36 12 -5 30 -7 38
-5 10 3 7 5 -6 6 -30 1 -29 15 2 35 14 9 25 23 25 31 0 8 6 15 13 15 6 0 29
25 50 55 39 57 57 68 57 38 0 -14 2 -15 9 -5 4 7 14 12 22 10 8 -2 14 3 13 10
-1 6 -2 18 -2 26 -1 8 -11 17 -21 21 -14 4 -18 12 -14 23 6 15 3 14 -15 -2
-12 -11 -25 -16 -29 -13 -3 4 -1 7 5 7 7 0 12 10 11 23 0 12 2 36 5 54 4 21 0
37 -10 48 -13 13 -13 15 -1 15 8 0 17 7 20 14 4 10 1 13 -8 9 -20 -7 -32 26
-14 37 7 5 18 5 25 -1 8 -7 15 -6 19 1 4 7 18 9 34 6 15 -4 21 -3 14 2 -10 6
-10 17 -2 47 14 51 15 141 2 242 -19 143 -118 294 -277 421 -102 82 -132 97
-121 63 3 -10 -1 -24 -10 -31 -13 -10 -15 -9 -15 9 0 11 1 24 3 27 1 4 -8 10
-20 15 -19 7 -23 16 -23 52 0 56 8 65 44 51z m-38 -132 c2 -9 8 -18 13 -20 6
-2 11 -15 11 -28 0 -13 4 -24 9 -24 22 0 23 -42 1 -62 l-21 -20 -20 23 c-11
13 -18 30 -17 38 5 22 23 10 20 -12 -3 -13 2 -18 14 -15 24 4 28 23 9 41 -8 9
-15 23 -15 31 0 9 -4 16 -9 16 -13 0 -24 37 -16 51 8 13 18 4 21 -19z m-398
-7 c-3 -3 -9 2 -12 12 -6 14 -5 15 5 6 7 -7 10 -15 7 -18z m282 -60 c8 0 20
-10 26 -23 6 -13 21 -32 33 -43 28 -26 27 -31 -11 -52 -18 -10 -44 -26 -57
-36 l-24 -19 20 -26 c12 -14 29 -54 39 -88 15 -49 25 -65 51 -81 20 -11 33
-27 33 -39 0 -12 8 -27 18 -34 15 -11 11 -13 -28 -11 -32 2 -53 10 -68 25 -13
13 -28 19 -39 16 -15 -5 -16 -4 -3 5 13 9 11 13 -10 28 -14 10 -29 18 -35 19
-5 0 -16 2 -22 2 -7 1 -13 8 -13 16 0 14 -57 66 -73 66 -5 0 3 -14 18 -32 17
-20 23 -34 16 -36 -9 -3 -8 -9 3 -21 13 -14 12 -17 -9 -27 -22 -11 -24 -9 -30
17 -4 15 -14 38 -24 51 -32 42 -12 196 23 182 17 -6 29 -32 20 -45 -3 -5 -1
-9 4 -9 15 0 27 32 30 78 1 12 9 22 17 22 16 0 34 29 28 46 -2 6 6 14 19 18
18 5 20 8 9 15 -7 5 -10 14 -7 20 4 6 13 8 19 4 7 -4 19 -8 27 -8z m1020 -25
c0 -5 -4 -10 -10 -10 -5 0 -10 5 -10 10 0 6 5 10 10 10 6 0 10 -4 10 -10z
m174 -53 c4 -19 3 -26 -4 -22 -5 3 -10 18 -10 32 0 32 5 28 14 -10z m101 23
c3 -5 1 -10 -4 -10 -6 0 -11 5 -11 10 0 6 2 10 4 10 3 0 8 -4 11 -10z m-25
-10 c0 -5 -4 -10 -10 -10 -5 0 -10 5 -10 10 0 6 5 10 10 10 6 0 10 -4 10 -10z
m-940 -35 c0 -8 -2 -15 -4 -15 -2 0 -6 7 -10 15 -3 8 -1 15 4 15 6 0 10 -7 10
-15z m-68 -2 c-10 -4 -10 -8 0 -21 12 -15 11 -16 -4 -3 -10 7 -18 17 -18 22 0
5 8 9 18 8 11 0 12 -2 4 -6z m-188 -48 c-8 -19 -74 -35 -74 -17 0 11 54 39 67
35 6 -3 9 -11 7 -18z m91 15 c-3 -5 0 -8 7 -5 14 5 46 -11 38 -18 -9 -8 -130
-13 -130 -5 0 10 51 37 73 38 10 0 15 -4 12 -10z m101 -26 c21 -19 34 -33 27
-29 -8 4 -12 -4 -10 -25 1 -16 5 -30 9 -30 3 0 4 -9 1 -20 -3 -11 0 -20 6 -20
6 0 11 -4 11 -10 0 -5 -7 -10 -16 -10 -8 0 -12 -4 -9 -10 3 -5 0 -10 -8 -10
-8 0 -23 -11 -33 -25 -10 -14 -22 -25 -25 -25 -12 0 0 86 21 145 19 55 19 61
5 70 -9 6 -24 15 -33 22 -15 11 -15 12 -1 13 9 0 33 -16 55 -36z m-164 -35
c12 -6 18 -7 14 -1 -11 18 67 11 81 -6 9 -12 12 -13 11 -3 -2 7 3 16 10 18 6
3 12 -2 12 -11 0 -21 -30 -110 -40 -116 -4 -3 -9 -12 -12 -20 -3 -11 -9 -6
-21 15 -9 17 -16 25 -17 19 0 -20 -43 -24 -62 -7 -23 20 -24 0 -1 -22 16 -16
15 -17 -3 -13 -10 2 -19 8 -20 13 0 6 -6 24 -13 40 -19 45 -22 73 -10 80 19
13 34 -12 18 -31 -8 -10 -9 -15 -2 -11 7 5 13 -1 16 -15 2 -13 5 1 6 30 1 56
2 57 33 41z m218 -30 c0 -5 -4 -9 -10 -9 -5 0 -10 7 -10 16 0 8 5 12 10 9 6
-3 10 -10 10 -16z m49 -35 c7 5 9 1 5 -9 -5 -11 -10 -13 -17 -6 -5 5 -17 7
-25 3 -14 -5 -15 -4 -2 10 9 10 17 12 21 6 4 -6 12 -8 18 -4z m-226 -81 c-7
-2 -21 -2 -30 0 -10 3 -4 5 12 5 17 0 24 -2 18 -5z m45 -43 c-7 -10 -14 -17
-17 -15 -4 4 18 35 25 35 2 0 -1 -9 -8 -20z m-308 -30 c0 -5 -5 -10 -11 -10
-5 0 -7 5 -4 10 3 6 8 10 11 10 2 0 4 -4 4 -10z m315 -20 c-3 -5 -11 -10 -16
-10 -6 0 -7 5 -4 10 3 6 11 10 16 10 6 0 7 -4 4 -10z m-180 -19 c-3 -6 -11
-11 -16 -11 -5 0 -4 6 3 14 14 16 24 13 13 -3z m151 -36 c-4 -13 -2 -14 14 -5
14 7 32 8 54 2 19 -6 55 -7 80 -5 41 5 51 2 75 -21 20 -19 27 -35 25 -54 -1
-15 3 -30 9 -34 7 -4 12 -15 12 -25 0 -14 8 -18 37 -19 48 -1 56 -9 26 -25
-29 -15 -38 -28 -38 -58 0 -30 -12 -20 -16 14 -1 14 3 25 9 25 7 0 -8 18 -33
40 -25 21 -45 47 -45 57 0 12 -19 28 -55 45 -46 24 -55 26 -63 13 -4 -8 -13
-15 -20 -15 -7 0 -6 4 3 10 8 5 10 10 5 10 -6 0 -19 -6 -30 -14 -11 -7 -29
-16 -40 -19 -13 -3 -9 -5 13 -6 51 -2 37 -21 -15 -21 -34 0 -44 3 -33 10 8 5
11 12 7 16 -9 10 -68 11 -74 2 -2 -5 3 -8 11 -8 23 0 19 -17 -5 -23 -15 -4
-19 -11 -15 -25 8 -24 -20 -59 -55 -67 -22 -5 -27 -2 -33 17 -6 23 3 34 50 65
11 7 2 5 -20 -3 -21 -8 -40 -13 -42 -11 -3 3 18 25 46 50 50 45 56 75 6 36
-28 -22 -34 -15 -12 14 8 11 41 23 82 31 90 18 87 18 80 1z m1124 -69 c0 -8
-4 -18 -10 -21 -5 -3 -10 -17 -10 -31 0 -14 -4 -22 -10 -19 -13 8 -13 41 0 66
12 22 30 25 30 5z m-965 -26 c3 -5 -1 -10 -9 -10 -9 0 -16 5 -16 10 0 6 4 10
9 10 6 0 13 -4 16 -10z m138 -16 c19 -7 23 -34 5 -34 -7 0 -22 12 -32 27 -12
17 -14 23 -5 19 8 -3 22 -9 32 -12z m-122 -21 c48 -22 49 -32 4 -28 -19 2 -35
0 -35 -5 0 -4 -8 -7 -17 -6 -11 0 -19 -7 -21 -20 -3 -18 2 -22 23 -20 14 0 23
6 21 12 -2 6 2 11 10 11 7 0 11 -4 8 -9 -3 -4 6 -8 20 -8 32 0 43 -18 22 -38
-13 -14 -20 -14 -36 -4 -26 16 -35 15 -21 -2 18 -22 -32 -50 -77 -42 -39 6
-65 25 -44 33 6 3 12 9 12 14 0 5 -15 3 -34 -5 -30 -12 -37 -12 -46 -1 -16 19
-4 35 25 35 13 0 27 5 30 10 3 6 11 10 16 10 6 0 8 -4 5 -9 -3 -5 1 -12 10
-15 12 -5 15 1 12 26 -2 17 -10 33 -18 35 -13 4 -13 3 0 -6 25 -18 3 -23 -29
-7 -32 17 -56 22 -32 7 10 -7 7 -9 -12 -8 -35 2 -29 18 14 39 45 24 140 24
190 1z m-301 -123 c0 -5 -4 -10 -9 -10 -6 0 -9 -18 -8 -40 1 -26 -5 -46 -16
-57 -11 -11 -17 -13 -17 -5 0 7 -7 12 -16 12 -14 0 -14 3 -4 15 8 9 8 15 2 15
-6 0 -12 -6 -15 -12 -3 -10 -7 -10 -19 -1 -8 7 -17 10 -21 7 -3 -3 -3 4 0 15
8 33 123 89 123 61z m10 -35 c-7 -9 -15 -13 -17 -11 -7 7 7 26 19 26 6 0 6 -6
-2 -15z m347 -21 c13 -14 21 -29 18 -34 -3 -4 2 -13 10 -20 9 -7 13 -22 10
-36 -3 -13 -7 -35 -10 -49 -4 -18 -12 -25 -29 -25 -12 0 -31 -9 -41 -20 -10
-11 -29 -20 -42 -20 -13 0 -34 -9 -45 -20 -16 -15 -24 -17 -29 -8 -7 10 -11
10 -21 0 -6 -6 -18 -12 -26 -12 -20 0 -44 28 -36 41 4 7 3 9 -3 6 -14 -9 -24
18 -16 40 7 17 5 16 -22 -1 -22 -14 -27 -15 -22 -4 4 12 -4 15 -43 14 -33 -1
-46 -5 -43 -13 3 -7 11 -13 19 -13 14 0 20 -20 7 -20 -5 0 -18 -3 -30 -6 -17
-5 -23 -2 -23 10 0 19 -5 20 -30 6 -13 -7 -19 -6 -24 5 -4 11 -13 14 -31 9
-16 -4 -25 -2 -25 6 0 8 -10 9 -30 5 -37 -8 -40 8 -5 31 19 12 24 22 19 37 -3
10 0 30 6 43 15 28 49 24 117 -13 46 -26 56 -39 23 -30 -21 5 -25 0 -12 -21 5
-7 16 -10 25 -6 10 3 17 1 17 -5 0 -6 7 -11 15 -11 8 0 15 7 15 15 0 9 -6 12
-17 8 -12 -5 -15 -2 -10 10 3 9 1 19 -4 23 -7 4 -7 10 -1 16 6 6 8 17 5 24 -6
17 13 19 21 2 4 -7 4 -3 2 10 -2 12 -3 22 -1 22 2 0 10 3 18 6 12 4 15 -1 12
-22 -3 -28 13 -64 28 -64 5 0 17 10 28 23 l19 22 30 -34 c16 -19 33 -32 36
-28 4 4 2 7 -4 7 -7 0 -12 3 -12 8 0 4 21 6 47 5 41 -1 53 4 81 30 30 29 32
30 32 9 0 -25 15 -29 24 -6 3 8 -1 23 -10 31 -14 14 -21 15 -51 4 -25 -9 -38
-10 -46 -2 -7 7 -3 13 14 19 13 5 31 12 39 15 26 10 32 8 57 -19z m-268 -34
c-14 -19 -25 -26 -30 -19 -10 17 2 51 16 45 8 -3 16 3 20 12 5 11 9 13 12 5 2
-7 -6 -26 -18 -43z m104 41 c4 -1 7 -5 7 -9 0 -13 -47 -12 -58 1 -10 12 -1 13
51 8z m7 -51 c0 -5 -4 -10 -9 -10 -6 0 -13 5 -16 10 -3 6 1 10 9 10 9 0 16 -4
16 -10z m30 0 c0 -5 -2 -10 -4 -10 -3 0 -8 5 -11 10 -3 6 -1 10 4 10 6 0 11
-4 11 -10z m245 -90 c3 -5 1 -10 -4 -10 -6 0 -11 5 -11 10 0 6 2 10 4 10 3 0
8 -4 11 -10z m-75 -74 c0 -3 -4 -8 -10 -11 -5 -3 -10 -1 -10 4 0 6 5 11 10 11
6 0 10 -2 10 -4z m870 -151 c0 -2 -11 -21 -25 -41 -22 -33 -25 -34 -25 -14 0
23 26 60 42 60 4 0 8 -2 8 -5z m-476 -92 c21 -106 17 -115 -39 -103 -30 7 -24
13 20 23 12 3 7 5 -12 6 -33 1 -33 1 -30 51 2 47 4 50 29 50 21 0 28 -6 32
-27z m-995 -102 c-12 -17 -20 -33 -17 -37 4 -3 11 4 18 15 6 12 15 21 21 21 6
0 1 -15 -10 -33 -11 -19 -18 -37 -14 -41 4 -4 13 4 20 16 13 21 13 21 7 -12
-4 -19 -10 -52 -13 -72 l-6 -37 -31 15 c-49 24 -77 113 -36 115 10 0 12 3 5 6
-23 9 -14 25 10 18 16 -5 18 -4 7 4 -12 8 -12 13 4 30 10 11 22 18 27 16 4 -3
11 0 14 6 4 5 9 8 12 5 3 -2 -5 -18 -18 -35z m881 -1 c-14 -4 -29 -4 -35 -1
-5 3 1 8 15 11 14 4 29 4 35 1 5 -3 -1 -8 -15 -11z m50 -81 c0 -38 -4 -58 -10
-54 -5 3 -10 33 -10 66 0 38 4 58 10 54 6 -3 10 -33 10 -66z m-1387 47 c12 -8
38 -17 58 -20 29 -5 38 -12 43 -32 5 -19 13 -25 29 -23 12 1 38 -5 57 -14 19
-8 43 -18 53 -21 12 -4 17 -16 17 -46 0 -33 -3 -40 -20 -40 -10 0 -24 -9 -30
-21 -15 -28 12 -73 39 -64 16 5 19 0 19 -36 1 -23 3 -43 5 -45 2 -2 15 6 28
19 49 48 63 50 98 12 17 -19 31 -37 31 -40 0 -3 -34 -5 -77 -5 -90 0 -94 -9
-4 -12 48 -1 59 -4 49 -14 -7 -6 -27 -14 -43 -17 -25 -5 -40 1 -72 26 -23 18
-67 48 -99 67 -101 62 -196 197 -208 298 -6 47 -5 48 27 28z m1466 -2 c-5 -7
-19 -10 -30 -7 -34 9 -31 21 6 20 25 -1 32 -4 24 -13z m2 -71 c11 -13 11 -15
1 -9 -8 5 -22 1 -34 -11 -21 -18 -18 -5 5 25 12 15 12 15 28 -5z m589 -4 c0
-4 -7 -6 -15 -3 -8 4 -15 10 -15 15 0 4 7 6 15 3 8 -4 15 -10 15 -15z m-1664
-50 c18 -37 18 -39 -8 -40 l-23 -2 23 -4 c45 -9 20 -23 -42 -23 -63 0 -65 1
-71 30 -10 45 1 65 43 76 42 11 56 5 78 -37z m954 -24 c-7 -9 -15 -13 -17 -11
-7 7 7 26 19 26 6 0 6 -6 -2 -15z m140 -29 c0 -3 -4 -8 -10 -11 -5 -3 -10 -1
-10 4 0 6 5 11 10 11 6 0 10 -2 10 -4z m-1230 -36 c0 -5 -2 -10 -4 -10 -3 0
-8 5 -11 10 -3 6 -1 10 4 10 6 0 11 -4 11 -10z m66 -4 c10 -8 16 -18 12 -22
-5 -4 -18 1 -30 12 l-23 19 23 -26 c26 -30 28 -56 5 -81 -26 -29 -34 -21 -16
17 16 34 16 36 -6 59 -17 18 -19 25 -9 29 20 8 23 8 44 -7z m84 6 c0 -5 -8
-16 -19 -26 -16 -14 -20 -15 -30 -2 -10 11 -8 17 6 25 22 13 43 14 43 3z m80
-87 c0 -3 -4 -4 -8 -1 -5 3 -8 -5 -8 -17 1 -13 -6 -23 -16 -25 -15 -3 -18 4
-18 50 l0 53 25 -27 c14 -15 25 -30 25 -33z m1021 14 c13 -26 7 -24 -22 7 -17
19 -19 23 -6 18 10 -3 22 -15 28 -25z m59 11 c12 -8 12 -12 2 -18 -10 -7 -8
-14 8 -34 11 -15 20 -29 20 -32 0 -4 12 -24 26 -45 l26 -39 -31 -33 c-32 -33
-51 -35 -33 -3 7 12 6 32 -4 63 -7 24 -11 48 -8 53 3 4 0 8 -5 8 -6 0 -11 11
-11 24 0 14 -4 28 -10 31 -12 7 -14 35 -2 35 4 0 14 -5 22 -10z m-640 -55 c0
-41 -33 -65 -82 -61 -24 2 -45 4 -47 5 -3 1 0 6 7 13 15 15 16 32 2 23 -16
-10 -12 11 5 25 8 6 22 9 32 6 10 -3 25 -1 33 4 28 18 50 12 50 -15z m758 -35
c34 -28 62 -54 63 -58 0 -4 2 -14 4 -22 17 -74 17 -80 0 -86 -12 -5 -28 5 -53
30 -36 36 -36 38 -18 52 17 12 17 14 3 14 -9 0 -25 17 -36 39 -11 21 -27 41
-35 44 -15 6 -12 37 3 37 3 0 34 -23 69 -50z m-158 16 c0 -24 -32 -56 -55 -56
-42 0 -79 59 -37 61 26 1 53 7 59 13 8 8 33 -5 33 -18z m-400 4 c0 -5 -4 -10
-10 -10 -5 0 -10 5 -10 10 0 6 5 10 10 10 6 0 10 -4 10 -10z m150 -11 c0 -25
-33 -22 -38 4 -2 12 3 17 17 17 15 0 21 -6 21 -21z m645 11 c3 -5 1 -10 -4
-10 -6 0 -11 5 -11 10 0 6 2 10 4 10 3 0 8 -4 11 -10z m-1321 -12 c4 3 43 7
87 8 58 1 79 -2 79 -11 0 -7 7 -18 15 -25 9 -7 13 -15 10 -18 -7 -8 -225 -10
-226 -3 0 4 -2 18 -4 33 -3 24 -1 27 14 18 10 -5 21 -6 25 -2z m790 -3 c3 -8
1 -15 -4 -15 -6 0 -10 7 -10 15 0 8 2 15 4 15 2 0 6 -7 10 -15z m-919 -5 c3
-5 -1 -10 -9 -10 -9 0 -16 5 -16 10 0 6 4 10 9 10 6 0 13 -4 16 -10z m655 -15
c0 -9 -6 -12 -15 -9 -8 4 -15 10 -15 15 0 5 7 9 15 9 8 0 15 -7 15 -15z m78
-13 c3 -9 -2 -13 -14 -10 -9 1 -19 9 -22 16 -3 9 2 13 14 10 9 -1 19 -9 22
-16z m-720 -70 c3 -65 1 -72 -16 -72 -17 0 -20 8 -21 76 -1 67 0 75 16 72 15
-3 19 -16 21 -76z m792 63 c0 -8 -6 -15 -14 -15 -8 0 -16 7 -20 15 -4 10 1 15
14 15 11 0 20 -7 20 -15z m-156 -16 c-6 -11 -24 -2 -24 11 0 5 7 7 15 4 8 -4
12 -10 9 -15z m-404 -9 c0 -5 -2 -10 -4 -10 -3 0 -8 5 -11 10 -3 6 -1 10 4 10
6 0 11 -4 11 -10z m490 -6 c0 -9 -7 -14 -17 -12 -25 5 -28 28 -4 28 12 0 21
-6 21 -16z m60 -14 c0 -19 -11 -26 -23 -14 -8 8 3 34 14 34 5 0 9 -9 9 -20z
m-620 0 c0 -5 -4 -10 -10 -10 -5 0 -10 5 -10 10 0 6 5 10 10 10 6 0 10 -4 10
-10z m402 -36 c-6 -35 -12 -29 -12 14 0 23 3 32 9 24 4 -7 6 -24 3 -38z m-326
16 c0 -11 -6 -20 -13 -20 -7 0 -13 9 -13 20 0 11 6 20 13 20 7 0 13 -9 13 -20z
m47 0 c-3 -11 -9 -20 -13 -20 -5 0 -6 9 -3 20 3 11 9 20 13 20 5 0 6 -9 3 -20z
m440 -1 c36 -9 45 -17 64 -57 13 -26 34 -62 48 -81 28 -38 33 -60 10 -41 -13
11 -15 10 -9 -6 3 -12 -7 -5 -26 16 -17 19 -27 26 -21 15 15 -31 41 -88 41
-91 0 -12 -45 15 -63 37 -12 16 -32 42 -44 58 -13 16 -43 38 -68 50 -52 24
-60 56 -23 91 25 23 34 24 91 9z m257 2 c0 -5 -7 -12 -16 -15 -24 -9 -28 -7
-14 9 14 17 30 20 30 6z m70 -20 l35 -29 -33 -35 c-37 -38 -60 -39 -96 -5 -18
16 -18 18 -2 18 9 0 15 4 11 9 -3 6 11 13 32 16 58 10 60 11 31 25 -16 7 -28
17 -28 22 0 15 15 8 50 -21z m-1204 4 c-4 -10 1 -15 14 -15 11 0 20 -5 20 -10
0 -6 14 -9 31 -8 20 2 34 -2 37 -11 4 -11 -3 -13 -34 -8 -22 4 -61 7 -89 7
l-50 0 34 30 c38 34 46 37 37 15z m320 0 c4 -10 21 -15 53 -15 44 -1 47 -2 68
-45 18 -36 21 -49 12 -68 -12 -26 -71 -59 -134 -76 -23 -6 -55 -25 -75 -46
-19 -19 -43 -35 -54 -35 -19 1 -19 1 -3 11 9 5 17 18 17 27 0 10 7 29 17 42
14 22 13 22 -15 -4 -49 -46 -38 -16 13 34 26 26 52 63 61 90 9 25 20 53 25 63
6 11 6 17 -1 17 -5 0 -10 5 -10 10 0 16 20 12 26 -5z m239 -25 c3 -5 1 -10 -4
-10 -6 0 -11 5 -11 10 0 6 2 10 4 10 3 0 8 -4 11 -10z m535 1 c0 -6 -4 -13
-10 -16 -5 -3 -10 1 -10 9 0 9 5 16 10 16 6 0 10 -4 10 -9z m-812 -13 c-5 -15
-71 -28 -100 -21 -10 3 -18 12 -18 19 0 10 16 14 61 14 44 0 60 -3 57 -12z
m222 -13 c-7 -8 -17 -12 -22 -9 -6 4 -5 10 3 15 22 14 33 10 19 -6z m175 -7
c7 -7 2 -8 -15 -3 -14 4 -29 12 -35 17 -7 7 -2 8 15 3 14 -4 30 -12 35 -17z
m39 7 c3 -8 1 -15 -4 -15 -6 0 -10 7 -10 15 0 8 2 15 4 15 2 0 6 -7 10 -15z
m341 -122 c-12 -35 -20 -5 -16 64 l4 78 9 -65 c4 -36 6 -71 3 -77z m167 91
c-18 -14 -32 -33 -32 -42 0 -13 -3 -13 -12 -4 -10 10 -5 20 27 47 22 18 42 31
45 29 2 -3 -10 -16 -28 -30z m-1217 16 c3 -5 -1 -10 -9 -10 -9 0 -16 5 -16 10
0 6 4 10 9 10 6 0 13 -4 16 -10z m147 -40 c0 -22 1 -46 2 -52 1 -7 -6 -14 -15
-16 -12 -2 -18 8 -23 44 -6 50 -2 64 20 64 9 0 14 -13 16 -40z m-188 24 c23
-9 20 -24 -11 -56 -32 -34 -24 -48 11 -20 28 21 81 19 72 -3 -2 -7 5 -28 16
-46 33 -53 51 -121 36 -131 -31 -19 -41 -9 -35 35 5 39 5 41 -9 22 -14 -19
-16 -19 -28 -2 -7 9 -18 17 -24 17 -6 0 -14 5 -17 11 -5 7 7 8 39 4 33 -5 46
-4 46 5 0 7 -17 11 -47 10 -110 -4 -106 -5 -99 42 4 25 18 54 32 69 24 26 25
28 7 38 -20 11 -14 14 11 5z m270 -23 c-20 -38 -54 -54 -54 -25 0 8 5 12 11 8
6 -3 4 5 -6 19 l-16 26 39 -2 c37 -1 38 -2 26 -26z m298 1 c14 -11 15 -18 7
-29 -6 -7 -16 -13 -21 -13 -6 0 -6 6 1 14 9 11 6 18 -16 35 -20 15 -22 19 -8
15 11 -4 28 -14 37 -22z m114 21 c-13 -13 -96 -20 -105 -9 -7 8 9 12 51 13 33
1 57 -1 54 -4z m74 -40 c0 -20 5 -76 11 -125 7 -49 9 -91 7 -94 -3 -2 -13 -2
-22 2 -14 5 -16 24 -16 130 0 76 4 124 10 124 6 0 10 -17 10 -37z m71 21 c24
-12 28 -18 19 -29 -8 -10 -3 -19 22 -38 29 -23 31 -28 20 -51 -6 -14 -17 -26
-23 -26 -7 0 -5 9 5 25 9 13 16 27 16 30 0 3 -23 5 -52 5 l-51 0 24 26 24 26
-22 18 c-39 31 -29 39 18 14z m-153 -13 c-10 -17 -8 -23 13 -41 l24 -21 -32
17 c-33 18 -44 48 -20 57 23 10 27 7 15 -12z m-856 -13 c-7 -7 -12 -8 -12 -2
0 14 12 26 19 19 2 -3 -1 -11 -7 -17z m1658 -14 c0 -8 -5 -12 -10 -9 -6 4 -8
11 -5 16 9 14 15 11 15 -7z m-876 -3 c3 -5 14 -7 24 -5 9 2 28 -5 42 -15 24
-19 24 -20 7 -39 -24 -26 -93 -35 -129 -16 -36 19 -35 34 5 61 37 24 44 26 51
14z m-479 -11 c3 -5 1 -10 -4 -10 -6 0 -11 5 -11 10 0 6 2 10 4 10 3 0 8 -4
11 -10z m1112 -7 c5 -14 -27 -25 -83 -27 -48 -1 -54 6 -24 27 24 17 102 17
107 0z m-1517 -7 c0 -3 -4 -8 -10 -11 -5 -3 -10 -1 -10 4 0 6 5 11 10 11 6 0
10 -2 10 -4z m1210 -17 c0 -6 -4 -7 -10 -4 -5 3 -10 11 -10 16 0 6 5 7 10 4 6
-3 10 -11 10 -16z m-735 -46 c1 -27 4 -115 9 -198 l8 -150 -30 -16 c-31 -17
-88 -86 -80 -95 3 -3 16 11 28 30 28 46 40 45 41 -1 1 -21 3 -61 5 -90 2 -28
0 -54 -4 -57 -5 -3 -22 8 -37 24 -32 34 -61 150 -42 169 8 8 7 11 -2 11 -7 0
-11 9 -9 23 3 19 9 22 46 22 l42 0 0 47 c0 28 5 48 13 51 7 3 5 6 -5 6 -15 1
-17 16 -17 136 -1 122 1 135 17 135 14 0 17 -9 17 -47z m285 -32 c1 -36 2
-128 3 -204 1 -86 -2 -137 -8 -137 -32 1 -38 19 -37 121 0 57 1 109 2 114 1 6
1 49 0 97 -1 83 0 86 19 81 19 -5 21 -13 21 -72z m335 49 c10 -11 13 -20 7
-20 -6 0 -16 9 -22 20 -6 11 -9 20 -7 20 2 0 12 -9 22 -20z m288 -55 l3 -60 2
63 c2 62 2 62 31 62 37 0 37 0 45 -77 l7 -63 -44 0 c-25 0 -49 6 -55 13 -6 6
-11 37 -12 67 -2 73 -2 76 9 65 6 -6 12 -37 14 -70z m-171 43 c5 -76 5 -128
-2 -121 -13 14 -22 143 -10 143 5 0 11 -10 12 -22z m128 18 c0 -3 -4 -8 -10
-11 -5 -3 -10 -1 -10 4 0 6 5 11 10 11 6 0 10 -2 10 -4z m-686 -20 c-10 -8
-21 -12 -24 -10 -5 6 21 24 34 24 6 0 1 -6 -10 -14z m-374 -37 c0 -19 -1 -19
-16 -4 -12 12 -19 13 -30 4 -8 -6 -14 -7 -14 -2 0 16 12 23 37 23 17 0 23 -6
23 -21z m1025 11 c-3 -5 -12 -7 -20 -3 -21 7 -19 13 6 13 11 0 18 -4 14 -10z
m-1225 -19 c0 -6 -4 -13 -10 -16 -5 -3 -10 1 -10 9 0 9 5 16 10 16 6 0 10 -4
10 -9z m877 -37 c17 -13 36 -24 42 -24 6 0 11 -4 11 -10 0 -20 -36 -9 -72 20
-40 33 -55 32 -92 -9 -10 -11 -22 -19 -25 -16 -4 2 -13 0 -21 -6 -10 -6 -11
-9 -2 -9 6 0 12 -10 12 -21 0 -18 2 -20 15 -9 13 11 13 15 3 21 -9 6 -6 9 9 9
l22 0 -25 -47 c-31 -58 -48 -61 -52 -9 -4 50 5 86 22 86 7 0 21 10 32 21 38
43 66 43 121 3z m-697 15 c0 -5 4 -8 8 -5 9 6 9 -51 0 -59 -3 -3 -15 10 -26
29 -11 19 -18 37 -15 40 10 10 33 7 33 -5z m305 -24 c-20 -15 -40 -24 -42 -21
-6 5 57 46 71 46 5 0 -8 -11 -29 -25z m601 3 l19 -22 -27 17 c-26 16 -27 16
-46 -8 -21 -27 -32 -32 -32 -14 0 13 40 48 56 49 6 0 19 -10 30 -22z m104 -13
c-13 -14 -26 -23 -28 -20 -3 3 5 16 18 30 13 14 26 23 28 20 3 -3 -5 -16 -18
-30z m71 9 c21 -23 22 -26 5 -23 -19 4 -56 49 -39 49 5 0 20 -12 34 -26z
m-670 -5 l24 -20 -30 17 c-39 24 -40 24 -28 24 6 0 21 -9 34 -21z m-253 -56
c6 -15 12 -37 12 -50 0 -19 -5 -23 -30 -23 -29 0 -30 2 -30 43 0 24 3 47 7 50
13 14 28 6 41 -20z m212 17 l65 -1 -33 -28 -32 -28 25 -11 c29 -13 33 -37 8
-50 -18 -10 -117 -1 -129 11 -10 10 14 34 41 41 35 9 31 23 -10 43 -37 18 -47
34 -17 28 9 -2 46 -4 82 -5z m671 -21 c7 -23 7 -23 8 -1 1 20 15 27 39 20 9
-4 3 -70 -8 -82 -5 -4 -14 -5 -21 -1 -9 6 -7 12 7 23 17 13 15 14 -28 9 -53
-5 -63 -1 -70 30 -5 18 -1 23 21 26 39 6 45 3 52 -24z m99 20 c0 6 14 11 30
11 42 0 38 -14 -15 -50 l-45 -31 0 42 c0 36 2 40 15 29 10 -9 15 -9 15 -1z
m-183 -50 c3 -53 -5 -59 -89 -59 -38 0 -48 4 -48 16 0 10 6 14 15 10 10 -4 15
1 15 14 0 11 -6 20 -14 20 -13 0 -26 20 -26 40 0 5 33 8 73 7 l72 -2 2 -46z
m-831 -127 c-11 -10 -15 4 -8 28 l7 25 3 -23 c2 -13 1 -26 -2 -30z m54 6 c0
-4 -9 -8 -20 -8 -15 0 -20 7 -20 27 0 25 0 26 20 8 11 -10 20 -22 20 -27z
m155 0 c6 -4 -6 -8 -25 -8 -33 1 -34 2 -16 15 11 8 22 12 25 8 3 -4 11 -11 16
-15z m75 -10 c19 -13 36 -30 38 -38 3 -10 -3 -8 -19 6 -13 12 -37 29 -54 37
-17 9 -23 16 -14 17 9 0 31 -10 49 -22z m-110 -18 c0 -5 -12 -10 -26 -10 -14
0 -23 4 -19 10 3 6 15 10 26 10 10 0 19 -4 19 -10z m272 -40 c-2 -22 -7 -40
-10 -40 -15 0 -42 36 -42 57 0 19 5 23 28 23 26 0 27 -2 24 -40z m-41 -33 c23
-16 33 -30 31 -43 -7 -38 -66 -143 -76 -133 -3 2 -5 36 -6 74 -3 142 -4 139
51 102z"/>
<path d="M1226 3142 c-3 -6 -1 -14 5 -17 14 -9 20 -2 10 14 -6 8 -11 9 -15 3z"/>
<path d="M1317 3136 c-3 -8 -2 -18 4 -22 16 -9 22 2 11 21 -8 15 -10 16 -15 1z"/>
<path d="M1417 3042 c-25 -27 -22 -74 6 -91 21 -13 22 -13 5 6 -34 37 -20 84
27 96 19 4 19 5 -1 6 -11 0 -28 -7 -37 -17z"/>
<path d="M1480 3040 c-27 -27 -26 -65 2 -85 21 -14 24 -14 40 7 20 26 22 51 8
79 -13 24 -25 24 -50 -1z"/>
<path d="M1632 2958 c-15 -15 -16 -35 -1 -43 6 -4 10 -1 8 6 -3 29 3 43 10 19
4 -14 13 -25 21 -25 9 0 15 10 15 25 0 28 -32 39 -53 18z"/>
<path d="M1775 2869 c-7 -10 21 -49 36 -49 5 0 13 9 20 21 8 16 8 24 -1 33 -8
8 -10 7 -5 -5 4 -10 2 -20 -4 -24 -7 -3 -11 2 -11 14 0 22 -24 29 -35 10z"/>
<path d="M1644 2795 c-10 -8 -14 -15 -7 -15 6 0 15 5 19 11 3 6 17 9 30 6 13
-2 21 0 18 4 -8 14 -38 11 -60 -6z"/>
<path d="M1519 2761 l-24 -19 25 -10 c34 -13 47 -30 52 -67 l4 -30 12 28 c13
30 42 36 65 12 18 -17 27 -10 27 23 0 20 -2 22 -15 12 -8 -6 -20 -10 -27 -7
-7 2 -21 0 -31 -5 -14 -7 -26 -2 -52 21 l-35 30 22 16 c13 8 17 15 11 15 -6 0
-21 -9 -34 -19z"/>
<path d="M1595 2750 c11 -14 20 -26 21 -28 1 -2 5 5 8 15 4 9 4 14 0 10 -4 -4
-17 1 -28 10 l-21 18 20 -25z"/>
<path d="M1864 2755 c-16 -40 27 -69 57 -38 20 20 17 53 -4 53 -8 0 -8 -3 0
-11 12 -12 7 -39 -8 -39 -5 0 -8 3 -7 8 2 12 -14 42 -23 42 -5 0 -12 -7 -15
-15z"/>
<path d="M1675 2749 c-4 -6 -5 -12 -2 -15 2 -3 7 2 10 11 7 17 1 20 -8 4z"/>
<path d="M1717 2703 c-21 -30 -35 -58 -32 -61 3 -3 11 0 17 6 9 9 15 9 25 0 7
-6 17 -7 21 -3 4 4 1 10 -5 12 -20 7 -15 47 7 71 11 11 16 23 12 26 -4 2 -24
-21 -45 -51z"/>
<path d="M1771 2706 c-11 -19 -11 -29 0 -52 15 -29 62 -44 51 -16 -3 8 3 21
13 28 10 8 13 14 7 14 -7 0 -12 7 -12 15 0 12 -28 35 -43 35 -2 0 -9 -11 -16
-24z m38 -39 c-7 -15 -16 -27 -21 -27 -9 0 -11 41 -2 65 6 14 9 15 21 2 11
-11 12 -19 2 -40z"/>
<path d="M1603 2598 c-21 -41 -39 -106 -38 -138 0 -8 8 -16 18 -18 16 -3 17
-1 7 18 -7 13 -8 20 -2 16 6 -3 14 -1 17 5 12 18 48 27 77 18 25 -7 28 -5 28
16 0 13 5 27 11 31 8 5 10 -3 7 -27 -6 -40 14 -68 37 -49 7 6 11 18 8 27 -4
11 -2 14 8 11 8 -3 13 -11 11 -17 -1 -6 10 -16 25 -22 16 -6 41 -18 56 -26 22
-11 31 -12 42 -3 8 6 19 9 26 5 12 -8 29 11 29 34 0 11 -4 9 -14 -5 -8 -10
-18 -16 -22 -11 -4 4 -17 -1 -28 -10 -21 -18 -21 -18 -4 2 12 15 14 25 6 38
-5 10 -7 21 -4 24 3 3 10 -5 15 -18 8 -18 10 -20 10 -6 1 26 -18 59 -30 51 -6
-3 -18 1 -27 9 -9 8 -33 18 -52 21 -19 4 -44 11 -55 16 -18 8 -58 19 -94 26
-7 1 -18 7 -24 13 -17 17 -20 14 -44 -31z m245 -56 c2 -7 -3 -12 -12 -12 -9 0
-16 7 -16 16 0 17 22 14 28 -4z m-208 -16 c0 -3 -4 -8 -10 -11 -5 -3 -10 -1
-10 4 0 6 5 11 10 11 6 0 10 -2 10 -4z"/>
<path d="M1869 2603 c-13 -17 -13 -17 6 -3 11 8 22 16 24 17 2 2 0 3 -6 3 -6
0 -17 -8 -24 -17z"/>
<path d="M1562 2583 c-20 -54 -25 -76 -13 -69 6 4 11 16 11 27 0 11 5 29 11
41 6 11 9 22 6 24 -2 3 -9 -8 -15 -23z"/>
<path d="M2005 2540 c-3 -6 1 -7 9 -4 18 7 21 14 7 14 -6 0 -13 -4 -16 -10z"/>
<path d="M1520 2496 c0 -2 7 -7 16 -10 8 -3 12 -2 9 4 -6 10 -25 14 -25 6z"/>
<path d="M1620 2470 c0 -5 4 -10 9 -10 6 0 13 5 16 10 3 6 -1 10 -9 10 -9 0
-16 -4 -16 -10z"/>
<path d="M2011 2432 c-13 -26 -50 -87 -82 -135 -65 -97 -77 -123 -26 -55 64
85 144 224 135 234 -3 2 -15 -18 -27 -44z"/>
<path d="M1520 2445 c0 -14 2 -25 4 -25 2 0 6 11 8 25 3 14 1 25 -3 25 -5 0
-9 -11 -9 -25z"/>
<path d="M1676 2462 c-3 -5 17 -18 45 -29 27 -12 49 -18 49 -13 0 4 -13 13
-30 20 -16 7 -30 16 -30 21 0 11 -27 12 -34 1z"/>
<path d="M1784 2455 c11 -8 24 -15 30 -15 5 0 1 7 -10 15 -10 8 -23 14 -29 14
-5 0 -1 -6 9 -14z"/>
<path d="M1855 2421 c-3 -5 -1 -12 5 -16 5 -3 10 1 10 9 0 18 -6 21 -15 7z"/>
<path d="M1645 2392 c3 -7 5 -20 5 -28 0 -21 24 -17 48 9 12 13 22 25 22 28 0
2 -18 4 -40 4 -31 1 -39 -2 -35 -13z"/>
<path d="M1507 2379 c-4 -13 2 -33 16 -51 18 -25 19 -30 7 -38 -11 -7 -8 -10
13 -10 26 0 27 1 12 23 -8 13 -12 27 -8 32 5 4 3 5 -4 1 -15 -8 -28 13 -24 42
3 28 -5 29 -12 1z"/>
<path d="M1864 2378 l-19 -23 23 19 c21 18 27 26 19 26 -2 0 -12 -10 -23 -22z"/>
<path d="M1718 2367 c-10 -20 -10 -21 5 -8 12 9 17 10 17 2 0 -6 -7 -14 -15
-17 -8 -4 -15 -11 -15 -17 0 -5 8 -3 18 6 13 12 21 14 29 6 6 -6 13 -7 15 -2
2 4 -6 18 -19 30 l-23 22 -12 -22z"/>
<path d="M1585 2329 c-4 -6 -5 -12 -2 -15 2 -3 7 2 10 11 7 17 1 20 -8 4z"/>
<path d="M2085 2330 c-4 -6 -11 -7 -17 -4 -7 5 -8 2 -4 -5 5 -7 1 -20 -8 -30
-18 -20 -14 -58 9 -80 14 -15 18 -14 36 9 14 18 18 34 14 55 -3 17 -7 38 -8
48 -1 19 -12 22 -22 7z"/>
<path d="M2158 2315 c29 -37 29 -89 0 -109 -25 -18 -8 -22 23 -6 35 19 20 102
-23 129 -21 13 -21 13 0 -14z"/>
<path d="M1625 2309 c-4 -6 -5 -12 -2 -15 2 -3 7 2 10 11 7 17 1 20 -8 4z"/>
<path d="M1465 2280 c-17 -33 -19 -44 -6 -36 10 6 33 66 26 66 -3 0 -11 -13
-20 -30z"/>
<path d="M1665 2259 c-4 -6 -5 -12 -2 -15 2 -3 7 2 10 11 7 17 1 20 -8 4z"/>
<path d="M1482 2192 c-20 -42 -20 -44 -2 -22 11 14 20 29 20 33 0 5 5 5 10 2
12 -7 13 5 2 22 -5 7 -16 -5 -30 -35z"/>
<path d="M1440 2209 c-7 -11 -10 -23 -7 -25 2 -2 9 7 15 21 14 30 7 33 -8 4z"/>
<path d="M2108 2193 c7 -3 16 -2 19 1 4 3 -2 6 -13 5 -11 0 -14 -3 -6 -6z"/>
<path d="M1695 2170 c3 -5 8 -10 11 -10 2 0 4 5 4 10 0 6 -5 10 -11 10 -5 0
-7 -4 -4 -10z"/>
<path d="M1836 2131 c-15 -28 -24 -51 -22 -51 7 0 57 93 52 98 -3 2 -16 -19
-30 -47z"/>
<path d="M1520 2131 c0 -6 4 -12 8 -15 5 -3 9 1 9 9 0 8 -4 15 -9 15 -4 0 -8
-4 -8 -9z"/>
<path d="M1908 2072 c-47 -29 -39 -125 14 -153 35 -19 100 -20 120 -2 26 23
41 88 28 114 -7 11 -14 18 -17 15 -3 -3 0 -12 6 -20 8 -9 10 -24 5 -38 -10
-34 -46 -78 -62 -78 -13 0 -12 3 1 18 32 35 16 111 -31 150 -20 15 -30 14 -64
-6z"/>
<path d="M1703 2068 c-20 -26 -26 -41 -15 -34 12 7 36 46 29 46 -3 0 -9 -6
-14 -12z"/>
<path d="M1525 2044 c-9 -14 -14 -28 -12 -31 3 -3 13 9 22 26 19 38 14 41 -10
5z"/>
<path d="M1340 1959 c-19 -34 -36 -64 -38 -69 -3 -9 56 -35 64 -28 2 3 -9 11
-25 18 l-30 12 37 56 c20 32 41 60 47 64 6 5 4 8 -5 8 -8 -1 -31 -28 -50 -61z"/>
<path d="M1450 1989 c6 -11 8 -25 4 -32 -5 -7 -1 -7 10 2 13 11 20 11 28 3 7
-7 16 -12 21 -12 12 0 -22 32 -50 47 -21 11 -22 10 -13 -8z"/>
<path d="M1695 1980 c3 -5 8 -10 11 -10 2 0 4 5 4 10 0 6 -5 10 -11 10 -5 0
-7 -4 -4 -10z"/>
<path d="M1385 1969 c-11 -17 0 -20 21 -4 17 13 17 14 2 15 -9 0 -20 -5 -23
-11z"/>
<path d="M1631 1954 c-12 -15 -21 -31 -21 -37 0 -12 -1 -13 29 31 27 38 21 43
-8 6z"/>
<path d="M980 1921 c-7 -15 -7 -21 0 -21 12 0 25 28 17 36 -3 3 -10 -4 -17
-15z"/>
<path d="M1457 1900 c-6 -23 3 -39 19 -33 8 3 14 9 14 15 0 5 -4 6 -10 3 -5
-3 -10 -1 -10 4 0 17 50 13 56 -4 4 -8 0 -23 -7 -33 -13 -15 -12 -16 4 -3 18
14 25 67 7 56 -5 -3 -10 -3 -10 2 0 15 -59 9 -63 -7z"/>
<path d="M1076 1881 c-4 -7 -5 -15 -2 -18 9 -9 19 4 14 18 -4 11 -6 11 -12 0z"/>
<path d="M930 1870 c0 -5 5 -10 10 -10 6 0 10 5 10 10 0 6 -4 10 -10 10 -5 0
-10 -4 -10 -10z"/>
<path d="M1430 1870 c0 -5 5 -10 10 -10 6 0 10 5 10 10 0 6 -4 10 -10 10 -5 0
-10 -4 -10 -10z"/>
<path d="M783 1850 c-13 -5 -23 -12 -23 -15 0 -10 27 -5 46 10 21 16 11 18
-23 5z"/>
<path d="M1578 1843 c-9 -10 -22 -32 -31 -48 -27 -54 -47 -66 -88 -52 -20 7
-34 18 -31 25 6 20 -16 14 -28 -8 -9 -17 -8 -19 7 -13 16 6 16 5 4 -11 -18
-22 -66 -47 -75 -39 -10 10 -7 23 7 23 6 0 20 14 30 32 19 33 12 48 -25 48
-24 0 -23 17 2 25 11 3 20 11 20 17 0 6 -7 7 -17 3 -10 -5 -36 -11 -58 -14
-37 -6 -38 -8 -16 -15 13 -5 40 -15 60 -23 31 -13 33 -16 17 -25 -9 -5 -29 -7
-44 -3 -18 4 -24 3 -17 -3 6 -6 19 -12 30 -14 19 -4 19 -4 -3 -17 -19 -10 -26
-10 -38 0 -12 10 -17 10 -23 0 -6 -8 -19 -9 -47 -3 -37 8 -41 6 -73 -30 l-33
-38 31 0 c51 0 111 -23 118 -45 6 -19 6 -19 14 4 5 12 15 21 21 18 7 -2 23 5
36 17 l23 21 -6 -51 c-4 -30 -3 -54 2 -57 6 -4 8 4 5 18 -4 21 0 25 18 25 13
0 29 8 36 18 12 15 13 13 14 -21 0 -35 -3 -39 -46 -57 -25 -11 -52 -20 -60
-20 -9 0 -12 -5 -9 -10 4 -6 11 -7 17 -4 8 5 9 1 5 -12 -5 -12 1 -9 14 9 11
15 28 27 37 27 12 0 13 -3 4 -12 -20 -20 -13 -32 8 -13 16 15 22 15 35 5 8 -7
15 -8 15 -2 0 5 -7 13 -16 16 -8 3 -12 11 -9 17 4 6 13 8 21 5 8 -3 14 -1 14
4 0 5 7 7 15 4 9 -4 14 -13 13 -22 -2 -8 2 -17 7 -18 6 -3 9 14 7 41 -5 56 11
78 50 73 22 -4 28 -1 28 13 0 48 -11 49 -57 3 -45 -46 -59 -50 -76 -22 -8 12
3 28 52 77 34 33 66 71 71 83 5 13 17 33 26 46 19 26 14 30 -8 5z m-105 -123
c5 -4 -15 -26 -43 -50 -28 -23 -54 -39 -58 -36 -3 4 -1 11 6 15 7 4 12 12 10
17 -1 5 6 24 15 42 15 27 22 32 40 26 12 -3 26 -10 30 -14z m-188 -10 c3 -5 1
-10 -4 -10 -6 0 -11 5 -11 10 0 6 2 10 4 10 3 0 8 -4 11 -10z"/>
<path d="M995 1814 c-46 -41 -119 -79 -135 -69 -5 3 -10 2 -10 -3 0 -37 108
16 169 82 34 36 23 32 -24 -10z"/>
<path d="M1440 1840 c0 -8 25 -20 43 -20 8 0 7 4 -1 12 -14 14 -42 20 -42 8z"/>
<path d="M880 1831 c0 -5 5 -13 10 -16 6 -3 10 -2 10 4 0 5 -4 13 -10 16 -5 3
-10 2 -10 -4z"/>
<path d="M1841 1822 c-15 -29 -14 -49 5 -56 31 -12 52 -6 57 16 8 29 1 36 -8
9 -3 -12 -11 -21 -16 -21 -6 0 -7 4 -4 10 3 5 0 22 -8 37 -14 26 -15 26 -26 5z"/>
<path d="M1030 1804 c0 -17 22 -14 28 4 2 7 -3 12 -12 12 -9 0 -16 -7 -16 -16z"/>
<path d="M1395 1810 c3 -5 13 -10 21 -10 8 0 12 5 9 10 -3 6 -13 10 -21 10 -8
0 -12 -4 -9 -10z"/>
<path d="M870 1775 c0 -9 5 -15 11 -13 6 2 11 8 11 13 0 5 -5 11 -11 13 -6 2
-11 -4 -11 -13z"/>
<path d="M970 1760 c0 -5 4 -10 9 -10 6 0 13 5 16 10 3 6 -1 10 -9 10 -9 0
-16 -4 -16 -10z"/>
<path d="M1581 1623 c-1 -12 4 -25 9 -28 12 -7 12 2 0 30 -8 19 -9 19 -9 -2z"/>
<path d="M1031 1605 c1 -17 2 -17 6 -2 2 9 8 17 13 17 5 0 14 -8 19 -17 6 -11
11 -13 11 -5 0 7 4 11 9 8 5 -4 21 -2 35 4 22 8 28 6 38 -10 16 -25 28 -26 28
-1 0 11 6 21 13 24 6 2 -30 4 -80 3 -86 -1 -93 -2 -92 -21z"/>
<path d="M1878 1609 c-22 -12 -23 -32 -4 -48 11 -9 19 -9 35 1 12 7 21 17 21
22 0 4 -6 3 -14 -3 -12 -10 -15 -8 -18 13 -2 20 -6 23 -20 15z"/>
<path d="M1510 1597 c0 -8 7 -20 15 -27 13 -11 14 -10 9 4 -5 13 -2 15 12 10
24 -9 16 0 -13 15 -19 9 -23 9 -23 -2z"/>
<path d="M1280 1565 c7 -9 15 -13 17 -11 7 7 -7 26 -19 26 -6 0 -6 -6 2 -15z"/>
<path d="M926 1557 c3 -10 9 -15 12 -12 3 3 0 11 -7 18 -10 9 -11 8 -5 -6z"/>
<path d="M978 1546 c-6 -12 -16 -24 -22 -28 -20 -14 20 -9 57 7 48 20 63 19
89 -7 l21 -21 24 28 c13 15 23 29 21 30 -2 2 -43 5 -91 7 -81 4 -89 3 -99 -16z"/>
<path d="M1180 1550 c0 -6 -12 -28 -26 -50 -15 -22 -25 -43 -22 -46 5 -4 68
89 68 101 0 3 -4 5 -10 5 -5 0 -10 -5 -10 -10z"/>
<path d="M1250 1536 c0 -2 9 -6 20 -9 11 -3 18 -1 14 4 -5 9 -34 13 -34 5z"/>
<path d="M1202 1509 c-14 -22 -16 -41 -2 -19 9 13 11 13 20 0 7 -12 10 -12 10
-1 0 8 6 11 16 7 20 -8 8 11 -15 23 -13 7 -20 5 -29 -10z"/>
<path d="M960 1484 l-25 -15 25 7 c14 3 29 10 35 15 15 14 -7 10 -35 -7z"/>
<path d="M1028 1489 c-10 -5 -18 -15 -18 -21 0 -7 5 -6 15 2 8 7 24 10 36 7
16 -4 18 -3 8 9 -13 16 -18 17 -41 3z"/>
<path d="M1553 1443 c15 -2 37 -2 50 0 12 2 0 4 -28 4 -27 0 -38 -2 -22 -4z"/>
<path d="M1130 1419 c0 -5 5 -7 10 -4 6 3 10 8 10 11 0 2 -4 4 -10 4 -5 0 -10
-5 -10 -11z"/>
<path d="M1035 1382 c-20 -15 -32 -28 -26 -30 5 -2 23 6 39 18 30 22 47 25
100 14 21 -4 32 -2 32 5 0 6 -10 12 -22 12 -13 1 -37 3 -54 5 -21 1 -44 -7
-69 -24z"/>
<path d="M860 1391 c-8 -6 -18 -7 -23 -4 -5 3 -8 0 -5 -8 2 -8 18 -15 34 -16
16 -1 21 1 11 4 -14 4 -16 8 -6 19 13 16 10 18 -11 5z"/>
<path d="M940 1360 c8 -5 24 -9 35 -9 l20 0 -20 9 c-11 5 -27 9 -35 9 -13 1
-13 0 0 -9z"/>
<path d="M930 2414 c-23 -13 -24 -14 -4 -14 12 0 27 7 34 15 15 18 4 18 -30
-1z"/>
<path d="M780 2195 c0 -18 16 -20 26 -4 5 8 13 4 24 -11 13 -17 23 -21 36 -16
17 7 14 10 -16 26 -43 23 -70 25 -70 5z"/>
<path d="M793 2154 c-3 -8 0 -21 6 -27 9 -9 10 -7 5 8 -7 18 -6 18 9 6 18 -14
20 -12 11 13 -8 20 -23 20 -31 0z"/>
<path d="M1087 2131 c-3 -12 -1 -21 3 -21 15 0 23 21 12 32 -6 6 -11 2 -15
-11z"/>
<path d="M857 2134 c7 -3 9 -13 6 -22 -4 -15 -3 -15 6 -2 15 22 14 30 -6 29
-10 0 -13 -3 -6 -5z"/>
<path d="M375 1540 c-10 -17 5 -50 24 -50 27 0 42 20 30 42 -10 19 -44 24 -54
8z m45 -21 c0 -6 -4 -7 -10 -4 -5 3 -10 11 -10 16 0 6 5 7 10 4 6 -3 10 -11
10 -16z"/>
<path d="M627 1335 c-16 -11 -13 -13 20 -17 47 -6 49 -5 20 15 -19 12 -26 12
-40 2z"/>
<path d="M630 1020 c0 -5 5 -10 11 -10 5 0 7 5 4 10 -3 6 -8 10 -11 10 -2 0
-4 -4 -4 -10z"/>
<path d="M1150 1009 l-35 -19 75 0 c66 0 72 2 55 14 -34 23 -59 24 -95 5z"/>
<path d="M878 723 c12 -2 32 -2 45 0 12 2 2 4 -23 4 -25 0 -35 -2 -22 -4z"/>
<path d="M1490 770 c-9 -6 -10 -10 -3 -10 6 0 14 -8 16 -17 3 -11 5 -7 6 10 1
30 1 30 -19 17z"/>
<path d="M870 3483 c0 -4 5 -15 10 -23 8 -13 10 -13 10 2 0 9 -4 20 -10 23 -5
3 -10 3 -10 -2z"/>
<path d="M1430 3451 c0 -5 7 -11 15 -15 8 -3 15 -1 15 3 0 5 -7 11 -15 15 -8
3 -15 1 -15 -3z"/>
<path d="M1405 3429 c-4 -6 -5 -12 -2 -15 2 -3 7 2 10 11 7 17 1 20 -8 4z"/>
<path d="M1436 3407 c3 -10 9 -15 12 -12 3 3 0 11 -7 18 -10 9 -11 8 -5 -6z"/>
<path d="M1536 3365 c10 -8 24 -14 29 -14 6 0 1 6 -9 14 -11 8 -24 15 -30 15
-5 0 -1 -7 10 -15z"/>
<path d="M1600 3341 c0 -6 4 -13 10 -16 6 -3 7 1 4 9 -7 18 -14 21 -14 7z"/>
<path d="M1530 3313 c-22 -23 -23 -25 -4 -15 12 6 24 18 28 27 7 20 5 19 -24
-12z"/>
<path d="M517 3313 c-3 -5 1 -14 9 -21 12 -10 14 -10 14 2 0 17 -16 30 -23 19z"/>
<path d="M1980 3178 c0 -19 2 -20 10 -8 9 13 11 13 20 0 8 -12 10 -11 10 8 0
15 -6 22 -20 22 -14 0 -20 -7 -20 -22z"/>
<path d="M535 3160 c-3 -6 1 -7 9 -4 18 7 21 14 7 14 -6 0 -13 -4 -16 -10z"/>
<path d="M2150 3111 c0 -12 39 -35 46 -28 3 2 -7 12 -21 21 -14 9 -25 12 -25
7z"/>
<path d="M2110 3069 c0 -5 5 -7 10 -4 6 3 10 8 10 11 0 2 -4 4 -10 4 -5 0 -10
-5 -10 -11z"/>
<path d="M353 3023 c-20 -7 -15 -33 5 -33 11 0 18 8 19 20 2 20 -2 22 -24 13z"/>
<path d="M368 2683 c-8 -10 -2 -13 26 -13 25 0 36 4 36 15 0 18 -46 17 -62 -2z"/>
<path d="M2363 2628 c-17 -22 -23 -48 -12 -48 6 0 9 -6 6 -13 -3 -8 -1 -20 3
-27 5 -9 8 1 7 26 -1 22 3 45 7 52 11 18 1 26 -11 10z"/>
<path d="M440 2382 c0 -5 9 -17 20 -27 17 -16 20 -16 26 -2 3 9 3 21 -1 27 -7
12 -45 14 -45 2z"/>
<path d="M332 2333 c2 -10 12 -18 23 -18 11 0 21 8 23 18 3 13 -3 17 -23 17
-20 0 -26 -4 -23 -17z"/>
<path d="M311 2238 c-9 -24 0 -51 21 -64 15 -10 48 32 48 62 0 20 -5 24 -30
24 -23 0 -33 -6 -39 -22z"/>
<path d="M270 2115 c0 -18 23 -32 28 -17 7 23 7 25 -10 28 -10 1 -18 -4 -18
-11z"/>
<path d="M240 2020 c0 -5 7 -10 15 -10 8 0 15 5 15 10 0 6 -7 10 -15 10 -8 0
-15 -4 -15 -10z"/>
<path d="M100 1880 c0 -5 5 -10 11 -10 5 0 7 5 4 10 -3 6 -8 10 -11 10 -2 0
-4 -4 -4 -10z"/>
<path d="M2392 1855 c0 -16 2 -22 5 -12 2 9 2 23 0 30 -3 6 -5 -1 -5 -18z"/>
<path d="M155 1850 c3 -5 13 -10 21 -10 8 0 14 5 14 10 0 6 -9 10 -21 10 -11
0 -17 -4 -14 -10z"/>
<path d="M2386 1798 c-4 -14 -6 -34 -4 -43 3 -14 4 -14 14 2 6 10 7 29 4 43
l-7 25 -7 -27z"/>
<path d="M128 1352 c-10 -2 -18 -8 -18 -13 0 -13 27 -11 35 2 9 13 4 16 -17
11z"/>
<path d="M104 1277 c-9 -25 0 -62 16 -62 10 0 15 10 15 34 0 36 -21 54 -31 28z"/>
<path d="M235 1180 c-8 -13 13 -40 31 -40 15 0 17 10 8 34 -7 18 -30 21 -39 6z"/>
<path d="M2302 1070 c0 -14 2 -19 5 -12 2 6 2 18 0 25 -3 6 -5 1 -5 -13z"/>
<path d="M228 813 c7 -3 16 -2 19 1 4 3 -2 6 -13 5 -11 0 -14 -3 -6 -6z"/>
<path d="M280 760 c-12 -7 -12 -13 -4 -27 16 -26 51 -28 59 -4 11 37 -19 54
-55 31z"/>
<path d="M1936 757 c-14 -10 -16 -16 -7 -22 15 -9 35 8 30 24 -3 8 -10 7 -23
-2z"/>
<path d="M210 716 c0 -2 7 -6 15 -10 8 -3 15 -1 15 4 0 6 -7 10 -15 10 -8 0
-15 -2 -15 -4z"/>
<path d="M360 684 c0 -17 22 -14 28 4 2 7 -3 12 -12 12 -9 0 -16 -7 -16 -16z"/>
<path d="M1756 615 c-3 -8 -2 -15 3 -15 5 0 14 7 21 15 10 12 10 15 -3 15 -8
0 -17 -7 -21 -15z"/>
<path d="M2043 573 c-21 -8 -16 -43 6 -43 24 0 33 13 25 34 -6 17 -11 18 -31
9z"/>
<path d="M375 540 c-8 -13 14 -42 25 -35 4 3 10 14 13 25 4 15 0 20 -13 20
-11 0 -22 -5 -25 -10z"/>
<path d="M470 510 c0 -5 5 -10 10 -10 6 0 10 5 10 10 0 6 -4 10 -10 10 -5 0
-10 -4 -10 -10z"/>
<path d="M1564 508 c-4 -6 1 -17 12 -25 16 -12 20 -11 31 4 10 13 10 18 0 25
-17 11 -35 10 -43 -4z"/>
<path d="M480 424 c0 -24 19 -54 35 -54 20 0 27 15 19 45 -4 18 -13 25 -30 25
-15 0 -24 -6 -24 -16z"/>
<path d="M1497 403 c-13 -12 -7 -33 8 -33 8 0 15 9 15 20 0 20 -11 26 -23 13z"/>
<path d="M1278 308 c9 -9 15 -9 24 0 9 9 7 12 -12 12 -19 0 -21 -3 -12 -12z"/>
<path d="M1065 249 c-4 -6 -5 -12 -2 -15 7 -7 37 7 37 17 0 13 -27 11 -35 -2z"/>
<path d="M790 226 c0 -6 4 -17 8 -24 7 -10 12 -8 26 7 16 18 16 19 -9 23 -15
3 -25 1 -25 -6z"/>
<path d="M914 196 c-19 -30 -15 -65 9 -80 21 -14 46 0 67 38 14 25 14 28 -10
46 -33 26 -46 25 -66 -4z"/>
</g>
</svg>
